<mxfile host="app.diagrams.net" modified="2023-02-07T10:23:14.249Z" agent="5.0 (Macintosh)" etag="N6VuZRsmVFif01gunI_W" version="20.8.11" type="github">
  <diagram name="Page-1" id="c7558073-3199-34d8-9f00-42111426c3f3">
    <mxGraphModel dx="3245" dy="3326" grid="1" gridSize="10" guides="1" tooltips="1" connect="1" arrows="1" fold="1" page="1" pageScale="1" pageWidth="826" pageHeight="1169" background="none" math="0" shadow="0">
      <root>
        <mxCell id="0" />
        <mxCell id="1" parent="0" />
        <mxCell id="sGmR2cMoliQ0h1fHMsgX-98" value="" style="edgeStyle=none;noEdgeStyle=1;strokeColor=#990000;strokeWidth=2;entryX=0;entryY=0.5;entryDx=0;entryDy=0;exitX=1;exitY=0.5;exitDx=0;exitDy=0;" parent="1" edge="1" source="sGmR2cMoliQ0h1fHMsgX-109">
          <mxGeometry width="100" height="100" relative="1" as="geometry">
            <mxPoint x="196" y="-666" as="sourcePoint" />
            <mxPoint x="348.5000000000068" y="-695" as="targetPoint" />
          </mxGeometry>
        </mxCell>
        <mxCell id="sGmR2cMoliQ0h1fHMsgX-100" value="&lt;div&gt;Niedergelassene Praxis (V -1)&lt;br&gt;&lt;/div&gt;" style="swimlane;horizontal=0;whiteSpace=wrap;html=1;" parent="1" vertex="1">
          <mxGeometry x="50" y="-880" width="830" height="590" as="geometry">
            <mxRectangle x="50" y="-851" width="40" height="140" as="alternateBounds" />
          </mxGeometry>
        </mxCell>
        <mxCell id="sGmR2cMoliQ0h1fHMsgX-104" value="" style="edgeStyle=orthogonalEdgeStyle;rounded=0;orthogonalLoop=1;jettySize=auto;html=1;" parent="sGmR2cMoliQ0h1fHMsgX-100" edge="1">
          <mxGeometry relative="1" as="geometry">
            <mxPoint x="409.5" y="184" as="sourcePoint" />
            <mxPoint x="523" y="184" as="targetPoint" />
          </mxGeometry>
        </mxCell>
        <mxCell id="sGmR2cMoliQ0h1fHMsgX-105" value="&lt;div&gt;IS-02 &lt;br&gt;&lt;/div&gt;&lt;div&gt;Doctolib&lt;/div&gt;" style="html=1;dashed=0;whitespace=wrap;shape=mxgraph.dfd.dataStoreID;align=center;spacingLeft=3;points=[[0,0],[0.5,0],[1,0],[0,0.5],[1,0.5],[0,1],[0.5,1],[1,1]];" parent="sGmR2cMoliQ0h1fHMsgX-100" vertex="1">
          <mxGeometry x="524" y="145" width="245" height="74" as="geometry" />
        </mxCell>
        <mxCell id="xYtL9LTNpDdVsGrDmP8m-180" value="" style="edgeStyle=orthogonalEdgeStyle;rounded=0;orthogonalLoop=1;jettySize=auto;html=1;" edge="1" parent="sGmR2cMoliQ0h1fHMsgX-100" source="sGmR2cMoliQ0h1fHMsgX-106" target="sGmR2cMoliQ0h1fHMsgX-105">
          <mxGeometry relative="1" as="geometry" />
        </mxCell>
        <mxCell id="sGmR2cMoliQ0h1fHMsgX-106" value="&lt;strong&gt;Cloud Service&lt;/strong&gt;&lt;div&gt;&lt;br&gt;&lt;/div&gt;&lt;div&gt;Terminfindung&lt;/div&gt;&lt;div&gt;&lt;br&gt;&lt;/div&gt;Patientendaten" style="shape=ellipse;html=1;dashed=0;whitespace=wrap;aspect=fixed;perimeter=ellipsePerimeter;" parent="sGmR2cMoliQ0h1fHMsgX-100" vertex="1">
          <mxGeometry x="299.5" y="128" width="110" height="110" as="geometry" />
        </mxCell>
        <mxCell id="sGmR2cMoliQ0h1fHMsgX-99" value="Administrativ" style="text;spacingTop=-5;align=center" parent="sGmR2cMoliQ0h1fHMsgX-100" vertex="1">
          <mxGeometry x="183" y="189" width="90" height="53" as="geometry" />
        </mxCell>
        <mxCell id="sGmR2cMoliQ0h1fHMsgX-109" value="&lt;div&gt;Patientendaten&lt;/div&gt;(von Praxis oder &lt;br&gt;aus Telefonat)" style="html=1;dashed=0;whitespace=wrap;" parent="sGmR2cMoliQ0h1fHMsgX-100" vertex="1">
          <mxGeometry x="61" y="159" width="100" height="50" as="geometry" />
        </mxCell>
        <mxCell id="xYtL9LTNpDdVsGrDmP8m-174" value="" style="edgeStyle=none;noEdgeStyle=1;strokeColor=#990000;strokeWidth=2;entryX=0;entryY=0.5;entryDx=0;entryDy=0;" edge="1" parent="sGmR2cMoliQ0h1fHMsgX-100">
          <mxGeometry width="100" height="100" relative="1" as="geometry">
            <mxPoint x="146" y="62.000000000000455" as="sourcePoint" />
            <mxPoint x="298.5000000000068" y="62.000000000000455" as="targetPoint" />
          </mxGeometry>
        </mxCell>
        <mxCell id="xYtL9LTNpDdVsGrDmP8m-175" value="" style="edgeStyle=orthogonalEdgeStyle;rounded=0;orthogonalLoop=1;jettySize=auto;html=1;" edge="1" parent="sGmR2cMoliQ0h1fHMsgX-100">
          <mxGeometry relative="1" as="geometry">
            <mxPoint x="409.5" y="61" as="sourcePoint" />
            <mxPoint x="523" y="61" as="targetPoint" />
          </mxGeometry>
        </mxCell>
        <mxCell id="xYtL9LTNpDdVsGrDmP8m-176" value="&lt;div align=&quot;center&quot;&gt;IS-01 &lt;br&gt;&lt;/div&gt;&lt;div align=&quot;center&quot;&gt;E-Mail | Fax | Anruf&lt;br&gt;&lt;/div&gt;" style="html=1;dashed=0;whitespace=wrap;shape=mxgraph.dfd.dataStoreID;align=center;spacingLeft=3;points=[[0,0],[0.5,0],[1,0],[0,0.5],[1,0.5],[0,1],[0.5,1],[1,1]];" vertex="1" parent="sGmR2cMoliQ0h1fHMsgX-100">
          <mxGeometry x="524" y="25" width="245" height="74" as="geometry" />
        </mxCell>
        <mxCell id="xYtL9LTNpDdVsGrDmP8m-177" value="Administrativ" style="text;spacingTop=-5;align=center" vertex="1" parent="sGmR2cMoliQ0h1fHMsgX-100">
          <mxGeometry x="183" y="66" width="90" height="53" as="geometry" />
        </mxCell>
        <mxCell id="xYtL9LTNpDdVsGrDmP8m-178" value="Patientdaten" style="html=1;dashed=0;whitespace=wrap;" vertex="1" parent="sGmR2cMoliQ0h1fHMsgX-100">
          <mxGeometry x="61" y="36" width="100" height="50" as="geometry" />
        </mxCell>
        <mxCell id="xYtL9LTNpDdVsGrDmP8m-179" value="&lt;b&gt;Kommunikation&lt;/b&gt;&lt;div&gt;&lt;br&gt;&lt;/div&gt;&lt;div&gt;Anmeldung mit&lt;br&gt;&lt;/div&gt;Patientendaten" style="shape=ellipse;html=1;dashed=0;whitespace=wrap;aspect=fixed;perimeter=ellipsePerimeter;" vertex="1" parent="sGmR2cMoliQ0h1fHMsgX-100">
          <mxGeometry x="299.5" y="9" width="110" height="110" as="geometry" />
        </mxCell>
        <mxCell id="sGmR2cMoliQ0h1fHMsgX-101" value="" style="shape=image;verticalLabelPosition=bottom;labelBackgroundColor=default;verticalAlign=top;aspect=fixed;imageAspect=0;image=data:image/png,iVBORw0KGgoAAAANSUhEUgAAA+wAAADuCAYAAACj+Y0eAAAKrWlDQ1BJQ0MgUHJvZmlsZQAASImVlwdQU1kXx+976SGhJYQOoYYivQUQSAgtgIJ0sBGSAKGEEAgqNkTEFVwLKiKoCLoqouBaAFlFRRTboqBgd0EWEWVdLNhQ+R4whN395vu++c7Mmft75537v+feeXfmPADIyjyJJA1WBiBdnC0N8/emx8TG0XGDAAK6gAYcAYPHz5KwQ0ODAWLT49/tQw+Sjdgdqwmtf3//X01FIMziAwCFIpwgyOKnI3wK8Zd8iTQbANQ+JG60JFsywW0IU6VIgQjfn+CkKR6e4IRJRoPJnIgwDsJUAPAkHk+aBACJjsTpOfwkRIfEQthWLBCJEZYg7JmeniFA+DjCZkgOEiNN6DMT/qKT9DfNBLkmj5ck56m9TBreR5QlSeMt+z+P439beppseg1TxEnJ0oAwZFRFzux+akaQnMUJc0OmWSSYzJ/kZFlA5DTzszhx0yzg+QTJ56bNDZ7mRJEfV66TzY2YZmGWb/g0SzPC5GslSjnsaeZJZ9aVpUbK48lCrlw/NzkieppzRFFzpzkrNTxoJocjj0tlYfL6hWJ/75l1/eR7T8/6y35FXPnc7OSIAPneeTP1C8XsGc2sGHltAqGP70xOpDxfku0tX0uSFirPF6b5y+NZOeHyudnIBzkzN1R+him8wNBpBhyQAdIQlwI6CEaefADIFi7NntgIJ0OyTCpKSs6ms5EbJqRzxXzrWXR7W3sHACbu69Tn8I42eQ8h2vWZWP57ADwE4+PjZ2diwcYAnFoHAPH5TIzRAoCiOgBXi/kyac5UbPIuYQARKAEq0AR6wAiYAStgD5yBO2ABXxAIQkAEiAWLAB8kg3Sk8iVgBVgDCkEx2AJ2gHJQCfaDw+AYOAEawVlwEVwBN8Bt0A0egV4wAF6BEfABjEEQhIPIEAXShPQhE8gSsoeYkCfkCwVDYVAsFA8lQWJIBq2A1kLFUAlUDlVBNdDP0BnoInQN6oQeQH3QEPQW+gKjYBJMhXVhU9gGZsJsOAiOgBfCSXAmnAsXwJvgMrgaPgo3wBfhG3A33Au/gkdRAKWAoqEMUFYoJoqDCkHFoRJRUtQqVBGqFFWNqkM1o9pRd1C9qGHUZzQWTUHT0VZod3QAOhLNR2eiV6E3osvRh9EN6Db0HXQfegT9HUPG6GAsMW4YLiYGk4RZginElGIOYk5jLmO6MQOYD1gsloZlYF2wAdhYbAp2OXYjdg+2HnsB24ntx47icDhNnCXOAxeC4+GycYW4XbijuPO4LtwA7hNeAa+Pt8f74ePwYnw+vhR/BN+C78IP4scIygQTghshhCAgLCNsJhwgNBNuEQYIY0QVIoPoQYwgphDXEMuIdcTLxMfEdwoKCoYKrgrzFEQKeQplCscVrir0KXwmqZIsSBzSApKMtIl0iHSB9ID0jkwmm5JZ5DhyNnkTuYZ8ifyU/EmRomityFUUKK5WrFBsUOxSfK1EUDJRYistUspVKlU6qXRLaViZoGyqzFHmKa9SrlA+o3xPeVSFomKnEqKSrrJR5YjKNZUXqjhVU1VfVYFqgep+1Uuq/RQUxYjCofApaykHKJcpA1QslUHlUlOoxdRj1A7qiJqqmqNalNpStQq1c2q9NBTNlMalpdE2007Qemhf1HXV2epC9Q3qdepd6h81tDVYGkKNIo16jW6NL5p0TV/NVM2tmo2aT7TQWhZa87SWaO3Vuqw1rE3Vdtfmaxdpn9B+qAPrWOiE6SzX2a9zU2dUV0/XX1eiu0v3ku6wHk2PpZeit12vRW9In6LvqS/S365/Xv8lXY3OpqfRy+ht9BEDHYMAA5lBlUGHwZghwzDSMN+w3vCJEdGIaZRotN2o1WjEWN94jvEK41rjhyYEE6ZJsslOk3aTj6YM02jT9aaNpi8YGgwuI5dRy3hsRjbzMss0qza7a441Z5qnmu8xv20BWzhZJFtUWNyyhC2dLUWWeyw7Z2Fmuc4Sz6qedc+KZMW2yrGqteqzplkHW+dbN1q/tjG2ibPZatNu893WyTbN9oDtIztVu0C7fLtmu7f2FvZ8+wr7uw5kBz+H1Q5NDm8cLR2Fjnsd7ztRnOY4rXdqdfrm7OIsda5zHnIxdol32e1yj0llhjI3Mq+6Yly9XVe7nnX97Obslu12wu1Pdyv3VPcj7i9mM2YLZx+Y3e9h6MHzqPLo9aR7xnvu8+z1MvDieVV7PWMZsQSsg6xBtjk7hX2U/drb1lvqfdr7I8eNs5JzwQfl4+9T5NPhq+ob6Vvu+9TP0C/Jr9ZvxN/Jf7n/hQBMQFDA1oB7XF0un1vDHQl0CVwZ2BZECgoPKg96FmwRLA1ungPPCZyzbc7juSZzxXMbQ0AIN2RbyJNQRmhm6C/zsPNC51XMex5mF7YirD2cEr44/Ej4hwjviM0RjyLNImWRrVFKUQuiaqI+RvtEl0T3xtjErIy5EasVK4ptisPFRcUdjBud7zt/x/yBBU4LChf0LGQsXLrw2iKtRWmLzi1WWsxbfDIeEx8dfyT+Ky+EV80bTeAm7E4Y4XP4O/mvBCzBdsGQ0ENYIhxM9EgsSXyR5JG0LWko2Su5NHlYxBGVi96kBKRUpnxMDUk9lDqeFp1Wn45Pj08/I1YVp4rbMvQylmZ0SiwlhZLeTLfMHZkj0iDpwSwoa2FWUzYVaYxuysxk62R9OZ45FTmflkQtOblUZal46c1lFss2LBvM9cv9aTl6OX956wqDFWtW9K1kr6xaBa1KWNW62mh1weqBPP+8w2uIa1LX/Jpvm1+S/35t9NrmAt2CvIL+df7ragsVC6WF99a7r6/8Af2D6IeODQ4bdm34XiQoul5sW1xa/HUjf+P1H+1+LPtxfFPipo7Nzpv3bsFuEW/p2eq19XCJSkluSf+2OdsattO3F21/v2PxjmuljqWVO4k7ZTt7y4LLmnYZ79qy62t5cnl3hXdF/W6d3Rt2f9wj2NO1l7W3rlK3srjyyz7RvvtV/lUN1abVpfux+3P2Pz8QdaD9J+ZPNQe1DhYf/HZIfKj3cNjhthqXmpojOkc218K1stqhowuO3j7mc6ypzqquqp5WX3wcHJcdf/lz/M89J4JOtJ5knqw7ZXJq92nK6aIGqGFZw0hjcmNvU2xT55nAM63N7s2nf7H+5dBZg7MV59TObW4hthS0jJ/PPT96QXJh+GLSxf7Wxa2PLsVcuts2r63jctDlq1f8rlxqZ7efv+px9ew1t2tnrjOvN95wvtFw0+nm6V+dfj3d4dzRcMvlVtNt19vNnbM7W7q8ui7e8blz5S737o3uud2dPZE99+8tuNd7X3D/xYO0B28e5jwce5T3GPO46Inyk9KnOk+rfzP/rb7Xufdcn0/fzWfhzx718/tf/Z71+9eBgufk56WD+oM1L+xfnB3yG7r9cv7LgVeSV2PDhX+o/LH7tdnrU3+y/rw5EjMy8Eb6Zvztxnea7w69d3zfOho6+vRD+oexj0WfND8d/sz83P4l+svg2JKvuK9l38y/NX8P+v54PH18XMKT8iZbARTicGIiAG8PAUCOBYByG+kf5k/105MGTf0DTBL4TzzVc0+aMwB1yDDRFnEuAHAccdM8RJsFwERLFMECsIOD3Kd738k+fcKwyB/LPtYEdWsI8sA/bKqH/0vd/xzBhKoj+Of4L1imBpbcJIBBAAAAomVYSWZNTQAqAAAACAAGAQYAAwAAAAEAAgAAARIAAwAAAAEAAQAAARoABQAAAAEAAABWARsABQAAAAEAAABeASgAAwAAAAEAAgAAh2kABAAAAAEAAABmAAAAAAAAAJAAAAABAAAAkAAAAAEAA5KGAAcAAAASAAAAkKACAAQAAAABAAAD7KADAAQAAAABAAAA7gAAAABBU0NJSQAAAFNjcmVlbnNob3RhLjypAAAACXBIWXMAABYlAAAWJQFJUiTwAAADVGlUWHRYTUw6Y29tLmFkb2JlLnhtcAAAAAAAPHg6eG1wbWV0YSB4bWxuczp4PSJhZG9iZTpuczptZXRhLyIgeDp4bXB0az0iWE1QIENvcmUgNi4wLjAiPgogICA8cmRmOlJERiB4bWxuczpyZGY9Imh0dHA6Ly93d3cudzMub3JnLzE5OTkvMDIvMjItcmRmLXN5bnRheC1ucyMiPgogICAgICA8cmRmOkRlc2NyaXB0aW9uIHJkZjphYm91dD0iIgogICAgICAgICAgICB4bWxuczp0aWZmPSJodHRwOi8vbnMuYWRvYmUuY29tL3RpZmYvMS4wLyIKICAgICAgICAgICAgeG1sbnM6ZXhpZj0iaHR0cDovL25zLmFkb2JlLmNvbS9leGlmLzEuMC8iPgogICAgICAgICA8dGlmZjpDb21wcmVzc2lvbj4xPC90aWZmOkNvbXByZXNzaW9uPgogICAgICAgICA8dGlmZjpSZXNvbHV0aW9uVW5pdD4yPC90aWZmOlJlc29sdXRpb25Vbml0PgogICAgICAgICA8dGlmZjpYUmVzb2x1dGlvbj4xNDQ8L3RpZmY6WFJlc29sdXRpb24+CiAgICAgICAgIDx0aWZmOllSZXNvbHV0aW9uPjE0NDwvdGlmZjpZUmVzb2x1dGlvbj4KICAgICAgICAgPHRpZmY6UGhvdG9tZXRyaWNJbnRlcnByZXRhdGlvbj4yPC90aWZmOlBob3RvbWV0cmljSW50ZXJwcmV0YXRpb24+CiAgICAgICAgIDx0aWZmOk9yaWVudGF0aW9uPjE8L3RpZmY6T3JpZW50YXRpb24+CiAgICAgICAgIDxleGlmOlBpeGVsWERpbWVuc2lvbj4xMDA0PC9leGlmOlBpeGVsWERpbWVuc2lvbj4KICAgICAgICAgPGV4aWY6VXNlckNvbW1lbnQ+U2NyZWVuc2hvdDwvZXhpZjpVc2VyQ29tbWVudD4KICAgICAgICAgPGV4aWY6UGl4ZWxZRGltZW5zaW9uPjIzODwvZXhpZjpQaXhlbFlEaW1lbnNpb24+CiAgICAgIDwvcmRmOkRlc2NyaXB0aW9uPgogICA8L3JkZjpSREY+CjwveDp4bXBtZXRhPgp8iURjAABAAElEQVR4AeydBbwdNdqHU9pSpCwUKO5OcSlQ3CnutrhbcXfbBYq7uy6+eFnctYu7uyxQpFihnC9P+N4hM3eO3nvuPefc//v73XtmJjOZ5EkmyZu8SXoUvDiJCIiACIiACIiACIiACIiACIiACIhAQxEYo6FCo8CIgAiIgAiIgAiIgAiIgAiIgAiIgAgEAlLYlRFEQAREQAREQAREQAREQAREQAREoAEJSGFvwERRkERABERABERABERABERABERABERACrvygAiIgAiIgAiIgAiIgAiIgAiIgAg0IIFe7Q3TU8NfaK8Xel4EREAEREAEREAEREAEREAEREAEWp7AwgvMU1UcNcJeFS7dLAIiIAIiIAIiIAIiIAIiIAIiIAKdQ6DdI+wWzHnnGmCH+hUBERABERABERABERABERABERABEfh/As+/9GpNLDTCXhM2PSQCIiACIiACIiACIiACIiACIiAC9SUghb2+fOW7CIiACIiACIiACIiACIiACIiACNREQAp7Tdj0kAiIgAiIgAiIgAiIgAiIgAiIgAjUl4AU9vryle8iIAIiIAIiIAIiIAIiIAIiIAIiUBMBKew1YdNDIiACIiACIiACIiACIiACIiACIlBfAh22SnyxYNa6Gl4x/3RdBERABERABERABERABERABERABBqRQEfvnqYR9kZMZYVJBERABERABERABERABERABESg2xOo+wi7EV54gXnsUL8iIAIiIAIiIAI1Evj+++/d+++/77799lv3zTffuBEjRoTf33//3Y0cOdL99ttv7o8//nBjjDGGG2+88VyvXr1c37593YQTTpj89e/f300zzTThnhqDocdEQAREQAREQAQiAk8NfyE667jDTlPYOy7I8kkEREAEREAEWp/AJ5984l566SX3wgsvuFdeecW988477u2333Zffvllh0S+T58+bvrpp3czzTSTm2WWWdxcc83l5p57bjfHHHM43CQiIAIiIAIiIAJdT0AKe9engUIgAiIgAiLQzQn88ssv7rnnnnOPPvqoe+SRR9xjjz0WRs3rieXXX391r7/+eviL38PI/JxzzumWXHJJt/jii7vFFlvMTTXVVPEtOhYBERABERABEegkAlLYOwm0XiMCIiACIiACMQFGy++88043bNgw99BDD7mffvopdu6yY8zpX3zxxfB35plnhnAwAj948GC30koruWWXXdaNNdZYXRY+vVgEREAEREAEuhMBKezdKbUVVxEQAREQgS4l8Oabb7obb7wx/A0fPrymsPTu3TuMeE822WRhTnq/fv3C79hjj+3GHXdcN+aYYyb+fvfdd2E+O3Pd7e/rr792H330UZj7ntxY5oBw83f66ae7CSaYwK2++upu3XXXdSuuuKLjvRIREAEREAEREIH6EJDCXh+u8lUEREAEREAEAgEWgrv22mvd+eef755++umKqaB8M6ecv3nmmccNGDAgzDmfcsopXc+ePSv2p9iNtnjdW2+9FUbTbb78u+++W+yRcJ3F7q644orw97e//c1tuummbtttt3XzzTdfyefkKAIiIAIiIAIiUD2BHgUv1T/21xO2Gl6x/eZsH3atEv8XMx2JgAiIgAi0PgHmh5988snummuuCau3l4vx5JNP7lZYYQW3yCKLuEGDBoV55Kzw3tnConZPPfWUe/LJJ93DDz8cflmBvpzMP//8bpdddnGbbLKJFq0rB0vuIiACIiACLUegXnqxFPaWyyqKkAiIgAiIQFcRoA/8nnvucaeccoq7++67Xak+cRZ3W3TRRYN5OXPDGUnv0aNHVwW96Hsxq7/vvvvCXPubb77ZffXVV0XvxWHSSSd1O++8s9txxx3dJJNMUvJeOYqACIiACIhAqxCQwt4qKal4iIAIiIAItCQBFo879NBD3bPPPls0fijkSy+9tFtvvfXcWmut5aaYYoqi9zaiw+jRo8MCeTfddJO7/vrrS24xN84447ghQ4a4/fbbz0000USNGB2FSQREQAREQAQ6jEC9FPYxOiyE8kgEREAEREAEuiEBzMbZ/mzllVcuqqxj7n7ggQeGhdvuv//+MALdbMo6ScvceVaJZ/V4Fq677rrrwsrxWAtkhVXvjz/++DDv/rDDDnM//PBD9hadi4AIiIAIiIAIlCHQtoYt84CcRUAEREAEREAEnHv//ffdBhts4JZaaqmwb3oeE9xuvfVW9+GHH7pjjjnGzTTTTHm3NeU1VqNff/31g6k8LA466CDHivVZQVE/+uij3ayzzuouvfTSsGp99h6di4AIiIAIiIAI5BOQwp7PRVdFQAREQAREIJfAzz//7A4++GA3++yzB7Pw7E2MNqPIsnDbgw8+GOaod8Xicdlw1fN86qmndv/85z/dBx98EBbam2aaadq87rPPPnNbbbWVW2ihhcJCdm1u0AUREAEREAEREIE2BKSwt0GiCyIgAiIgAiKQT4C524ySM1r+yy+/pG7CXHz77bd377zzTjAVRzHtbjLeeOO5Pffc07333nuBwYwzztgGAfvPs9je5ptvXnYBuzYP64IIiIAIiIAIdDMCUti7WYIruiIgAiIgAtUTYKX0LbfcMiwW9+mnn7bxYODAgcEs/rzzznPTTTddG/fudsGsDNjbnYX4xh577BQCVs9nL3f2br/jjjtSbjoRAREQAREQARH4i4AU9r9Y6EgEREAEREAE2hC4/fbbw/zryy67rM02bTPMMEOYo/7000+7hRdeuM2z3f0CivpRRx0VrA6wPsAKIZaPP/7YrbbaamEtgBEjRsROOhYBERABERABEfAEpLArG4iACIiACIhADoFRo0aFLcnWXHNN98UXX6TuYE76vvvu61588cUwRz3lqJM2BFglH+sD5vQPGDCgjTtbxA0aNMhhLi8RAREQAREQARH4i4AU9r9Y6EgEREAEREAEAoHPP//cLbfccu6EE05os6r5/PPP7xhRZ8uycccdV8SqIMD2d88991wYdWeV+VjeeOONsD0eK8lLREAEREAEREAE/iQghV05QQREQAREQAQiAk8++aRbcMEF3aOPPhpd9SZpfvX3ffbZxz3++ONh7nXKUScVE0BRZ147+9fPPPPMqedYyI+V5IcMGeJ+++23lJtOREAEREAERKA7EpDC3h1TXXEWAREQARHIJYDZ9pJLLuk++eSTlDvblN13331hxL1Pnz4pN53URoA5/4y2M7c9K2eddVYYbc9ORcjep3MREAEREAERaHUCUthbPYUVPxEQAREQgbIEWLX8oIMOcjvuuGObkd3Bgwe7559/3i299NJl/dEN1RFgSgGdJNddd53r27dv6mGmHTCvHVN5iQiIgAiIgAh0VwJS2LtryiveIiACIiACgQCm1+wJfuyxx6aI9OjRwx144IFh27F+/fql3HTSsQTWX39998QTT4Q97mOf2c+dPdtxk4iACIiACIhAdyQghb07prriLAIiIAIiEAgwZ3rdddd1V155ZYoI25Fde+217phjjglz11OOOqkLgTnnnDMs5rf88sun/P/mm2/cCius4O69997UdZ2IgAiIgAiIQHcgIIW9O6Sy4igCIiACItCGwMiRI92qq67qbrvttpTbZJNNFrYfY9RX0rkEsGS488473bbbbpt68Y8//hj2a7/llltS13UiAiIgAiIgAq1OQAp7q6ew4icCIiACItCGwM8//xz2T7///vtTbrPOOqtjlfiFFloodV0nnUegd+/e7oILLgjWDfFbf/31V7feeus5Ke0xFR2LgAiIgAi0OgEp7K2ewoqfCIiACIhAigBz1jfYYIMwih47zDHHHOHatNNOG1/WcRcRYP2A008/3bGWgMnvv//uNtpoI/fAAw/YJf2KgAiIgAiIQEsTkMLe0smryImACIiACMQE/vjjD7fFFlu422+/Pb7s5plnnqAEYg4vaRwCu+66a1hFfowx/mqusO7Ammuu6Z555pnGCahCIgIiIAIiIAJ1IvBXDVinF8hbERABERABEWgUAmzbds0116SCM3DgQPfQQw+5/v37p67rpDEIbLfddu6SSy5xPXv2TAL0ww8/OLbbe/3115NrOhABERABERCBViQghb0VU1VxEgEREAERaEPgzDPPDHOjYwfmrN96661u/PHHjy/ruMEIsO3e0KFDU6Fi9fi1117b8SsRAREQAREQgVYlIIW9VVNW8RIBERABEUgIYAK/xx57JOccTDPNNGGrMJnBp7A07Mnee+/tDj/88FT4GGFfZ5113KhRo1LXdSICIiACIiACrUJACnurpKTiIQIiIAIikEsApW7TTTd1o0ePTtwZUWc7t6mmmiq5poPGJ4DCzhoEsTCdYc8994wv6VgEREAEREAEWoaAFPaWSUpFRAREQAREIEtgxIgRbo011nDfffdd4jTWWGMFM/i55547uaaD5iDAivEXXXRRSNM4xGeffbbjTyICIiACIiACrUZACnurpajiIwIiIAIikBDYZptt3FtvvZWcc3DiiSe6JZdcMnVNJ81DgMXnLr30UjfTTDOlAo3JvFaOTyHRiQiIgAiIQAsQkMLeAomoKIiACIiACLQlcN5557mbb7455bD11lu7XXbZJXVNJ81HoF+/fu6mm25yffv2TQLPdm+bbbaZ+/HHH5NrOhABERABERCBZicghb3ZU1DhFwEREAERaEOAUfV99tkndZ3t284666zUNZ00L4G55pormMfHMXjjjTfcvvvuG1/SsQiIQIsQKBQKTn9i0Mh5oF6fWq96eSx/RUAEREAERKArCLC4HNuAjRw5Mnk9I7FXXXWVY/66pHUIbLDBBu6ee+5xF154YRKpc88916222mpulVVWSa7pQAREoPkJjDfeeLKgaf5kbOkYPPns83WJn0bY64JVnoqACIiACHQVgdNPP909+eSTqdefdNJJbuaZZ05d00lrEDjllFNS89kZfdlpp53c999/3xoRVCxEQAREQAS6NQEp7N06+RV5ERABEWgtAu+995479NBDU5Fac8013fbbb5+6ppPWIYD1xOWXX+569+6dROrDDz9skw8SRx2IgAiIgAiIQBMRkMLeRImloIqACIiACJQmsPPOO6dMJieeeGJ3/vnnl35Irk1PYNCgQW6//fZLxePMM89sY2mRukEnIiACTU2AbR71JwZdnQc64yPSHPbOoKx3iIAIiIAI1J0AK8IPGzYs9R62cJtkkklS13TSmgQOOeQQd8MNNzgWnkP++OMPN2TIEPf000+7McbQ+ERrprpi1Z0J/PDDD27cccftzggU9y4mwHS77AK39QiSarB6UJWfIiACIiACnUrg119/bVNpLr/88mHxuU4NiF7WZQRYUPCcc85JvX/48OFhz/bURZ2IgAiIgAiIQBMRkMLeRImloIqACIiACOQTYOGxd999N3Hs1auXO/XUU4O5ZHJRBy1PYJlllnEbbrhhKp4HHXSQFqBLEdGJCIiACIhAMxGQwt5MqaWwioAIiIAItCHw3XffuRNOOCF1nbnsc8wxR+qaTroHgaFDh7qxxx47iewXX3zhzjjjjORcByIgAiIgAiLQTASksDdTaimsIiACIiACbQgwh+ybb75Jrk800UTu8MMPT8510L0ITDvttG0WoGMtgxEjRnQvEIqtCIiACIhASxCQwt4SyahIiIAIiED3JPD555+7k08+ORX5/fff30044YSpazrpXgT23XdfN+mkkyaR/vbbb91xxx2XnOtABERABERABJqFgBT2ZkkphVMEREAERKANgbPOOiu1jRsrwu+0005t7tOF7kWAlaN32223VKTPPvtsjbKniOhEBERABESgGQhIYW+GVFIYRUAEREAE2hD46aef3Lnnnpu6zvYqffv2TV3TSfckgMLev3//JPIjR450559/fnKuAxEQAREQARFoBgJdsg/7zz//7E477bRm4KMwdhMCPXr0cJtttpmbYoopukmMFU0RaH4CF198sfvqq6+SiEw22WRtRlUTRx10OwJ03DA9It4jl7bHnnvu6cYcc8xux0MRFgEREAERaE4CXaKwMypy4IEHNicxhbolCaCwL7XUUlLYWzJ1FalWJPDHH3+0Wfl7++23d3369GnF6CpONRLYZptt3JFHHul++OGH4MNnn33mrrvuOrfpppvW6KMeEwEREAEREIHOJSCT+M7lrbeJgAiIgAh0AIF7773Xvfnmm4lPY401lmMrN4kIxAQmmGACt+2228aX3DnnnJM614kIiIAIiIAINDIBKeyNnDoKmwiIgAiIQC6BCy64IHV9ww03TK0KnnLUSbcmQEcOVlQmjz/+uHvllVfsVL8iIAIiIAIi0NAEusQkfuyxx3YHHHBAQ4NR4LofAc1f735prhg3J4FPP/3U/fvf/04Ffscdd0yd60QEjMBMM83kll9+eXfPPffYpbBY4RlnnJGc60AEREAEREAEGpVAlyjs44wzjjv22GMblYnCJQIiIAIi0MAErr/+evf7778nIRwwYIBbZJFFknMdiECWwFZbbZVS2MlDp556quvZs2f2Vp2LgAiIgAiIQEMRkEl8QyWHAiMCIiACIlCOAIuGxbL11lvHpzoWgTYE1llnHdevX7/k+hdffOEefPDB5FwHIiACIiACItCoBKSwN2rKKFwiIAIiIAJtCLzzzjuOOcgmjJD+/e9/t1P9ikAuAXYPWG+99VJuV199depcJyIgAiIgAiLQiASksDdiqihMIiACIiACuQRuvvnm1PVBgwa5ySefPHVNJyKQRyCrsN9yyy3ut99+y7tV10RABERABESgYQhIYW+YpFBAREAEREAEyhG49dZbU7ewOrxEBCohsOyyy7qJJ544ufXrr792jz32WHKuAxEQAREQARFoRAJS2BsxVRQmERABERCBNgS++eablDk8W3WttdZabe7TBRHII9CrVy+32mqrpZzuvPPO1LlOREAEREAERKDRCEhhb7QUUXhEQAREQARyCdx3331u9OjRiducc87ppppqquRcByJQjsDKK6+cumXYsGGpc52IgAiIgAiIQKMRkMLeaCmi8IiACIiACOQSuP/++1PXV1pppdS5TkSgHIHlllsutZXbyy+/7D7//PNyj8ldBERABERABLqMgBT2LkOvF4uACIiACFRD4NFHH03dvsIKK6TOdSIC5QhMNNFEboEFFkhuKxQKmsee0NCBCIiACIhAIxKQwt6IqaIwiYAIiIAIpAiwQNgrr7ySXGM+8qKLLpqc60AEKiWwxBJLpG595JFHUuc6EQEREAEREIFGIiCFvZFSQ2ERAREQARHIJcDe64yGmsw111yub9++dqpfEaiYwGKLLZa6VyvFp3DoRAREQAREoMEISGFvsARRcERABERABNoS+O9//5u6uMgii6TOdSIClRIYNGhQ6tYXX3xR+7GniOhEBERABESgkQhIYW+k1FBYREAEREAEcgk8//zzqesLL7xw6lwnIlApgckmm8xNO+20ye2jRo1yr732WnKuAxEQAREQARFoJAJS2BspNRQWERABERCBXAKMgsaCSbxEBGolkM0/2fxVq796TgREQAREQAQ6moAU9o4mKv9EQAREQAQ6lMDIkSPd+++/n/jZs2dPN/vssyfnOhCBagnMOeecqUdeeuml1LlOREAEREAERKBRCEhhb5SUUDhEQAREQARyCbz11lvujz/+SNxmnHFGN/bYYyfnOhCBaglkFXbymEQEREAEREAEGpGAFPZGTBWFSQRahACrerM42BhjjOFOPPHEFomVotHZBN57773UK2eeeebUeVef/Pbbb+6yyy5za6yxRpgbTWdC7969HXt+k/8PPvhg98knn3R1MPX+iMBMM80UnTn37rvvps51UjmBRx991O28886OTpAJJ5zQjTnmmG7yySd3Sy65pPvnP//pvvjii8o9050iIAIiIAJtCEhhb4NEF0RABETAuV133dX169dPKDqQQDxKXo23WYV9uummq+bxut775ZdfBqV8yy23dLfddpvr06ePW3zxxd2yyy4blJannnrKHXPMMW7AgAHugQceqGtY8jwnH08wwQR5Tt362vTTT5+KfzaPpRx1kkvgm2++cauvvrpjX/tzzjnHvfrqq65Xr15uqqmmckxjYX/7Qw45xM0wwwzulFNOyfWj1ouNkK8bIQy18muE52qtDxoh7AqDCHQ2gW6rsP/yyy+uR48ebf6YG8moyNxzz+223XZbd+edd6ZMMTs7gSp936WXXhrisvzyy1f6iO4TAREoQgDLgGeeeaaIqy7XSuC5555zK6ywgnvllVeq8uKDDz5I3T/NNNOkzrvyZKeddnJsOTfvvPO6l19+2b355pvunnvucXfffXc4f/311x37fn///ffu73//u/v11187NbjKx/m4+/fvn5pWQfqMGDEi/2ZdbUMAXuTr22+/3Y0//vhu6NChwYqEDiysFXAn762//vrup59+cnvttZc76KCD2vhT64VGyNeNEIZa+TXCc1gf3XrrrY0QlHaF4ccff3RnnnmmW3XVVR11ExZWffv2dViCbbbZZu6OO+5oCD3i4osvdkcccUSor9oVYT3cJQS6rcIe02bxogUWWCD8oaiPN954oaF10UUXhQ9wnnnmcdktheLnaz1W72yt5PScCNSXACbO9fjm6xvq5vD9oYcecgMHDnTbbbedY4SuEsma1E499dSVPFb3e1BEbrnllvAeRhjnmGOONu+cddZZQ4Ptb3/7W4gvynxnifJxcdJ02DMSHMvnn38en+q4BAHaL3RG0fHx2GOPuf322y9YlNgj8F1wwQXddddd54499thw+bjjjnP33Xef3VLzbyPk60YIQ80AG+RBOm432mgjt+iii1bdidsgUXA33XRTsCDhe2CA76OPPnIMCKLEv/322+7KK690q622mptvvvlcV+9EgcJ+5JFHSmFvlMxTZTiksHtgl19+uXv22WfDHyNArEZMTztzEukhY9SEnuQnn3yySrylb1fvbGk+cm1tAnSI0ajbZpttQgWH6eRss83mxhlnnDBis+KKK7rHH388BeG0004Lz2B+zDc6ZMiQ0KONGfIkk0wSKn8qyVgwxeQ9a6+9dnw5OT7jjDNS7ptuumkwa2Yk9Ntvvw1uzMEfNmxY8owOaidA+v7888+hIcNoxGGHHVZ21Pl///tf6oUTTzxx6ryrTsgfo0ePDq/H7LeYMAKJuTCNOBpvCCbz5EsaUMXE8jsmxybsF07+x6R7rLHGCh3Ms8wyi9tll13C6L7dRz5mLjH5+Lvvvgvv4n3ZfPzCCy+4zTffPPmOsDBbaqmlQv2HpUksNPjwY+uttw5+Mm+ZzhPCMZ2fpnDggQe633//PYwmnXTSSWFOM+nNvGYa5p999lnsXZcfZ/PRV1991eVhaoYAvPPOO+H7JayMLOZ1VMXxOOCAA9xKK63kyE9HHXVU7OROPfXUkKfWWmut1HU7wX/ynLmXy9enn356uH+LLbYI5Xe2jthwww2DImX+89vRYYj91nFpAtQFTz/9tFtooYXcBhts0FTrHZx33nluvfXWc1iVTDbZZI4OKXQIyhH+OD7++OODQo+y/p///Kc0DLmKQAkCvUq4dWsnGlg0YtZZZx235ppruvvvvz8cs5LsuOOO22421jtLQ0ciAt2RgOV9lJ7BgwcHZQblncYZcx8xlWMxIyo9RikRWxmcEddlllkmKPdbbbVVUPAxO7v22muDOTKda7UuTMacTMJGhwIdAXvssUd4dymFLNygf1URYBQCobEMa34xn82Tr7/+OnUZpbIRhIW1qA9QxBlJwey3mEw55ZQpJ/I6c9rpMKbTgnyfFUYnEfI4QscyyjQj+5jg05HMc8OHD3dnn322u+aaa4KfWIVVko/xH5PNUaNGuYUXXjgoVSjVhOvhhx8Oyv1VV10VFo3k/fE3iwI26aSTuv333999/PHH7vzzzw8NVpQyOtPwAysKOjSuv/768G1iKk3jvFEkm4+ksFeWMjfccEPolJl22mmDwlLJU/vuu2+YJkK+Io/x7dQi5fK11REoUUsvvXSbOoI8j5ULa0uojqglBTr+GcoIyjTWAGGUmnKUhTqpfxtVKIsZVae8o0zG0gq9IRbKF8rpPffc051wwglhfYfYXcciUBUBn9naJU8++3yBv19+HZX7Z+7tekkdHva9egwdhD8/0l3yDd5ss+AXnwr3+h60Nvf6wqZw4YUXFvxHW/AjCQW/6ErBmz8W/PycwrnnnlvAPZZNNtkkebeFgd+77ror3Fatfzx0ySWXBD/9HPaCL/gKvhFV8FsfFXyBV/CjCAXfEC5487U4GMlxLe/jYT9iVPC92IXpppsuvMfP2Sn4CrDgR10Kb7zxRuJ/fODNjAu+gVjwozIFP/oTePmVZAt+Dn7BL0AS36rjFiBAmnpFoOCVioKvsFIx8sp1yLN8L+TP7Hfilfjgvs8++yTP+RG+5NvhmWye8T30wd13tCXPnHzyyeGaH6FJrsUHfkSmjbvvDQ/X/GJd8a06bicB38gp+EZNYBuXfRz7qUgFbxpZ8Ptht3mLN11OPeMXCGtzT1dd8KbASdjWXXfdgu84KlC/lBPusXrFTxNoc7s3rQzfjR+hLvj5wMGdfA0r35htc/8//vGP4OZHfBI3WHI/zLPi1wUoeOUmvMN3GqScvZVKqD941iviiZtXdoJ/fLO+EZpc58B3FgQ36py55pqr4DviEnevwBd8x0Zw59tqFKH+Io72Rz0uKU/AD2IEZt7SovzN/3+H7xQK+Q3W5CMTbwEV/MLPPPEWUG3cS+VrawvxHr6FYnWEt7hKXtfRYUg81kFJApRt9u3Fv9QFU0wxRSqfmEdWjtj9fnFDc+rUX9rahMF3PBV8h3JF7/bWTqn7LC7FdBDqOYtntk7he/IWWIVBgwaF8t3vSlLwHagF31lb8NZWhSeeeCJ51xVXXJH4Y/7Fv35AJLnXDv71r38ViKPvdAhtddrstN1Lld+8G3+pCyj/995774K3BCv4jt5Qn3hrskLMAJ1nueWWC3oALHwHW8FbVVoQcn/9ejEFym3fWRj0Duo233Fd8NYOBT8QmvtMNlzU2egqFq7ch6q46HdASvE1vbej9WJ6h9ol9QpYuwJVwcPVKOx45039QoL4OVltfPfmicENBdSb8YZM7UcfCnxAZF4/kpJ6hg+Ba7jRuEG55s+U3Gr9w3OrpFByyPRkYr/FUAEFhgKFd9E49BYCqbBwUsv7KGCssPU9iAU6IbypWsGvB5C8C+U8FhQ0GBEWlDi/qF/BL9KR+ONNJtsobfHzOm4+AqUUdmv8o8x/+OGHbSJnDTW/SFniZgo7z+R1QPnRu+S7sopcCnuCr8sPSinslAt+0c+g2FEmeTP4JLx0hOJuf34kNHHr6gMaTn7huaD4Wvgo5+h88KbABT+aV+CePPHmuiFOfgS9jbPlW2/plbjNP//84X78zAqNFW8JVvCj2IlTKcXGj3gGv+hkyBM/ihrcaeyY+JHycI10oiM7Fj+iGdxg4KeTxU7hmI5Z3GjMNYoYf0s3Ou8k5QnQDoJZ3gBGqae96Xx4jrxt0tHKsrWFCF9eHUHbBTe+UasjOjoMFjf9liZgbUj7/rK/1okbK4mm5Nq9loal39Sxrn5KSMhDhMGbvNfsucWlWoXdTzsq+ClVSRjQNbxJflBAjQtKrYk3xQ8Digwk4u6nUIVzBhn5QxE3oa6ygQ/upaxn4ML85dxbxNntqV9TjL21V4FOAHvenuXXOpQpA2jHcY0OYLsHJZp2XJ74hS2TZ7ifQUI/XTF5FuWfAcusWLj89JqgqNu7+KVDob3SWQq7TOJ9ilUizKdl4RRMD72yn5jmMp+QFdqZ4+p7tJxvUCXeYcqLmSHmnpjVskcpwhwq5nxxHRND5r2Y1OKfPcvvgw8+GN6D6SHzBhHMNVmZmfCxSismYSa1vg8WmDBhtuRHdsy78Mu+q8xH5jqmkIhXyJxvhDumAmACihmmCfPhMK/0HRlhXidmlF0tLIbSaPMt682E/Mk8rM4WzGrzFhFjMSOE+bdZwZzSzORjNxZ28YV/MPElb7PoUaMK3wQrincn+eGHH0pG11tZhPKKcuPGG28M87sxO/SNiNRzvrGdOu/KE/Zbxxyd+dwXXHBBMOv0IyNh/QXWYKB8Z1u17bff3h166KFh9WALLzuRMEcXE2N+fQPWnJJymnLThAVSWZGecpxvIJ47TL5nmkilwjQvBBPjPGGaCvUac9wxcY+3OGSxtvic52PzchYVzIq5s3p4o0jW5Jb1au69995GCV5dw8HiurRPahGvJIXHvMJR1eOsnI2UKweq8rTIzc1UR8Czo9dIKoKlYS6T/8oJ+YSpC34UOUyXwqy8EYTpPiZMm+1sYeof5TcM0T/84Fxibs90QaYT0j43of3PH9uNskAk01Ooe/KENVXQEbxiHubf77DDDmHaF+2V3XbbLZj+U5dR9xQrP6jn0D+YekKdRDqyVhBTv6jr0BEOP/zwEA6mP9DWY5FfdlHxA5fOj8yHKVlx+JiaxfQryhz0C6aU8RxT61iXhXYCC1p6i0x31llnxY8mx7yfetJbHIQFxWlH+E7txL3RD6SwV5hC3uw73Ol7YhwLINm2Qn4kO2RAGpqxss7NKA9sW8F8XD4SU9iDR0X+tdc/Mi8fhinrvIYMzkIvfLDMEeJDtoZhre9jYT7Ej+aH3/gfHxWrfhoz3GiM0tHhR3NSyjpu3nQ/bAnD4h18aI2gsLNFDR91dxHf0xnm4FJgdrbkKeuEAWUB8aP04Tf+Z99ffI1jKhkWkqLSavQOFyouKqbuJKwLUonQyYgcccQRjoXXbL67PdtICruFifKdsPL3ySefhHKfsp/GBB2oLD7EOgso8awYj/ie/9CpxHxIOiisI5PGEQ1VytC4jKXBynU/IhPqExpNflQhlO1s6UkHcKViZThz7+MGaPw8nREsWsfaLSwKZeLNVe0w+bXvlQt5+76be973nHjSyQdZhZ15+Px1B2FuLYMKtQjtBqTazhdT1PPyRy3hKPVMuTqCHQEapY6gg4/2WXcS8l8lku3EZdCnq4XBAASFmfZrZwt1AMLaJtkOAwZAam1Ds2uLH/kOfqNUx2uy8D3RZmHdFNYhQSkvtoge5QJhNDZ879zPoKE3gw8KNx0GtLNN0J/8FOKg4FNv0oYjLgh1kLWVqK9sAUrcqPM4px1JBwKd5nQGsAhxVixcsa6GjtYsIoW9wpSKe5Ktd5lHabighJrghkJPIYNYLyILa1Ui7fWPUYy8DEjPGkoZDV+2YrEMW+v7qh3pac9oTiXcdE/zEkDJrlaswynvOZQMJDsqm3evrjU2ASpYGvl0lMbSiAp7HD4WmGNVdP4I+8033+y8iWLYuojOU29Cl9xOwwWFnZESU9ixMOC5Lf3oOuW2CaOGKFlsIYelEiPCWAOxMjZKFA0sRh9MObbn8n6tHqtkRDmrmJXzPw5z3rsb5Vqj56NG4ZQNBx1JNMhNccm6552zewAdVwiL1dVbVEfUm3Dn+m+duJ371vy32SKoZjWUf1f9rppewWKfHSl0KDOwhv+MpmeF0WmsalmIm3oja3ll92+88caJsm7X+MWSFoUdwZ+s0DnNd8ugIvWaKex0eqPAs0hkrKzHz7M1N53mWISxdWzeArZ+Cm6i+8TPNsuxFPYKU4qMaRKPXnONSgszkrvvvjtsI2L3xb/ZBmfslj1uj3/FVrKmF4qRRzoTsr3Ktbyv2pGe9ozmZPnoXASoVIqJuWW3bCp2v3WuFXPX9a4lgBktymVchpJmNB6aQVBeGQWho5RGCo2iWGGnccPoAaPcjMyj7GOSyHMo+VmBByaN/HE/ZoCMzuMvIwuMkrDifjnBH0YueG6VVVYpd3tLuuvbry1ZGWXDLJdGOyOe1klayjesDBkwIF/H2xSWega3WtPI6oE8/81NdUQenca9RpmF4h7XBY0b2vqFDMWXEXD2gGebULY6RNlt75RGplshDPrZbgvZWGDizjdMGtB5zPakWcFyLE9MAcfCbLr/t1rO3kenNNNkY53LtvflGvEsJtaB4Rdszb3Fr6OSe71ZLjZHi6cBaPpFL0IoGGm3ubVcoDeH0WsalHPPPXdoeGE6Yr27NJyoqCqV9vpHgVZMzFzSKivuq/V91Y70tGc0p1h86nkdU1NMTLuTtLew70xW1gGUfSd523q/rXKw0cBiprjFCves3x19zihTd8tjzH2uVChDqdT9IlLBTC6ek4f1RCMo7CjZzD2lDiinhFhnata8n8YLowGMsGNySAMMk0MaRsS/lKDcM82AP0YuULwZfadDtZwSNdNMM4VvBfP77ip0WMTCCE5njP7G7+yqYzNXreX97JfNXFHMysm3lZjgmqkto1zxoEe58rnW/NmRdUStYaiULe227lYXkP8qXcOFtit/tKf9CuhBaa+UbT3us5F1a2vU4x2l/KSuOfroo8NAIR2u/CF+MbkwN5v1VCjfqxUG9JDsFqSxP4y+U2extpDdH7tzjH6QJ1Znl2prmp4ST32wQUa23WT0vJzEbYX43jwz+di90Y+lsFeYQsz9RuihiU14WfwHZZQRFMwYrfIxb1lIrRppr3/ZBkj8bmsoWmcCbu15H5VMpSM93NtMoznMw+dP0pgEaCiyWIjfPioVQDrH6PmlY82v/hnczHyMkcescC97vReTevbkM5Umnk5TLAytdJ1FO4stCGPxjBtnKKL05mO6HFfCKOxxOWbPdvYvcWF0mxEJGhKlTKxtWlC8UJyFF7N4FB9G1m2RRczhYyH/skcxjR5M7bPCqAvsKOdpSMXzzPPyMSMjmDVTR+24445Z70J5TZ2GIlGqgdXmwSa6kK0vaeiyQKykNAE6Q8kzTMVAcWc+ct5Cg+YL6+qwEBZ5FyuQWEqVz9xXa/lcro6g/KikjmhPGOJ4ljomHCzQ1d2k3DpBtLUpUzHPZg409ToKe1cLU0IRpmsxGtyezq9a48LUJ6ZQYenyoF9smlFoOkD4Y80opkzl1ROVvM90hUruzbuHOruUlHPPPmuDLcSXeNUq1mFQ6/Nd/dwYXR2AZni/35M2NGoIa3bRJFvZ02/r00ZZ536/Vzk/FUt7/fN76+a+iw+Q3ikkHuVq7/vsZTbSc8stt4SF7bjOSI/1kllvX717qi08+m1tAowe+n2gw3wriykK3RFHHBFO/R67zhaUMqWeUUtMiGPx28TlLrxkjUgq5K7qRY/D2R2OaZxhhrf77rs7TNswB7eKPasIt7dB0VE8aUQSNspRRsbzynvi4rcFdX6P7/Ba4pcVTIxpBLIoD4vmkP9YhDMW4uz3vQ6r++YpMYzOcw/KtSnYpfIxq/+itNDRwDtjodymYUwDKU+Zj+9t5uNsPrIyo5nj1FlhZ/cDduFgfQPMVBnx+/TTT1OvxzKRNpPNh2UqSHbnjnqVz3yXdL7EFoUcW4eB6ohUUjXcCWUTC/GRh8hr8TpSXR3Y2Cwbs/RaxRTIOI/GfpVb+wprIL+neOjIpUOXspywUX5Tvlvnb+xnqWOzHi7VTqdNZGua2P2l/OwIN7OWZF57dxYp7GVSHyWXhhMjOvQiYwqWJ2bGEbvRY2qLsuSNcHBvseu1+odCYu+Mw2Ijj4x0zzbbbLFTOK7mfRQMrNRYzHrARnpgZiYzNs+l2DOMdOAnveISEShHgJWxqeQwAWOlVEwyGbmklxmzp3irQRqIjICSH9m9gAYbI0P0PjM6hNKFxN8inVooPfTs8vzKK6/szjvvvHLBknuNBMo1zrKrSudZS9T46nY9xlw9FGVMBCnvyYPkHbYhIs8xckajigYnyiCdmMVWg2abGvIgCj4m8jCJhRFzTN3pmMIkkhFNdnXYZJNNwjH5mU4PVqk3Sy/Lx/ibzceEi+kGdH6xTQ8LkfIt8W5W3GXbUX7xr1Ul2xmX3aquVePdEfGicw2rEfILeZItk8hv5FPKZVjyfTCKyoKIWJDkdVZZ+YySkS2fWUQRf5G88jkvX1vcqCPokInriAEDBoQ6AkWDOcAm9QqD+a/fygmYdRxWrUzzscGeyn2o/52MqJO/EMz0K62PaIPEYvVadiDB7mGQoVKhzMcCGG7UNSjVTHmNxayD428pdrfFqHkunkMe38M0MJ6nM52dsDpDqE8Rtn6zhSs7472N9g4p7EVShAro6quvDo0cMi9zrvJM3qkAEMy9YsH0k8YPcxsRWwzB7ik28lGrf+YvjS96leORA5RhFsVDMMGNR6tqeR9+VzvSo9EcSyH9dgQBFGm2FGHBLrYAoVHIYjQoMFRy8TxUKhYqMfIsFeYxxxzjjj322KDUMDJqe4nGvdz0fGN6xV7vjBpRUZSbE9wR8epuflTaOMsuDpVVtLqSG/uYYxZJnmJ0g9WwWbyHP6ZLoYSgdLC/bKnRakYibcSFuiNPUHjoGNhwww2DxRQWTXQYfPnll6EDihH6uFOZBhrfhuVjFgmK8zH3Ek7eDVPqPMzu6fRiuhT5Pv6W8sLUzNey+cjmpjZznDoz7LRjmMZBRynTCbASoRxl/jiDAHwPbGfItmV5CyhaWG+//fY25TPlNlM28srncvkaf1msLq+OoM5gW8Rsvq5HGCx++i1PgHYpHZ90SmLWbYM85Z/smjtoR1Be0z5gSmyp0WzqBO4/++yzU4E165K8UXq+I1v3IfWQPzHL1ex1zvnurB7JTvmBL1Js5J71JeiIoy2V11FLPKyji6lSndXBydosdLLR7qMONBP5EJnMv2IdDZnbmvPU95S0S5589vkCf7/8Oir3z9zb9ZI6POw/BvYJCn++kin4LQGSP98jW/A9VIm7H1kv+H1oc0PhFfXkPj+yXBgyZEhhxRVXLPgPpuALnoJvLAV3/xEVvNJa8BVF8Mdn/IIfwQtu0003XWHw4MEFvwdhoVb//N6xwS/feCz4ToKC7+kubLnllgU/8ljwix0FN29WUvCmLql41Po+36tY8BVq8Nf3Thd8JVjwylKBY677CrXg59ak3sW5byyGZ3zPXAift14oEC7Swo/mFHxFn3pGJyIQE/Am7CGv+MoivqzjJiHgty8reCufUL56Zb3gGzEF3wFYNvSUa1Ze8+u3SSv7TLPd4M39Qhz91jTNFvSmDa9fKDaVr3znRdPGRQH/k4C3Gglp6kdAhaTBCXgrooIfGS5QF9B+9IuLlQ0x98Z1ge8ULftMvW7wa5gk7WDa896SquA7OQu+IzD8+Q7Sgu+wStrg6ASx+EGBEBcY+A7fgh+pL3hltOAHHQp+mlTBd1QncUVnMfFWLaFt73dpKMTx9wODBT+NKTzjlfOCH2W3R8KvN58Pbn7EuuAV25Sbnfi58eEe2vAnnXRSwSvvwclPty347dwSNz/YYY8kv96iJrhfc801ybX4wA96BnffgRxfTh17K7VcP6666qpwnbRH10KXghXiOyYKvrO64C1yCn5wNeUfJ+XC1eaBKi/4qT5J2Aif6b0drRdj2tAuqVfA2hWoCh6OFfb44+cYZd2v9F7go/C9x0mmKOatN/UqUPH7HsKC76Ev+F7loHhzPxkJfyhk+Pi8CVnijR8pKZBxeQ6l1ZsgBrda/PMmviHD+JGS8IH5bYIK3hwz+M17KQx9L3fy7viglvfxPIWFH+kp0OFAwUs84IbyToGTJ36hsAJh5D7u5znfy1jwozmhgMt7RtdEwAhIYTcSzfmLwk6HHuVGJY0zi6UfcU5ViHRutppQblL/+KkXrRa1ho2PdRZbG4BGqaS5CUhhb5708xYaof1nA1mVhLyRFHbCi44QK9ZWlmR/GRR8+eWXU1H0ViBBX4jvZbCPc/z0Vh9JvRcr7H4kPLmOss+9KOjmDwNj3vIq9S5OaH+b/yjkfvpKwVuaFLw1Q3Kvt0IMOov5xf1+JD3xm+dMV0ke+v+DcopxexR2XuEX00vCT/gYCEVBJ0xxeKsNV/b+as+lsFdLTPeLgAi0PAEp7M2dxFj4FOvMKxUzv+5AUiFTMR9wwAGlbm86N0ZqiBedrHHDrOki0kQBZmTKGnn80sj1pqZNFAMFNY+AFPY8Ko15zZuClx0Qy4a80RR2wucXYiswaIalrF+AOQz6MRjl59+HEW8/zahoPCmH/KKkoeynDPJbohX89L1gDcsgm5VRcb2ANdbQoUPDSLOfTx8Gvhho5H1+x5EC7sWEgTa/jkpQdFH28T874s3INaPkWKmgEBMu4uX3ew8WBMX8rrfCznuxdvaLWBb8dN4wEEqHAh2vfhvUwlFHHZVrDV0uXMXiU+n1zlLYta2bz60SERABERCB+hNgETP+qhUWb4vFN2Ti06Y8Zp4muxq8/vrrYacC5h4y35xfSf0JZHdUYcE03/ir/4v1BhEQgUCAlfpbQVjMeddddw1/1cbHd0CE+e3Mcc8TrzS2uczaU/yxQny1wmJ5tmBesWdZP4JFTKvdFo41T0oJC3jnxSd+xlshxKdtjlmEMG9+fZsbowvlwhXd2tCHWnSuoZNHgRMBERABEcguEJVVtpqRkB9ZCQuZshUci5Oy+i7bu0k6h0A2D2U7hTonFHqLCIiACIiACJQnoO7k8ox0hwiIQIMQYPXsYitoN0gQFYw6EPALZ6Z8ZVSannpGAppV2EKn1Gq/zRqvZgk3HSWxSGGPaTTvsV9s1/EnEQEREIFWIqAR9lZKTcVFBERABFqQAGb08RYybEuTHSFtwWgrSnUk8OKLL6Z8ty2WUhd1IgIiIAIiIAINQEAKewMkgoIgAiIgAiJQnAAj6VmFyq94W/wBuYhAGQLZ/ON3einzhJxFQAREQAREoGsISGHvGu56qwiIgAiIQBUE/P7kqbuzI6QpR52IQAkCfuuisNhffEu2Qyh207EIiIAIiIAIdCUBKexdSV/vFgEREAERqIjAvPPOm7rv8ccfT53rRAQqJfDcc885v01ScjsrxPu9jJNzHYiACIiACIhAIxGQwt5IqaGwiIAIiIAI5BJgJfVYUNj9frHxJR2LQEUEHnnkkdR9SyyxROpcJyIgAiIgAiLQSASksDdSaigsIiACIiACuQRmm202N+GEEyZuLDzHavESEaiWwBNPPJF6ZNCgQalznYiACIiACIhAIxGQwt5IqaGwiIAIiIAI5BJg4blFF1005XbvvfemznUiAuUIjB49Oux5H9+Xtd6I3XQsAiIgAiIgAl1NQAp7V6eA3i8CIiACIlARgaWWWip137Bhw1LnOhGBcgSeeuopN2LEiOQ2rDa0QnyCQwciIAIiIAINSEAKewMmioIkAiIgAiLQlsCqq66auvjAAw+4n376KXVNJyJQisBdd92Vch48eLDr2bNn6ppOREAEREAERKCRCEhhb6TUUFhEQAREQASKEph99tndNNNMk7j/8ssvLruAWOKoAxHIIfCf//wndXWllVZKnetEBERABERABBqNgBT2RksRhUcEREAERKAogZVXXjnlduONN6bOdSICxQh88MEH7plnnkmcxxhjDCeFPcGhAxEQAREQgQYlIIW9QRNGwRIBERABEWhLYP31109dvP76692vv/6auqYTEcgjcM0117hCoZA4sZ3bpJNOmpzrQAREQAREQAQakYAU9kZMFYVJBERABEQglwALz/Xv3z9xY3u3++67LznXgQgUI3DDDTeknNZbb73UuU5EQAREQAREoBEJSGFvxFRRmERABERABHIJ9OrVy6277roptyuvvDJ1rhMRyBJ49dVX3fDhw5PLLDQnhT3BoQMREAEREIEGJiCFvYETR0ETAREQARFoS2CjjTZKXbzpppvcV199lbqmExGICVx44YXxqVt++eXdZJNNlrqmExEQAREQARFoRAJS2BsxVRQmERABERCBogQwix8wYEDizhz2Sy65JDnXgQjEBNj6L5s/tt9++/gWHYuACIiACIhAwxKQwt6wSaOAiYAIiIAIFCOw5ZZbppwuuuii1IJiKUeddGsCLEzIWgcmE088sVt11VXtVL8iIAIiIAIi0NAEpLA3dPIocCIgAiIgAnkEtthiC9enT5/E6Y033nB33HFHcq4DEYAAq8KfeOKJKRibbbZZKu+kHHUiAiIgAiIgAg1GoFdXhGf06NGO/VAlItBIBKaccko14hopQRQWEShBYJJJJnGbb765u+CCC5K7hg4d6lZbbbXkXAciQCfOyy+/nIDo3bu322uvvZJzHYiACIiACIhAoxPoEoUd07QZZ5yx0dkofN2IQI8ePdzjjz/uFllkkW4Ua0VVBJqbwG677eZYTMz21n700Ufdk08+qe+4uZO1Q0N/yimnpPxbZ5113FRTTZW6phMREAEREAERaGQCMolv5NRR2ERABERABIoSmHPOOd2KK66Ycj/ssMNS5zrpvgQeeeQRd//996cA7L333qlznYiACIiACIhAoxOQwt7oKaTwiYAIiIAIFCWwzz77pNzuueceh6ImEYFs5w27CwwcOFBgREAEREAERKCpCHSJSXyvXr3cAgss0FSgFNjWJoBJ/LjjjtvakVTsRKAFCbCfNorYQw89lMQORe2BBx5IznXQ/QiQ/g8++GAq4kcddVTqXCciIAIiIAIi0AwEukRhH3/88d2zzz7bDHwURhEQAREQgQYn8I9//MMtscQSSShR1G677Ta3+uqrJ9d00H0I/PHHH27fffdNRZipE0suuWTqmk5EQAREQAREoBkIyCS+GVJJYRQBERABEShKYPHFF3eDBw9OubMS+KhRo1LXdNI9CFxyySVu+PDhSWSxoDr66KOTcx2IgAiIgAiIQDMRkMLeTKmlsIqACIiACOQSOP74413Pnj0Tt7ffftudeuqpybkOugeB7777zh188MGpyG600UZuoYUWSl3TiQiIgAiIgAg0C4EuMYlvFjgKpwiIgAiIQHMQmGuuudwOO+zgzj777CTAjKpuuOGGbtppp02u6aC1CRx44IHuiy++SCI5zjjjuKFDhybnOhABEWgdAn379m2dyCgmIlCCgEbYS8CRkwiIgAiIQPMQYFGxCSecMAnwyJEj3U477ZSc66C1CTz22GPuvPPOS0XygAMOcFNPPXXqmk5EQAREQAREoJkISGFvptRSWEVABERABIoSmGiiidxJJ52Ucr/rrrvcFVdckbqmk9Yj8NNPP7ntttvOseCcyWyzzeb2228/O9WvCIiACIiACDQlASnsTZlsCrQIiIAIiEAegS222MItt9xyKachQ4a4999/P3VNJ61FAMX8tddeSyLFQnPnn3++69OnT3JNByIgAiIgAiLQjAQ0h70ZU01hFgEREAERyCWAooZZ9Nxzz+0YdUW+//57t/nmm4d9uccYQ/3UueCa+OKwYcNSaxcQle233z611V8TR09BFwER+H8CTHOSiEAjE3hq+At1CZ5aLnXBKk9FQAREQAS6isCMM87oTjzxxNTrH3nkEcd+7ZLWIvDJJ5+4rbfe2hUKhSRiM888c5v0Txx1IAIiIAIiIAJNRkAKe5MlmIIrAiIgAiJQnsCOO+7o1lhjjdSNRx55pLvjjjtS13TSvARGjRrl1l9/fffZZ58lkejdu7e76qqrnFaPTpDoQAREQAREoMkJSGFv8gRU8EVABERABNoSwDT+wgsvdJNPPnniyIJkm222mXv33XeTazpoXgJ77723e+KJJ1IRYKeAgQMHpq7pRAREQAREQASamYAU9mZOPYVdBERABESgKIH+/fu7f/3rX65Xr7+WaxkxYoRbZ511nOZCFsXWFA6XXXaZO/PMM1NhXWWVVbQqfIqITkRABERABFqBgBT2VkhFxUEEREAERCCXwJJLLumGDh2acnvhhRfcRhtt5EaPHp26rpPmIPDggw+GReXi0M4wwwzuyiuvdFpUMKaiYxEQAREQgVYgIIW9FVJRcRABERABEShKYK+99nIbbrhheFzsJQAANipJREFUyp257Lvuumvqmk4anwBbt2Ehwfx1k7HHHtvdcMMNrl+/fnZJvyIgAiIgAiLQMgSksLdMUioiIiACIiACxQhccsklbuGFF045n3POOY6F6CTNQeCDDz5wgwcPdkxrMGFEnZH1+eabzy7pVwREQAREQARaioAU9pZKTkVGBERABEQgjwCjsLfeequbfvrpU85HHHGEO+GEE1LXdNJ4BFgJfvnll3cffvhhKnCkHSPuEhEQAREQARFoVQJS2Fs1ZRUvERABERCBFIFJJpnE3XnnnW7CCSdMXd9///3d6aefnrqmk8Yh8MUXXwRl/e23304FasiQIY7pDhIREAEREAERaGUCUthbOXUVNxEQAREQgRSB2Wabzd11111uvPHGS64XCgW3++67u+OOOy65poPGIMCIOgsHvvrqq6kAbb755u60005LXdOJCIiACIiACLQiASnsrZiqipMIiIAIiEBRAgsttJD797//7cYaa6zUPQceeKA76KCDUtd00nUE3nzzTbfEEks4fmNZb7313MUXX6wV4WMoOhYBERABEWhZAlLYWzZpFTEREAEREIFiBJZddtmwsnhWaT/22GPdHnvsoS3fioHrpOvPP/+8W2655drMWV9xxRXdVVdd5Xr27NlJIdFrREAEREAERKBrCUhh71r+ersIiIAIiEAXEVh11VXd7bff7vr27ZsKAabWa6+9ths5cmTquk46hwBpwsj6xx9/nHrhmmuuGRYOHHPMMVPXdSICIiACIiACrUxACnsrp67iJgIiIAIiUJIAo7j/+c9/3AQTTJC677bbbnOLL764e++991LXdVI/AqwlwKrva621VpvOkk033TRYRPTp06d+AZDPIiACIiACItCABKSwN2CiKEgiIAIiIAKdR2DQoEHu0UcfddNNN13qpS+88IIbOHCgu+eee1LXddLxBH788Ue38cYbu/3226/NdARW8b/ssstcr169Ov7F8lEEREAEREAEGpyAFPYGTyAFTwREQAREoP4E5phjDvfkk0+6RRZZJPWyr7/+2q288srun//8ZxtFMnWjTmom8Morrzg6Ta699tqUH71793YXXnhhWL1/jDHUXEnB0YkIiIAIiEC3IaAasNsktSIqAiIgAiJQisCkk07q7r//frfRRhulbhs9erQ75JBD3NJLLy0T+RSZ9p1gAs96AQsuuKB76aWXUp5NNNFEbtiwYW6bbbZJXdeJCIiACIiACHQ3AlLYu1uKK74iIAIiIAJFCYw99tju6quvDnOpsyuRYzY/zzzzuPPPP9+hbEpqJ/DBBx+4lVZaKazI/8svv6Q8mm+++dyzzz7rWMlfIgIiIAIiIALdnYAU9u6eAxR/ERABERCBFIEePXq4ffbZJ4zw9u/fP+X2ww8/uB122MEtv/zy7t1330256aQ8gT/++MOdddZZbs4558xdG2CzzTZzjz32WJv1BMr7rDtEQAREQAREoDUJSGFvzXRVrERABERABNpJAKUcU222f8sKpvNzzz13mF+dHSHO3qvzPwkMHz7cLbnkkm7IkCFtVoEff/zx3ZVXXukuv/xyh5WDRAREQAREQARE4E8CUtiVE0RABERABESgCAHmtbPF2znnnOPGGWec1F2sbH7ggQe6AQMGuOuvvz7lppO/CHz22Wdu6623dgsttFAYPf/L5c+jpZZayr344otuk002yTrpXAREQAREQAS6PQEp7N0+CwiACIiACIhAKQKYyO+4445htH3FFVdscyt7tW+wwQZhhfm77767jXt3vcAK+2zJNvPMM7tLLrnEYQ4fC6PqdIRgrTDNNNPETjoWAREQAREQARH4fwJS2JUVREAEREAERKACAjPMMINDIb/iiivcxBNP3OaJp556yg0ePNgtscQSYV/3Njd0kwvM8z/ssMPc9NNP744//niHJUJW1l13Xffqq6+GjhBt2Zalo3MREAEREAER+IuAFPa/WOhIBERABERABMoS2HTTTd3777/vDj/8cDfWWGO1uZ/V5FHaF1hggTAnm23huoN8+OGHbvfdd3dTTDGFO/roox2Ke1bY55797m+44YZwX9Zd5yIgAiIgAiIgAmkCUtjTPHQmAiIgAiIgAmUJjDvuuO6II45wzz//fO6idHjw3//+122xxRZhcbqTTjrJ/e9//yvrb7PdwPZ2DzzwgGN191lnndWdfvrpbRaUI05YJJx55pnukUcecQsvvHCzRVPhFQEREAEREIEuIyCFvcvQ68UiIAIiIALNTgAl9fbbbw+K6NJLL50bHUy/2SZuqqmmcuuvv34wq//tt99y722Wi4ymH3fccW6WWWYJ+6WzwnveavkTTDCBO+qoo8IWeLvssovr1atXs0RR4RQBERABERCBhiCgmrMhkkGBEAEREAERaGYCiy++eBhpfuihh9wpp5wSVpbPLrI2atSoYAqOOfiEE07oVl999aDAL7fccrmm9Y3G45133gnhv/HGG92zzz7rGF0vJpjF77bbbm777bd3/fr1K3abrouACIiACIiACJQhIIW9DCA5i4AIiIAIiEClBNiijL/XX3/dnXjiiWGBOhT1rHzzzTfusssuC3/sO84zLFi3wgoruNlmm801wkJs3377bdiGbdiwYcEq4K233spGo805Yd93330d8/zHHHPMNu66IAIiIAIiIAIiUB2BHr6HvHgXeQV+PTX8hXDXvHMNyL37+ZdeDdcXXmCeXHddFAEREAEREIFWJfD5558Hpfyiiy5ylSi8cGC7M+Z5s0Db/PPPH+bAs+J6PWXkyJHulVdecS+88EJYFI4V7+l0yFoJ5IWhT58+bq211nLbbLONw1qgETob8sKpayIgAiIgAiJQTwL10oulsNcz1eS3CIiACIiACHgC9I0//vjj7vrrrw9/n376aVVc/va3v7kBAwaErdKmnXZaN91007nJJpssmNZjco6JPSP1LIYXj2x/9913QelmRN/+2B/9o48+ch988EFY7Z6OhHfffbci5dwC3bNnT7fMMsu4DTfc0K299tpuookmMif9ioAIiIAIiEC3JFAvhV0m8d0yOynSIiACIiACnUmgR48ebrHFFgt/J598snv44Yfd1Vdf7e644w5XifL+/fffh5FvtkTrKundu7dbdNFFHXuob7DBBm7SSSftqqDovSIgAiIgAiLQbQhIYe82Sa2IioAIiIAINAIBTMZZUZ4/5MUXX3T33HNPWGn+sccec1999VW43tX/GEWfe+65HQvqMZqOuTsj/RIREAEREAEREIHOIyCFvfNY600iIAIiIAIi0IYASjF/e++9dzCdf+2114L5PIr8Sy+9FOaVjxgxos1zHXkB5XzmmWcO4SAszJ3HIkAKekdSll8iIAIiIAIiUD2BTlPYzaa/+iDqCREQAREQARHoXgTmmm+g468r5bW33uvK1+vdIiACIiACIiACnsAYoiACIiACIiACIiACIiACIiACIiACItB4BOo+wl5su7fGQ6EQiYAIiIAIiIAIiIAIiIAIiIAIiEDjENAIe+OkhUIiAiIgAiIgAiIgAiIgAiIgAiIgAgkBKewJCh2IgAiIgAiIgAiIgAiIgAiIgAiIQOMQkMLeOGmhkIiACIiACIiACIiACIiACIiACIhAQkAKe4JCByIgAiIgAiIgAiIgAiIgAiIgAiLQOASksDdOWigkIiACIiACIiACIiACIiACIiACIpAQkMKeoNCBCIiACIiACIiACIiACIiACIiACDQOASnsjZMWCokIiIAIiIAIiIAIiIAIiIAIiIAIJATqvg978iYdiIAIiIAIiIAIiIAIiIAIiIAIiEAnEth11yHugvPPb/cbf/l1VLv9qMUDKey1UNMzIiACIiACIiACIiACIiACIiACTUFgggkmcAcccEBNYX3ooYfcXXfdVdOzHfGQFPaOoCg/REAEREAEREAEREAEREAEREAEGpLA3/72N7f//vvXHLZurbD/9ttvrlAo5MLr1auXG2OM1ptmP2rUKPfcc8+5scYay80zzzzujz/+cL///ntgMOaYY+ayaLaLI0aMCPHi4+jdu3cI/ujRox1/pClpK+l6AuRFhDTq0aNH2QBZuo477rgh/5Z9oANu+PHHH90vv/zixh57bDfOOON0gI/yQgT+JPDrr7+6kSNHhvJo/PHHb0os1J+vvPKK++6779zCCy/sevbs6ahXkVatQytJKHi88847jvJjkUUWSeqhSp5txHuqLasbMQ6dFSbaVNRVyEQTTVTRa1uFb6vl+4oSTzeJQDcg0KXa8IcffujmmmsuN/fcc+f+DRgwwK200kpu3333dbfddlvTJweNw6222irEdYsttnA77LBDiNM111yTxJ/Cttnlm2++cYMGDXKLLbaYe+yxx5LorLLKKiGeW265ZXJNB11H4IEHHkjyHQ3+cvLTTz8l6XrttdeWu73D3FddddWQl04++eQO81MeiQAEjjzyyJC3Ntxww6YEMnToUDfvvPO69dZbz22zzTbu66+/dh988EHyXd99991NGa/2BBpl7eCDDw6dF3//+9/ddttt56iTmlmqLaubOa4dEfZhw+4K3zVtENpd5aQV+LZivi+XbnIXge5EoEsVdhtVLgWcxgfKOkr7rrvuWlHhW8q/2O2ee+5xSyyxRPj78ssvY6e6HF944YXuiSeeqIvfjeQpo+gm8ahtfN3c9dt1BIqlR2d/F+UI2GhhufsqcW+0uGXDjAJGmbT++utnnXReBwIdmbf+97//JfUJ+azegpXWJZdc0qF1Yr3D3Bn+v/rqq+7GG2/sjFd1+DvoOOL7P+6441J+FyurUzfpJCEwatSfFiZciNsgyQ2Zg47m2xXleDPn+0xy6FQERCCHQMPYJc8xxxxhhMDCiHnSW2+95SiETMmlEcRo26233tohprGMZtPIQirpPLCw1fp73333hUf79Onjzj33XDdw4MBavWrK5xZdbFH32quvhdGfpoxAiwV6sskmCxYuRKtv375J7Dr7u0he3AkHjR63zz//PJRJTAGQNBcB6hCrT7799tu6B/7+++9P3nHYYYe5tddeO0xToZO7O8vTTz+dRP+ggw4KnV9MP2sGIe3IO5999lkquMXK6tRNOqmZQEfz7YpyvJnzfc0JpwdFoBsRaBiFfc4553SYTOcJSjsm5D/88IP7+OOP3cUXX+yGDBmSd2tDX7NOATonMBnvbnLUkUd1tyg3dHz55q6//vqGDqMCJwIikE8gHhXE9FvyJ4GvvvoqQbHJJpuEOf3JhSY9UFld34RrBb6tmO/rm+ryvdUJbPL3jVNRxCqNTvUNNtggdf2EE05w0047bepaI540jMJeCg5z2f/973+75ZZbLtx2zjnnuK233rrNKDsNmEceecS9+eabYS7fxBNP7KaZZhq31FJLpRbIwgzypZdecu+++27y2hdffNF98cUXYT5gbEL1/fffO5byf//99x1zeOmJnXXWWcP8uPi+xKOcA+YVsgCKzaX64fsf3Ntvv+3GG288N+mkk+Y8kb7EokjDhw8PYWYu3nTTTRdGqZm7GAtrAlihPd9886VMwRhZZAEeZMopp2zzXty4x5jF/pY6htl///tfByfeOfPMMxe9nc4WRg4nnHDC8Je9EffHH3/cEQ8WTpp88snd/PPP72aZZZbsranzTz/9NPDBKmPRRRcNz3ED3MkTvM8WuYM7YbV4vvHGGyF9sXqgUyiWF154ITAnXKQV4VlyySXDs/F9HL/++ushfxhb4ml5kfxHg8CE9ITZ888/n8RxxhlnNOeSvx2ZxuRn2CEzzTRTWKiq1HeRFzBGEognI0OsR0EemGSSSfJuLXsNLjB/77333GyzzRa+RUu3Ug9Xkk6d/c3H4SUvMBpKecPoGfmZ+MHLyhC+a8oYG6ElL5NHsHzI5v9KywPCwIJb5HE4slYIHFjlFOulNddcM6S7hbXWso5yg4rwk08+Cd/r7LPPHrzEP+JOHPIWCyQeL7/8crCi4ntnwTTKVmNi4eqIX+JNxy9rNVDm8q7YqqTYOyotk4gH8TchrUk/0i5+T6V1lPmT92vfbTwvm3INhtNPP33eI6lrdBzzzVDn8d1Sp1HH0olsC4TyAHUW3yJC+cACoibEAz8QruMeC1PMYMciqnHZxz2sa/Laa6+FUeSppprKkV9YfJVFJdsjeVwIP3mfOjMO8wwzzODY3icr5BHy7NRTT+369+8fnOO6k3AitDGok8nj1MN8W3E6h5uif+QPynvSicUNKe9Zn4d6B7Fy3RY+oxwg/1Dn8Gdx494sa65Vmqbcy1xnwoIQDsLD+3kfZRDp0Z5yvJLyOLzc/7N6k2+SupM8TVkCL/IGbEmrYmUCCy7yrREf8j+LC5Kfq5VifKsNXzXlOGEnf/IdUnZQ9i200EKp78ziUaocJx9hQRKXB3G+Nz/4rbQ8i5/huFz+zd5fTdyyz+pcBDqKAFOjpphiikTfoR1POU05jFB+o/uw5okU9o6i7v2hMF966aXdgw8+GCre22+/PdVLgtn8LrvsEiq27GspyA888EC36aabBieU2uyIxB577BHcbr755lBhcXLBBRe4U089NbwvOEb/qOzPOusst8ACC0RX8w9PO/00d9211yWOb739lltttdXC6qXxomzJDdEBCuxOO+2UKPuRk1twwQXdiSeemFRQWB7861//Crcw7z9Wnq+88kp3xhlnBLcVV1zRnX766bFXjpEIlAkWabnoootSbnknVHDbbrttqORjdxogLOSUJ1v6xeaoMJgKcMUVVyS30IDYbbfd3L333ptciw9o9DJXM7vaK2Eg3R5++OH49tDQOvroo92OO+4Yrl999dVBkeBkv/32Cw33lVdeOaSzLWSG36aw01girxQzLV199dXDHEPylQkWH8Rt+eWXD51EpIUJ3FFYrrrqqtChQrhoPMZCfsSstZx0ZBqTt8xS5aabbnL9+vUr+V3EBRoF3VprrRUaXNkwkyfJ39UIc/5I46zsvvvu2UvJeTXp1NnfvAWSaTCsv0FezQqdUWeffXZQHFDoDznkkOQWOvfIE+SxeEHAasoDPOPZzTffPPh73XXXhTLSOgUoH6zxX2tZRxlo5YoFnjKAOF966aXhm6BcZv2RWAhLXn7nWcomOrk6SphKRTmR/ebofCumJFZbJlEWxmbw5GX+9tlnn1BOEpdq6qhScafOyPK0743Os1KCYsDidO97xSwrKKinnXZaUlaikFr5wL61lN8mdOxZHUoj6JlnnjGn8Mv3fMcddwSFFGUKhQvFauedd859N+Uva7xYZ0/KswpPynFBibAw0x6w8j72noEA0pEynlEXhLgZB9odlN+U9bHwnd5www1two+iRd7LS5cjjjjCnXLKKSGv8xtvF4TyTFjpRCEfZctqOlhMqklTnqFDwjicdNJJbtiwYS5vzYV//OMfYTFDe0+532rKY/PL6k3m7tOpQr7JCtMgqVOySjtK6cYbb5z67ngWRX/dddfNelPyvBjfasNXaTkOKxYdpoMoK6xhQBkYl02lynHqissvvzzlTVwe8F1XW56ZZ5XmX7uf32rjFj+rYxHoaALoFsW2caPsQxdoFhmjWQJKOK2S4ZjK34SRVCpRaxQzesVIKw0JhIYalY8pdhSE9MLGChcKOI0GG2F46qmnHJUZz3IfPb382TNU6jSE415NC0/2d5L+k6SUTfzgXVQspYTGAQ0IG5lHYUJJt175Z599NkwjYKQKWWGFFRLvqIBiiRsMtiaAuTNfzhqbKPPlBM5rrLFGSlk3noSVxl0poeEUC5WTKeukGY2UeFSR0Ywtt9gyfiSMFFKRW5riaCMmVBimrKceik6wmjBlPbocthikUWnKOqMbVKD8mtAZYo05u2a/xMOUdSpKSyuYbbTRRmHFYstT8agjnQpYkZSTeqUxFXol34WFD0WN0QeEfGnsOUdJsREczssJyl2srOOXsUGB4PvOCnmomnSqJG4d+c0TXvJt3IlIg5QOMRu5o1HOvGPYM8JEmRBLtoyotjyI/eIYRY1vIyu1xptKMFbWSTPKNsoAytusUmPvRVGJlXW4WNx5loYsHYwdIXxTKLemrPM92rsoO4qtol5tmcTomOVZwm3vse+i2jqqVNzZUpE4WNnCvZzzV2obVEZRKd9NWed+yloLI3mDOta+XfKqSbZjOT5nqlpsXcAz5k6nCIoW6brZZpul3k25yugpAh++hezc7eBY4b9aueR5n62j7B6sUsjX5HPqb2sPkL8o31FwTBj1po6K616mw1ldQp1AGYZ/8TfA89ZGsHvNT34pL0yqTVN7zn7pwDZlnXfFeZgORNoYlUi15XHWTzo7TFm3vGz30PFz5pln2mn4xWqIDmNrt8DLRtbhSb1Rq8R8zY9Kw1dJOc73R8e+Keu0eWaeaeYkL5Ff6DDKq/cIT7Yct7KmVHlQbXnGe6rJv9yPtDduf/qi/yIgAnkEmkphp1IziRV2lAcaBAg9jTTSUJroGT/55JPskUQppIHCSH08EswII40MG3GyBiWFKaNkjFzzR0+n9d5SSWdHFpKXRQf00uK3KaGYPXFeamss4mPhozKiwqBxSUMWkzPrvKDSp3GM4K81IKzBxHXCyYiISbaBFTcoll12Wbut6C+j49YYZ7ScSh2emHbRKKtGGKllAT6EzohHH300KG8sLAhra7BglYBpogmjd9a4w/KCODz55JMhDFTk5QRuCFv+YFVxyy23hHN6yI0VSj/bvTD6yC9/JsUa+rijkKFcESaUMjp6EMuje+65Z3gHbrFiEqdZeCDnXz3TuJLvIg6SpRcsYB+PEFc6Nx5TO9uykYYa3PALNoyqFJNq06mSuHXkN0+46YQxIY/Rm4v1Coqije6Rh+lAQ3kh/a23l3KHc8tntZQH9m775bvne+J7gx+NRqSWeJNu9s3QUCbdSDO+WRTyYsJzZgVEeUjHGVyIK9+8NTop0ygb2iOMJB5++OHBC8pFOhcoO3kXdYQpqtl31FImXXbZZWFE2fziW+A9bLeGVFtHmT95v3RG4zdWUQhx45w/vqFiQn1iHRekEffTUcb3Fis4lE/cRycX0zaQeEErzuM6g3P8MqFuMEXKOoC53xQQlETup1y988473XnnnWePthkpTBwqOKiVSwVeJ7fAhe+Gb5bOWeo8ykGEb/Shhx4Mx/yjjmLKEELnB/diokk9Yp3a+EfewZIIJpYneQfnxxxzTHi+2L9q0zTrD++nw5Xvl3DxDZs1AffSLqpEqi2Ps34SDr59FHPizR9cTLKr/mNBZ/UpdTh1Nm0QOh9t2oI92xG/lYavXDlOWA499NAk7KQfbcjbbr8txMHm1vINWbsoG/5sOY4FJryKlQe1lGe8s5r8a2Fsb9zMH/2KQGcSMJ0RvbHUX6UdmPUKe1Mp7NaDCgxTGDm20VAagCg0say88ipJJfjRRx/FTiWPraJle6X4vTwUV2jV+FnyhRlHlGIKZuTYY49tMw+QRjaWBAiZjcYp1gHWeIgzFo1oKpxYKOBNbJSaEQMb/TO37C9zQa2BReOCQt3m7tFwZC5INRUmc+BNGG2wBjvX8I9rJjbfmrgwVQEhvBxbuJkzyZY49FiXEyqXvffeO5gxMqcdidNz++23T3mBssN8MaTUNoD0ZlvHD3HAGsGEES1GEG0kjPRi1AWxjgK7N++3M9I4773Za6QT5tzGDXfrROLY1kvguJTEVg50Xhg3nsGsL/7WYn86Ip1i/zju6G+e7w6BVTw9hRFHRt4ZXaSxHHdEhQdy/tVSHmS94XtFOaaDi3ldNppWS7xtNIx3YMocpxsjjVtG5tNxOGIFGmWRESkTym/ylAkKfHvkmmuuSRrGlJexdQplJ2uh5EktZVKeP/G1etRRsf/ljpkzbmU+o3ekUSyUa1hzIXQi0XGKmMKNcmSd5JS/2bLK7ueZ+NimNthoIu7MM46Fe+go5lsoNrId39+Vx5TVKJU2n5/yHYsik/ff/yAcMjpp1id0vnFM3WSCdZ4p55Yu5lbpb61pGvtP+Olcjb/fuM61NI+fyTvuiPKYDhzrROQdrDNhnd1WRnEdyy5r3/BNU4dbfcp8fMqVuB3BMx0hlYav1LsItw3y8L0xFcCEOBx11FFJ24VOimy7jXuLlePmT/a3lvKslvzbEXHLhl3nItAZBOjAxnKl3B8Dp10pTaWwxwtQ0ftvQoORxjGKayyMojKyZb39sVu5YxY+wU/MdWPBBL6SOd7xM7UcW4VExVNs9XxGFEyYz4VYA4u4v///8xStQYASa3Pf4kaVmc/HDVrzN/uLKZqNTqPQUuFnhR7fSgVFBs78xfHBLI3wZ3vW8RfzS6vI6FDJ27Jnhx13KBkEuMYKpt2MomHhMYUGNzoqqGjpwS8lVKYs2BNL3BhCWcqKjYqV6gSIn6l3GsfvKnZMPKzRavfQ4LBpHpWOjhpPOjLyFswyJcLeYb/tTSfzJ/7t6G8eM2kEZYeRVix1yEcI7BhdZAS92Pcdbvz/f7WWB7EfWIzkNWRriTffCMIIbJy/7X2MemWFb9qew5LA8n18H410K1NsG8zYvZpjRv0Q4mwj3fHzfKex1Za51VIm2bPFfutRRxV7V951Rk5NttpqKztM/S6++OLJOdM5kFiBsqlUpKGVv7YujLnxDCOdCB0wVkZwbIJ1CdYncRlBRw3fgo08272N9kuDLiv2nXOdhfoQBhRsBJhpAXFdgjtlJYo/c+nLTd/i/jypNU1jv7BGszSy64TNvos4jcw977e95TGDItnBFt4TL1hoZacNMOBOx2dWYE27oCOlmvCVeq+1tbgHZnmy4korhsu0s+w7jO8rVo7H98THtZRnteTfjohbHG4di0BnEfiPX+fmY69XVPL3ySefdlaw2rynV5srDXwhni9uptIElxErGoOYmKOIorzSI2sVZi1RotLChA8TeypGepCZ42cNlVr8rOYZU8BpDMcdFbEf8Ug2qx6yYA8jFZiLIZg6UvGawr74EosH5ZbRDmtg8Zwp4KYIxu/IHttIEddthD97j81LzF4vdk4DnY4AGnGYzKKQl+pkMTb4N9NMM+Z6W27VdZTD7CI25hHhQVlAoXrzjTfdJ59+kjCye4r9sjhiVmxdBK7nuWfvL3de7zQu937c2X0hT6zxlzcPMHs/37N9T8UWm6LxxZ/l0diP9qRT7I8dd/Q3j2JChyFxZFTIGpeM0g0ePDhYaxTjaGGyX8vz1ZYH9jy/xb7XauNNuWrpEVsOxO9CGSd9LH1xMwsZjpk3a9YqnMdizzDS2x6hww9h5Jaw5Ak87b7YnfurKZPiZ/OO61FH5b2n2DXLP7gXywexcmSr6FJO0glJeUydgdmtNcxRwsnHWMbYNCvKN6tb4voEpZV0oP7gXkYS+aODj45i/GGl9WJlcrF4dfb1rLUd748HD8xCIK4nzYIqG1asq8wiLutWyXmtaRr7nRcf3BmpRiopx8ON/l97yuPY0sb849esEDg2tvGof7HyJ68TET9qlWrCV+od7M5hUmz6YLzOCJ342bqx2Pdr/ub9Vlue1ZJ/OyJueWHXNRFoDwGm3RUT6xCbYIJ+3lq0f7HbGuZ6Uyns8Rxitl0xYeQTMy4zIbfr/KLY19LwQ1HH7NMaj7GfjFQzp7qeYiZgZuqd9664sv3555/DLcSX6zyPos6cKEbQEOZXofxgCmoNLJuLyChU3AEQHsj5F09FYFXxPIkr2Tz3+Bp8mdPIwjJZoZLBL5v7aO7xAkdTTNFWQea+WEm25+LfvJFG3KkgWfHZPuT4GUwb2XanVEcQW8iVkmKdL6WeybrVO42z78s7j03h89wruRYrcMXyEv7QeDQF0fxtbzqZP/FvR3/zNCYx66YciUeFzIKDRS2X9pYKzG8mr5eSWsuD2M/YJDe+Xm28YxPLPKsI85u8Hpefsdks31DcKLRn4t9S31l8X7Fj6+AtlbfyvtdayqRiYbDr9aijzO9KflmcDKH8p4MmT6yzDTerTzhmO1UsncwaxqyzGJHHSoG8CzPqG0yYLd3i0Xnei+k1c+VZw8DyBfUJJsz8Ua7hVkw5Iiz1FttWrdh7YkbF7uF6nNfjEfhSz1Tr1p40tXdVGh+7v9hve8vjasJhbRDyXbFys9Q3XywOpa5XE75S/sT5olz5hz9MdcxKsXI8e5+d11KexeGsNP/Gz9QaNwuzfkWgowiw+0a8A0eev43eUWxhbiqFnTmJJtZ7T0MeBcsaCfTk01Cgt54efXq/6b3PG0Uxv7K/KLi22AsVAnP+lllmmWDix4gY83sqUW6z/lZzTgVBT2upkWYqSRPiakL8GfVghJ3RdGscsQUdjei4gWWKBIviFGvImb/8xmaseR0k3BP3EHNeSpgPb8o6yjkrBdOxgCJAAw7zyqzJYNyJYb3u2XfkKdzZe/LO2QLCnqVjZvU1Vg+mevClEcBiWPFCcXl+dMa1eqZxZ4Sfd8R5yXY6yHu3KV6xW0enU72+eSw9zj///NDhwMgjo5OYalsnIvkbxZ1Oq1LSnvKglL+1xDtWcq3czb6DcivrFnfyrLPOOo6/UsKq3+0ROtgIR7FyCr+tIyR+Ty1lUvx89rgedVT2HeXOLc2yHV/xc/EK53F9wgg4CjscURLjDmDqEpR2pmygyJsJNQp6diSQPMy6IQcddFBYiZ77Gf2w+e18E0ylaO/aBXGcqj0uxacav2IFj/ZCPaQ9adrR4eno8rhU+Kz+p12DBUBeu6WaNkipd3W0W1znVdKO6AhLgVrKs1ryb1fEraPTR/61FoFffh3VUhFqGoUdcxur2GkM2GIk9Ppbw5DKngVIYqFAj3v+Yrdix6ZA4s6KgcyrjIXFXuotmLJT6bB4V7FKCYXcJDatpYFlZorsd4zQeLJRZfZ/ZsQHZd1W/7UOEPOv2G9s7s6qt3nzzmy7r2J+xNdtpWnCRi9YtmfclOf4mbgxCR8ajFnJLoqUdc87p8FqWxphxsiIULYxgJlsI0g907iz4hdbiJCX8gTrCvu+zb0e6dTR3zyNSfzk26X8oPOJkUr+UFpQcGz+L0p7OYW9PeWBccv7rSXeLDLJ90q6FFtc0Oaqx++Mv1v4FDMHxlyeNK50ZCd+R3zM+1DYCSPvyxuNyytfaimT4vdmj+tRR2XfUe48LrdRuuP6wp6N6xPymwnrS5jQ+QRLhA5ghE5y8jMdUjaHm3weC3UNHW+Eg850nuWP1dH5xulUp0OA9GBUMW9dkti/Wo7jUZTYgsD8ik2t7VqtvzFv6gxbfC/2j20R6bAgn5baMSZ+Jj6O31Ftmsb+tPe4HuVxqTDF8YZt1mScZ5la14iC1ZVNUWRQIlZyLbykJdMwGVzJa9vYfZX+1lKeZRlXkn+7Im6VMtB9ItAKBPJt4xosZhRg8QJhe+21VzLXzUaqCHJeAw+Tb2tgVBqt2FQ3rzKwArBS/2q5z7bToRGTt/gSjWXmxyL0OMfKDw1ha5yawh4XuMyBRtiWxthgmluJxD2+bLuCQpKVc8/5c5u27PW8c+sJp0c3q6wTNrabyUo8HYKVW7NC+sVbamXdi53HpvdUPlllHfd4oZ9i/nTG9XqmcWeEn3fQgDbFgMZ+/C1bGFisKyv1SKd6fPMo4Syidc6552SjEJRVs9KpZFSvPeVBm5dHF2qN9zRT/7mGAZ1sWQsIRhTjVeTtdZhy2ugY3zUN/ayg3LJvOtzM+id7T6XnxoyyMu6YsOdpOOeNsNdSJpmfeb9xvu6oOirvPaWuxfPTL7yo7TfFs3GZGS8ASucMnbyIrZLL4qVmmmt1C3UVHcFItgMYU3jSFAU9Kygtts0hbnnKdPaZWs5j5SivQ8lWda/F7+wzWNZYHcwOD1lLMCz+aEfQoVTrFID2pGk2vO05r0d5XCo8dPiYMKCSFaw8bKvQrFtXn1uZRDiYipQne+yxR/hW6NDJ5pu8+8tdq6U8qyX/dkXcysVd7iLQSgQaRmFnBB1TOPtjxXdWjqXxRuVPYwBhpNj2m+Q8Xn2WwttMa+mlx4yPLbRMsg2B2OTSVhTO+skWXabU0jDFJJoK2CQ7+mfX2/uLtYBV+GwbEyuKxI3Vaq2hj1VBPHrAc9mtc+IVgDE5jwXT70rnnaNY22IpVASYqxsDOLGtWzXz+20OLH7RgWBinTTxCJi9h2kOFgbmSrH1F8+TvoxYkD/sXvOvkt94QTgqfFNm6JRgBIlRIMsL/HZEZVpJuPLuqWcaF/su8sLR3muskmyy8cYbp5R29gBmbmtW2pNOxeIWlyMd8c2TPubnLf++JfX9Eh8UGxsFMmWI61gPITbaGE78v/aUB+ZH3q+FEbdq4r3Pvn9tZcU6GYx08U2wzznricTfbfxeygeEeynDzISaa5ha2zZ+8ItN5lHe6eDg75RTTuH2ssJuFfiDkM9sMTTOsZKibsmTWsok/IkXH2O9FSsrYsbV1lF54avlGgq4heO6a69LTeuhfEOhtpE/poBhERJLVgGP6xD8RamPhSlWsZglFp0XzFOPhWvWEUA9ZB23taR57G/2mA5YY4AVB2lEGc7UMvJUuXmOWf9KnZMXrO1B3YQSZnUSSnq8+8yqq66aeGWWBXRcWf2eOGYO2pumGe9qPm1PeVzLS+kgshFg6mmsPqwuhi2WS/bt1eJ/RzxTrBxndwzbSQVTdRa2NWH9BLafNEtSVrrviDVvainPasm/XRE3Y6dfEegOBBrGJB6FNFZK8+DTsGXELVZOacDZImsUdIw82rn5wagOlSbmzsxFZ2SahkGs1KKI80cBSkPx3HP/HCXGtJy589xvPckUxlQIVMD0yuNv3kivvb+WXxotjNCxBzvvwcKAMFChx6NCxD/e59vexQrM1gDjmk0h4JhRcuJgDYIVVlyByxULjQ8qSipHa1TBHMZwYe6odbCU8xTF27byobHOs/hhYaNys0VmGIVBceG+PffcM+wpzTtR9GNln3fSUK+20uYZGqvEjWexRIjjhb9xeDAVZf5xtnHKfZ0h9UrjYt8FLDpaaHzBz0Y7+T4ZCaPzxfJA9p3tSadicavHN49ySp617xcliNE0lEVrvBMX5n+a0LFmWxnyXfOdUi62tzww/7O/tcabdGNaBooP3+eaa66Z8jouX2IHOr34blCeKTdR5OBCelOemLDThY3Gcw03Y5Y3Mm/Pxb/kIzo7bfFQtjMjXDRGrSzPKydqLZMon63uoQOYaTVMf6BDw65XW0fF8WnvMfUbYUE4PuGEEwJjFGYrK4kDFmxZoSw87rjjksuxwk59TJoytQNhpA3OsbAFKCP4pOERRxzhTj311GBdw3Q1Swvut7qA41rSnOdKCVsoWmdSNduPlvKzmBtxpq0BX7as4w++cT7Hsi3eLYGykO+fe2jvwJ2Bi2LSnjQt5me119tTHlf7LrufdpHtYX7yySeHDifKC2sb5X3X9mxn/BYrx+k04rujcxrhWzvkkEPCd0g5at8h5UX8LbQnzLWWZ9Xm366IW3u46FkRaDYCXTrCnjU5zoNHBcccUBToq666qk1DgNXAGbWIRwSs0KbQwyScVZjxB6HyNEWARnBsao87DQrm97FHqo0aUIhao4IOARqpNMapFBCb9xxOKviXjbeZFvJo3BlBY58OAXsPlbjFjXspiOlMyPqHG4qPCQ2o7KrpseJCw7saYZRy2LBhoWFmzxEuONFIxkrCwmzu/OZdYx/YeFE5FH3Sh3upkGnk2EgbaWNbh9AgREmnN93SiXdwnZ7euAMlHlW1MGR58Cxy5JFHhkXv/jz7c1Eq4sU7aBwx6muLKZEeNgpv/tpz8W+xd8X3cFzKj+y9nLc3jeO8Fvtf7LuI7yl2XGlc4+cZIbH53FznW7M8cNFFF7mBAwfGt4fjWtOpWNzq8c1TbjFiYulK2UNZYYon5RMWBDYtgIihCMWda3YvbrWUB3HZkDda0554UzaxNVdsakxcKW+wkDJhznsspGmsLMHFlBj8QjG0bz5+zo6L5Vtzj39R0o8//vjkEvnKynK22csz0a61TOIldGbG5RHv45uotY5KAl7iIJuucX0Spz+mxExFsLqSvBUrCeQ7yltzj19JPonTOc6j3Mc8dpPsaDzX+e4wATa/SW++BUsLmKG4wD5PqknzvOftGnVN3j70dBRT59MBnpVK3m3fePwsneuM2sf1q+Vz7ttyyy3bWItgHRZ3VFnnVLEwtCdN47Bmj6stx2stj/O4xWEpFg7SyQZeuJ862tpGlLuxFWTsX7HjYnxrDV+pcpx56fF3SBmBpSBxQOikweLErC24Fn/H2e8d91JSa3lWS/6tJW6lwi43ERCBvwj08KZEhb9Oqz96avgL4aF55xpQ/cMd+ASFHSNR9J6zGjGNfFtFldfgjhkqjUfm38UF4FdffRUKe5R6M1fiGczrhw8fHgpT5jTTSInNHnHHjJNFY2jQ1EswgWchN+bdEQ9Gbphbnx3FqNf7S/nLgk4wQhgRYO5TscqvlD802mHJtAM4E7+4sqRhiZk8c0DjhqP5aQ0/c8NSwkaKWI04XqHanin1a7y5h7yUTV/MmUkX5hHGFWspP5vNrdh3Ua94YC3BN4qJKnkAtuUaJ7WmU7G41eObp9HN4o6YjaMkTTHFFGEXBBo3cR6PuTLHlYYcI/KWp829HuVBe+NNHL/77rsQN8KJYmKdgijMeVZA3M93hMUBChOmm3xrxcoP85NOAhspNiblfgkfCiLvogyBfbYjIetHrWUS6cYCZpQLxMnSuD11VDZs7TknHOzhDXu+NTogqVOy+aw97yj2LO8mHVBQKNOpo6k/UcDilant+fakufmR94v5MXmB+gYFmTxRTDnMe77aa+Q/FkJFqSS+tCeK5T+mKFBW8B1Q71RSz3dlmsYsai2PYz+qOWa9DNpFtB0mmWSSYGHJb6NIqXKcdKacYBoRizVOMcXkvvxbKNVh05HxqLU8IwzV5F/u/7/27iA3jSCIAqgj5UZZ5CIciz1bjsPSkiWvuEuSj9RoAgYCHpOe6jeSZWzw0PXKkl3T3TXPji3v6SCwFIHXt/fDUH/+OL9AfC2GMgX7tSA9V08gy4gzG5+lmFm6dXpkKWyuYmfmJn/MpxdoTl/rawIE7hPYbDaHixCZOc2S1NMjM+xtSWeaa33UbO30Z259ne1Q6/X6sLpnuirh1s95frkCcr7c3Bk5AQIECJwLPFqwd7OH/Twk3yFwWSBXrrOaInthcwuhzOy3I3slU6znyPJMxXqT8ZnAPAJpFteauKX51Wq1Op44M7etuVxmbeco1nOnjBTrmYlVrB+pSz+Q89LpFRwBAgQI3CFghv0OLC/tRyD75Kf3rs42hyxBzfK4tu83/9hnL9ilpYf9RGMkBJYlkKWcadCYpbg5ssw3e/L3+/1f+5LTQ2SOgj3LRtPILZ3db22TWJak0V4SkPNLMr5PgAABAksVeHSGXcG+1Iwb96EJYfbHtgJ9SpI9mWno9dG+yOnrPCZA4DGB9K7ILSVbs6fpWdIPZLvdHhs0Tp/zmAABAgQIECAwooCCfcSsi/klzYN2u91Lbg+UW0Ola26alf1Lox58BAh8XiA9ItrMemvO+YwGZp8fuTMQIECAAAECBJ4n8GjBbg/783Lknb5AILcwmt5S6AvewikJELgikI7r+XAQIECAAAECBAjML/Bf78M+fzjOSIAAAQIECBAgQIAAAQIEaggo2GvkURQECBAgQIAAAQIECBAgUExAwV4socIhQIAAAQIECBAgQIAAgRoCCvYaeRQFAQIECBAgQIAAAQIECBQTULAXS6hwCBAgQIAAAQIECBAgQKCGgIK9Rh5FQYAAAQIECBAgQIAAAQLFBBTsxRIqHAIECBAgQIAAAQIECBCoIaBgr5FHURAgQIAAAQIECBAgQIBAMQEFe7GECocAAQIECBAgQIAAAQIEaggo2GvkURQECBAgQIAAAQIECBAgUExAwV4socIhQIAAAQIECBAgQIAAgRoCCvYaeRQFAQIECBAgQIAAAQIECBQTULAXS6hwCBAgQIAAAQIECBAgQKCGgIK9Rh5FQYAAAQIECBAgQIAAAQLFBBTsxRIqHAIECBAgQIAAAQIECBCoIaBgr5FHURAgQIAAAQIECBAgQIBAMYHvc8Xz+vY+16mchwABAgQIECBAgAABAgQIDC9ghn34XwEABAgQIECAAAECBAgQINCjwLdff44eB2ZMBAgQIECAAAECBAgQIEBgZAEz7CNnX+wECBAgQIAAAQIECBAg0K2Agr3b1BgYAQIECBAgQIAAAQIECIwsoGAfOftiJ0CAAAECBAgQIECAAIFuBRTs3abGwAgQIECAAAECBAgQIEBgZAEF+8jZFzsBAgQIECBAgAABAgQIdCugYO82NQZGgAABAgQIECBAgAABAiMLKNhHzr7YCRAgQIAAAQIECBAgQKBbAQV7t6kxMAIECBAgQIAAAQIECBAYWUDBPnL2xU6AAAECBAgQIECAAAEC3Qoo2LtNjYERIECAAAECBAgQIECAwMgCCvaRsy92AgQIECBAgAABAgQIEOhW4Dd3CEuXPJIMiAAAAABJRU5ErkJggg==;" parent="1" vertex="1">
          <mxGeometry x="70" y="-1118.15" width="776.86" height="184.15" as="geometry" />
        </mxCell>
        <mxCell id="sGmR2cMoliQ0h1fHMsgX-107" value="&lt;div&gt;identifierbare&lt;/div&gt;&lt;div&gt;pseudonymisierte&lt;/div&gt;&lt;div&gt;anonymisierte &lt;br&gt;&lt;/div&gt;&lt;div&gt;Daten &lt;br&gt;&lt;/div&gt;" style="text;html=1;align=center;verticalAlign=middle;resizable=0;points=[];autosize=1;strokeColor=none;fillColor=none;" parent="1" vertex="1">
          <mxGeometry x="920" y="-1058" width="120" height="70" as="geometry" />
        </mxCell>
        <mxCell id="sGmR2cMoliQ0h1fHMsgX-108" value="&lt;div&gt;Soziodemographische Daten&lt;/div&gt;&lt;div&gt;Medizinische Daten &lt;br&gt;&lt;/div&gt;&lt;div&gt;Pseudonymisierte Daten &lt;br&gt;&lt;/div&gt;" style="text;html=1;align=center;verticalAlign=middle;resizable=0;points=[];autosize=1;strokeColor=none;fillColor=none;" parent="1" vertex="1">
          <mxGeometry x="1080" y="-1058" width="180" height="60" as="geometry" />
        </mxCell>
        <mxCell id="sGmR2cMoliQ0h1fHMsgX-111" value="" style="shape=image;verticalLabelPosition=bottom;labelBackgroundColor=default;verticalAlign=top;aspect=fixed;imageAspect=0;image=data:image/png,iVBORw0KGgoAAAANSUhEUgAAAGcAAACWCAYAAADDj5ZFAAAKp2lDQ1BJQ0MgUHJvZmlsZQAASImVlwdQU+kWgP970xsEAghICb1JbwGkhB66dBCVkAQIJcRAaGJncQVWFBURVBRdFVFwVepaEcW2CCiIdUEWEWVdLIiK5V1gCO6+ee/NO3fO/N+ce/5T/rn/zLkAUKhsoTAFpgKQKsgQBXu50iOjoum4EQABdSAF7ACJzUkXMoOC/AAic+vf5X0f4o3IHePpWP/+/r+KDJeXzgEACkI4jpvOSUX4DKJjHKEoAwDUfsSulZUhnOZ2hOVESIEI909zwiyPTXPcDKPBjE9osBvCcgDgyWy2KAEAMh2x0zM5CUgcsgvCZgIuX4CwEGGn1NQ0LsInEdZHfBAbeTo+I+67OAl/ixkniclmJ0h4tpcZwbvz04Up7Jz/8zj+t6SmiOdy6CJKThR5B0/3jJxZf3Kar4QFcQGBc8znzvjPcKLYO2yOOelu0XPMZbv7SvamBPjNcTzfkyWJk8EKnWNeukfIHIvSgiW54kVuzDlmi+bzipPDJPZEHksSPzcxNGKOM/nhAXOcnhziO+/jJrGLxMGS+nkCL9f5vJ6S3lPTv+uXz5LszUgM9Zb0zp6vnydgzsdMj5TUxuW5e8z7hEn8hRmuklzClCCJPy/FS2JPzwyR7M1APsj5vUGSM0xi+wTNMXAHHsAPeeggDFgAK2AOrDN42RnTjbilCXNE/ITEDDoTuWE8OkvAMVlEtzCzsARg+r7Ofg5v+2fuIaSAn7elvQbAthOBq/O22O0ANL5C0k7O23SR+mTcATgn5IhFmbO2mbuEAUQgjVSoBNSAFtAHxkhtNsABuCDV+oBAEAqiwHLAAYkgFYhAFsgD60EBKAJbwU5QAarAQXAUnACnQBM4Cy6Bq+Am6AK94CEYAMPgJRgH78EUBEE4iALRICVIHdKBjCALiAE5QR6QHxQMRUGxUAIkgMRQHrQRKoJKoQroAFQD/QK1QJeg61A3dB8ahEahN9AnGAWTYTlYFdaFTWEGzIR94VB4GZwAr4Rz4Xx4C1wOV8PH4Ub4EnwT7oUH4JfwBAqgSCgFlAbKGMVAuaECUdGoeJQItQZViCpDVaPqUK2oDtQd1ABqDPURjUXT0HS0MdoB7Y0OQ3PQK9Fr0MXoCvRRdCO6HX0HPYgeR3/FUDAqGCOMPYaFicQkYLIwBZgyzGFMA+YKphczjHmPxWIVsHpYW6w3NgqbhF2FLcbuxdZjL2K7sUPYCRwOp4QzwjniAnFsXAauALcbdxx3AdeDG8Z9wJPw6ngLvCc+Gi/Ab8CX4Y/hz+N78CP4KQKVoEOwJwQSuIQcQgnhEKGVcJswTJgiyhD1iI7EUGIScT2xnFhHvEJ8RHxLIpE0SXakJSQ+aR2pnHSSdI00SPpIliUbkt3IMWQxeQv5CPki+T75LYVC0aW4UKIpGZQtlBrKZcoTygcpmpSJFEuKK7VWqlKqUapH6pU0QVpHmim9XDpXukz6tPRt6TEqgapLdaOyqWuoldQW6j3qhAxNxlwmUCZVpljmmMx1meeyOFldWQ9Zrmy+7EHZy7JDNBRNi+ZG49A20g7RrtCG5bByenIsuSS5IrkTcp1y4/Ky8lby4fLZ8pXy5+QHFFAKugoshRSFEoVTCn0KnxaoLmAu4C3YvKBuQc+CScWFii6KPMVCxXrFXsVPSnQlD6VkpW1KTUqPldHKhspLlLOU9ylfUR5bKLfQYSFnYeHCUwsfqMAqhirBKqtUDqrcUplQVVP1UhWq7la9rDqmpqDmopaktkPtvNqoOk3dSZ2vvkP9gvoLujydSU+hl9Pb6eMaKhreGmKNAxqdGlOaepphmhs06zUfaxG1GFrxWju02rTGtdW1/bXztGu1H+gQdBg6iTq7dDp0JnX1dCN0N+k26T7XU9Rj6eXq1eo90qfoO+uv1K/Wv2uANWAYJBvsNegyhA2tDRMNKw1vG8FGNkZ8o71G3Yswi+wWCRZVL7pnTDZmGmca1xoPmiiY+JlsMGkyeWWqbRptus20w/SrmbVZitkhs4fmsuY+5hvMW83fWBhacCwqLe5aUiw9LddaNlu+tjKy4lnts+q3pln7W2+ybrP+YmNrI7Kpsxm11baNtd1je48hxwhiFDOu2WHsXO3W2p21+2hvY59hf8r+Lwdjh2SHYw7PF+st5i0+tHjIUdOR7XjAccCJ7hTrtN9pwFnDme1c7fzURcuF63LYZYRpwExiHme+cjVzFbk2uE662butdrvojnL3ci907/SQ9QjzqPB44qnpmeBZ6znuZe21yuuiN8bb13ub9z2WKovDqmGN+9j6rPZp9yX7hvhW+D71M/QT+bX6w/4+/tv9HwXoBAgCmgJBICtwe+DjIL2glUG/LsEuCVpSueRZsHlwXnBHCC1kRcixkPehrqEloQ/D9MPEYW3h0uEx4TXhkxHuEaURA5Gmkasjb0YpR/GjmqNx0eHRh6Mnlnos3bl0OMY6piCmb5nesuxl15crL09Zfm6F9Ar2itOxmNiI2GOxn9mB7Gr2RBwrbk/cOMeNs4vzkuvC3cEd5TnySnkj8Y7xpfHPExwTtieMJjonliWO8d34FfzXSd5JVUmTyYHJR5K/pUSk1KfiU2NTWwSygmRBe5paWnZat9BIWCAcWGm/cufKcZGv6HA6lL4svTlDDhmMbon1xT+IBzOdMiszP2SFZ53OlskWZN/KMczZnDOS65n78yr0Ks6qtjyNvPV5g6uZqw+sgdbErWlbq7U2f+3wOq91R9cT1yev/22D2YbSDe82RmxszVfNX5c/9IPXD7UFUgWignubHDZV/Yj+kf9j52bLzbs3fy3kFt4oMisqK/pczCm+8ZP5T+U/fdsSv6WzxKZk31bsVsHWvm3O246WypTmlg5t99/euIO+o3DHu50rdl4vsyqr2kXcJd41UO5X3rxbe/fW3Z8rEit6K10r6/eo7Nm8Z3Ivd2/PPpd9dVWqVUVVn/bz9/cf8DrQWK1bXXYQezDz4LND4Yc6fmb8XHNY+XDR4S9HBEcGjgYfba+xrak5pnKspBauFdeOHo853nXC/URznXHdgXqF+qKT4KT45ItfYn/pO+V7qu0043TdGZ0zexpoDYWNUGNO43hTYtNAc1Rzd4tPS1urQ2vDrya/HjmrcbbynPy5kvPE8/nnv13IvTBxUXhx7FLCpaG2FW0PL0devtu+pL3ziu+Va1c9r17uYHZcuOZ47ex1++stNxg3mm7a3Gy8ZX2r4Tfr3xo6bTobb9vebu6y62rtXtx9vse559Id9ztX77Lu3uwN6O3uC+vrvxdzb6Cf2//8fsr91w8yH0w9XPcI86jwMfVx2ROVJ9W/G/xeP2AzcG7QffDW05CnD4c4Qy//SP/j83D+M8qzshH1kZrnFs/PjnqOdr1Y+mL4pfDl1FjBnzJ/7nml/+rMXy5/3RqPHB9+LXr97U3xW6W3R95ZvWubCJp48j71/dRk4QelD0c/Mj52fIr4NDKV9Rn3ufyLwZfWr75fH31L/fZNyBaxZ0YBFKJwfDwAb44AQIkCgNYFAHHp7Dw9I9DsP8AMgf/EszP3jNgAUIMs02OXvwsAe6dnkHUAUBEOQjTUBcCWlhKdm31n5vRpoR4HYH+Lha9NyP3gdvBPmZ3hv6v7nyuYjmoF/rn+C56vBXOZw6n3AAAAemVYSWZNTQAqAAAACAAEAQYAAwAAAAEAAgAAARIAAwAAAAEAAQAAASgAAwAAAAEAAgAAh2kABAAAAAEAAAA+AAAAAAADkoYABwAAABIAAABooAIABAAAAAEAAABnoAMABAAAAAEAAACWAAAAAEFTQ0lJAAAAU2NyZWVuc2hvdAwcQHoAAALvaVRYdFhNTDpjb20uYWRvYmUueG1wAAAAAAA8eDp4bXBtZXRhIHhtbG5zOng9ImFkb2JlOm5zOm1ldGEvIiB4OnhtcHRrPSJYTVAgQ29yZSA2LjAuMCI+CiAgIDxyZGY6UkRGIHhtbG5zOnJkZj0iaHR0cDovL3d3dy53My5vcmcvMTk5OS8wMi8yMi1yZGYtc3ludGF4LW5zIyI+CiAgICAgIDxyZGY6RGVzY3JpcHRpb24gcmRmOmFib3V0PSIiCiAgICAgICAgICAgIHhtbG5zOnRpZmY9Imh0dHA6Ly9ucy5hZG9iZS5jb20vdGlmZi8xLjAvIgogICAgICAgICAgICB4bWxuczpleGlmPSJodHRwOi8vbnMuYWRvYmUuY29tL2V4aWYvMS4wLyI+CiAgICAgICAgIDx0aWZmOkNvbXByZXNzaW9uPjE8L3RpZmY6Q29tcHJlc3Npb24+CiAgICAgICAgIDx0aWZmOlJlc29sdXRpb25Vbml0PjI8L3RpZmY6UmVzb2x1dGlvblVuaXQ+CiAgICAgICAgIDx0aWZmOlBob3RvbWV0cmljSW50ZXJwcmV0YXRpb24+MjwvdGlmZjpQaG90b21ldHJpY0ludGVycHJldGF0aW9uPgogICAgICAgICA8dGlmZjpPcmllbnRhdGlvbj4xPC90aWZmOk9yaWVudGF0aW9uPgogICAgICAgICA8ZXhpZjpQaXhlbFhEaW1lbnNpb24+MTAzPC9leGlmOlBpeGVsWERpbWVuc2lvbj4KICAgICAgICAgPGV4aWY6VXNlckNvbW1lbnQ+U2NyZWVuc2hvdDwvZXhpZjpVc2VyQ29tbWVudD4KICAgICAgICAgPGV4aWY6UGl4ZWxZRGltZW5zaW9uPjE1MDwvZXhpZjpQaXhlbFlEaW1lbnNpb24+CiAgICAgIDwvcmRmOkRlc2NyaXB0aW9uPgogICA8L3JkZjpSREY+CjwveDp4bXBtZXRhPgpbvTrvAAAS7ElEQVR4Ae2dB5QURRPHe/dO5QyYA08xR3xmQcEsBkwoihGzImB8KmZ9mB/mrKgoKmYReQZQFLMYMPsUc1YQMGBE4Ha++tVdj3P77e3d7c329N1O7dud2emeDvXv6u6p6q7J/Pnnn4GQyeVyRg4mkE/GyJE/9RQ9t9fSY8s4kMnA1TriHO5m+MjlbDYrx4weiWH/V9fW1ioQ8803n6mqqtJIdUmkv+XmAI0e/v/777/KdwDLCkgICgBVZ+SnRoCJIlvuQqXp13EAnldXV6tQzBKAaufWGlOVVWAUoA4pMIm3FUACBwCprc2ZXP2QIlL0X1+YeCkruADgUFPTQQCqNTnp6lRyKpgf3lWdMZ9xyH6rvSthBRcI6cnlZLacyekcIFvBvPCy6rlAHmmkZAw7KTi+QUS3xjOnfFJwPAOnfqKmioAUHO/A+W9CkILjGTgqMnU/abfmGzbR8qSSE+WGZ+cpOJ4BEi1OCk6UGx6doyVIwfEIkPyieK+++fzzz80bb7xh3n77bfPJJ58Y7E6vvfaa+eOPP0zXrl3NpEmTzEILLWS6d+9uZs2aZdZcc02z4YYbmm7duplVVlklv75t6n9mzpw5aAu8ogkTJhi+9957r5l//vnNPvvsYxZddFGzxhprKPNramrMggsuaBZYYAHz119/GbHmmn/++cd8/PHH+v3tt9/MAw88oNf69etntttuO7PNNtt4VcfGCjPj559NdRU2HrGO+gKOlMNcffXV5tprrzVrr722OfLII1Uall122cbq0eT177//3kycONEMHz7cTJ482Rx//PHmpJNOUuNWkzcnFCEKjhdjzkUXXWQWXnhhZRrd1JNPPmn69u1rWgMMvF1uueVU6saPH69dI1pfpG3o0KEJsb5l2SYKzn333Wc6duyoXdbff/+trXqZZZZpWQ2aGbtTp05m8ODBOi7RJdJNPvjgg828O5loiXVrAwYMMAByyy23iAWwxnntGacoA5OJYcOGOc+/sQwT7dbotmi5++23nxk5cmQiwMAYynDPPfeYvffeW7vUN998szF+JXbd6VR69OjRZuzYseZnmZEwJfaBevbsaaZMmWKOOeYY06dPH9O7d28fiqVlcAbOE088oX38/fff703lbUGYro8YMcLstdde2mh23HFHG5To0Qk4SAtdiI/ARLn/8MMPm/33318XWPTq1SsalMh52cGhwg899JD3wFjuM4NkGs8qzN13391eTuRY1qk0g+y4cePaDDAWgVGjRpkxY8aoysheS+JY1qk0MyKfBv+WMBi1EA/BqIJckpOpNM8Qjz76qDezspYyGE0C3fGgQYNaemts8cvSrdFvo4jcdtttYytoEgltv/32ZubMmQpSEvmXpVtDJfPTTz8l9oAZJyMxTaywwgrml19+iTPZRtMqa7d28cUXq2IxCZVMozVuRQDqnXPPPddccsklrUiltFtjlRzU/kgNXVp7o3nmmcfMnj277PuYyiY52GOQnPZImBmuuuoqp1WLVXI6d+6sZuNyqf2dciYvMwx3W2yxhfnqq6/yQuL9WxbJwazcpUsX0x6Bgf0Y7lZddVXzwgsvxItGkdRim0o/++yzpn///kWyavtBmM6feeYZZxWJrVtbccUVzSuvvNJq07KzmpeQ0TfffKPPbl988UUJdzfvlti7NZYvoXZvrc2/ecVPLhbPO2xB//rrr50UIpZujXVlLF+qBMKCS31dUCzgsOCPBROVQIsssogzbXUs4LCYjwV/lUDUk5WnLigWcDp06KArMV0UOOk81lprLTPvvPM6KUYs4LB2ub3o0priOhOfV199talosYTHAg5rwDCsVQKhCEVT7YJiAWfjjTfWZa4uCpx0HjTCjTbayEkxYgGHtQKYdSuBkBpmpy4oFnBoTXRtlUCAQ9fmgmIBp0ePHu3ShlMIANZ3b7rppoWCYr8WCzh241LspfMwQZ7pMLq5oFjAYasfha4Eop7U1wXFAg57MFmlUglEPTfYYAMnVY0FHDbHshyqEoj13ptssomTqsYCDruWWVuMKbc9kzUVYDpwQbGAQ0EPOOAAZ2oNF4wplAdqKnYhuKLYwGE7+a233uqq3InkwxZJVoG6otjAYZ8/Mxl2ibVH+u6773TlDStwXFFs4FBg9vmzSao9Eg4rqJ9Lim2BB4XG9TsqdSYH7Y1Y8cmK1nJT7As8bIHxi3zeeeeZG264wV5qF8drrrnG4MjCNcUqObbwrCegj24PNh42T6222mpm+vTptnplPZZNcmypb775ZnXAYP+35SObwKhPEhTrhMBWgGVSqNVdro60ecd5xAfPEkssYfbcc884k212WmXp1mzuOBtias0koa3R77//bljF6mrTlOVP2bs1mxHrp/GM0RaJafPzzz+faNHL0q3ZGmFr32OPPXRfv73WFo6UGZ846667bqLFLbuTCBwtsK6NZay+e/AAiX333dcce+yx6t0wUWQk87KDQwXxJcPLevAtg0cPX4mGdNxxx3kBDDwqa7cWBWGnnXYyBx98sDnssMO8W6nD4H/ooYeao446yhtg4J0TybEg0TLZIcZWERwwuNTw2jLkH5966ik1dzB5WW+99fKDE/3vTHJsLZkk8NT9yCOPKFNcrZ60+dsjZWB8wcsILmB8A4ZyOgfHMufGG29U53NYFfGI65LQlaGSARyf9YCJgQMYTFd5yGMtGCv3L7/88rKZutH14ejB+hNAV5bUk39zG2Ki4NhCnn766WpmYEsfxiysqjjtZg9mawibP9N3fPBsueWW6iQJtf8pp5zSmmSd3VtW9U2ptWA7OXo5VvQAGN0PO8rYuMT+GNRB6O7QejNm8UX6sMTyZfkSoPCyBtY2MPFwacEstd7cF1XfeAlOtHK0/ui7DOj+2B8DIEwuWFQOUCyRZSUmC/5YV8byJVerZKLlbe15mwKntZVta/dHwfFizGlrDHRV3hQcV5wuIZ8UnBKY5uqWFBxXnC4hnxScEpjm6pYUHFecLiGfFJwSmObqlhQcV5wuIZ8UnBKY5uqWFBxXnC4hnxScEpjm6pYUHFecLiGfFJwSmObqlhQcV5wuIZ8UnBKY5uqWFBxXnC4hnxScEpjm6pYUHFecLiGfFJwSmObqluokNqK6qlxbzGfAwIFhsb1ffROWtEJO0gUebQTodMzxGKgUnBQcjzngcdFSyUnB8ZgDHhctlZwUHI854HHRUslJEJzHH3+86CvGGoDDJla25UW/bFG/8MILzYwZM5pdDV4aftddd5W8pb1QOfBdzbZE/Bm0B6IebP3/7LPPGq1OA3BsrGHDhukOMTYt9evXz4wePdpsttlm5tNPP7VRih55VeMRRxyhu5SLRmwi8Morr9Q833rrLX0H6RlnnGGGDBnSxF1tI5gdeGwA6969e+MFlj2Sgf3KJtZAYgaPPfZYeI0wkYRg9dVXD2T7X3hdRDKQ9+YEsqssWGeddYLbbrtNw2S7X7DUUktpOuJzIDj88MP1ukheIL7LAq4RLptlgx9++CFMz5aBY2PlOOSQQ4KVV15Z7yE/2TsayLuwNT0BTa/LlsWgd+/eWq7NN988EF9pDfJ48cUXA/Fto+GyAy646aabGoSPGDEi4D7qJW6KA2FiGP7BBx9onoTBjyuuuCKQ3XQaXiwsWjd7LgKg5bb/7XHK1KlS/xmBbGQO8FsZZt4YU4hz5plnKmM5F8lQ5h944IGBbKxVAAD19ddf1zDpBjUcxrz88suaPsBQKXFvrAwDpF133TXMuznloHHAFOLCGPKkYci2+WDSpEnBhx9+qHnsvPPOgTiCDU4++WSNc+edd+o9kydP1vBevXoFd999d3DCCSdoOOekOWrUKP0vG3qDkSNHauMjPxgFCJSZtJ9++mltFLYhFwuL1it6DvDwL3qN85LAobIUZtq0afqdOHFiIG//0MRls6xW+rrrrtP/tF7iAqLNXPZuNvgvb4DXe2x49JjfSMSJQwCDSVNcbWmaFpwff/wxzEN2ZatkSXcRXkNykRDSJxwGy4beMJyGRFqEyz7SQFyshGGkTZ5jxowJxG+cniNZtqzUSXZ8Fw2zcaNHwKT3oKFGr3MeBafZ7lUYpCF2MDNhECnQV9CzHZ0wu6NZIxX4YSMtY9f111+vvgeE2QViNby02267Nbgg3Y05//zzw2vCaLPkkkuG/9m8u/XWW6uXKnuxZ8+e5vbbbzezZs3Szb077LBDA+d8p512mkadO3euEcnXL+dReu+998wuu+yiW/Dx3YNzJZwt9enTxyy99NIale35jYVF0+KcMVkaefHxRuIVnBDkJ8Z/BmV2KAMM76CW7kT91wDS+uuvX+iWBtf69u1rBg0aZKZOnaoeAJvzJg0ZYxRQXLEwgD733HMN3g2X/0pIXCbnX7P/catMeHV14fYorVbLK92YWX755cMvDO/atauGiQTp9nu23eNdisYBoFCxMI0Q+ZFeRxs3eRWlqFjldyc2THwCqEhLK1MxpK+me7CDId2IZBKIhwwNt92aHUwZ+Am3fT/pigVWr9k8osfGyhGNQ1dkJwf2+oknnqhjkIAQdheMH3acGjx4cCB+DMLumPsE+EAkQeMTxthq0+MoW+0DulV5J10gXkDCOjPBgQcDBw4sGhZNy55LowvEe0mDfGxYtFsrKDm8IE8GPfWigWM4xHerrbYyZ599tgLdqVMndYMybtw4I7MUdYUVbQErrbSS/h0+fLi6mKelQTx0ffTRR9otDB06VK/F+YM/N8qDh4533nnH3HHHHeayyy5Td13kQ7hMCow0LvPuu+/qsxh1k7FFi4GUyOxP7yMePnnw8ymTDYM/hM6dO5tzzjlH3TLT1eGMokuXLkXDCtUPvtH9NkkWMY62xcpN2qo5Ml0dItNUWoqNy6SA6zYegzSt89JLLw3jHH300RoufbxeY/bDbI17aHG0aM5tmtGjLUf+lD4aR56B/k9yCBevH1oW0iY/pMVKOOHMLimrLTu9ABMawohHuWw5OQpAYRllvAzDuJ/Jg51cFAuLllseOjVvaTxhutHwqOS0ag0BkwC8sDfm/VYyNZlMJuzneSrGEdHiiy+u16WCZaNff/1VXbKQfyEivGPHjlr+/HDcsuDma7HFFlP3LvnhhOH5t9D4VSyMdHgnAr2RNMCCeUfXELQKnPxCp/+b5oD0KAoMzgALURScwlOXQnel12LhAB6sGLuaQ6nkNIdLDuNEJafgbM1hWdKsinAgBacIc5IO8mrMYZbE8wTE80VjMy2NUAE/3kgOxjmm2Kg0+HLOtNNSKQY83BKjKmmr5AU4uI3EOCcqGVUIohTkSR3d2ksvvaS8LcWAJ5pvI+aAtopN8xWf5awh6hHooIMOMry1iq/orMyECRPUQThaYDzpQqiReOEQhPqEBzrURTgSxxcowELEw08or8fENyjqGggXlKTFAyZab9RUvpIXktOjRw/lDy9IBSg0yBAebUW5qVph+6ZBdFtio9Hws846S7s+US+ZCy64QBdLWODQA+KsFVU+Eom/zy+//FJV/9yMKZ4XF4nxTPVxmqBvP1G9TpLn4nw71Fuh00JzK2sYQv2T1XS3xICH/q9///5hGgKm6tWsLk1sPGqIw2KaZN2jecemW4u7oYll1fBOgfHjxxs8tkNi5lY7EgM7XRVjD/YWSCql9h5sTejsrAGP6xArh+jybFqc8/5sK3nEwRCHhL3//vv8TZy8fQitqanRbgd39t9++60yKjpjy+dcKQY80sg3pmE485G8eM6RbkWddstKmJBH2Ixo0flkpYKBf+zYsSotOPaGsHpix4lS9IWy2HN4+TdjlSW0yHaMs9d8OXoxIejWrZvBMMcLYGUFjRrExCKpR2z+EF0S1BIDHusWeGMhU3U8tgMOZuVTTz1VJwG8AYQXTthuTzPw6Sc6GCV1jpEL45nwJfwyKcCAFS1TSw14TCgwZZOuXaLFMqiosY0JQ3S1TjS/JM7thEDsTYFXWmmMcazmQW3DuMB7DPJJGKbh1tDVlAEPlRBdG++NixLGNruSKHo96XM7IaiurjJegZM0Y3zIPwrO/zdNH0qYlkE5kILjW0NghNShtwWLCn2rQ3ssD+Mj4639ppLjEcp1k526AiFAWdBKKXkOgMNMeV+piI3JyCxVfk0WtXsKULLgKDCCgwKSARjFyGTnyIr6adOmy7PA7BQkxxgBCnyH/+CQrcrKs51IjEgO3+qq+ge9Ogn6b79l2tuVDynpuULKiKQACjjwtZMBjtUsp6Wfy8lH5gomyNkxSI6RRMLU0pPWcQC21qOTESnRrqwenGy2qk5qBBOVHH6InBMEc4FITjaQ7k1m2vyk4LQOiEJ314Oj+MhPFskBJM6RHro2DZQXhyM5AJHJ5GRBQVYkp65rU3BSdAqxt5XX6p5lSKRuVibyUC8gWSRGgLFARcCRLg2JIaLcWAdOXTmi53VX0t+WcsB2ZdzHubBauzSEJARHeA/Z//8DSKM3TizEOYIAAAAASUVORK5CYII=;" parent="1" vertex="1">
          <mxGeometry x="515.36" y="-1499" width="103" height="150" as="geometry" />
        </mxCell>
        <mxCell id="sGmR2cMoliQ0h1fHMsgX-112" value="" style="shape=image;verticalLabelPosition=bottom;labelBackgroundColor=default;verticalAlign=top;aspect=fixed;imageAspect=0;image=data:image/png,iVBORw0KGgoAAAANSUhEUgAAAJAAAABnCAYAAADv0csZAAAKp2lDQ1BJQ0MgUHJvZmlsZQAASImVlwdQU+kWgP970xsEAghICb1JbwGkhB66dBCVkAQIJcRAaGJncQVWFBURVBRdFVFwVepaEcW2CCiIdUEWEWVdLIiK5V1gCO6+ee/NO3fO/N+ce/5T/rn/zLkAUKhsoTAFpgKQKsgQBXu50iOjoum4EQABdSAF7ACJzUkXMoOC/AAic+vf5X0f4o3IHePpWP/+/r+KDJeXzgEACkI4jpvOSUX4DKJjHKEoAwDUfsSulZUhnOZ2hOVESIEI909zwiyPTXPcDKPBjE9osBvCcgDgyWy2KAEAMh2x0zM5CUgcsgvCZgIuX4CwEGGn1NQ0LsInEdZHfBAbeTo+I+67OAl/ixkniclmJ0h4tpcZwbvz04Up7Jz/8zj+t6SmiOdy6CJKThR5B0/3jJxZf3Kar4QFcQGBc8znzvjPcKLYO2yOOelu0XPMZbv7SvamBPjNcTzfkyWJk8EKnWNeukfIHIvSgiW54kVuzDlmi+bzipPDJPZEHksSPzcxNGKOM/nhAXOcnhziO+/jJrGLxMGS+nkCL9f5vJ6S3lPTv+uXz5LszUgM9Zb0zp6vnydgzsdMj5TUxuW5e8z7hEn8hRmuklzClCCJPy/FS2JPzwyR7M1APsj5vUGSM0xi+wTNMXAHHsAPeeggDFgAK2AOrDN42RnTjbilCXNE/ITEDDoTuWE8OkvAMVlEtzCzsARg+r7Ofg5v+2fuIaSAn7elvQbAthOBq/O22O0ANL5C0k7O23SR+mTcATgn5IhFmbO2mbuEAUQgjVSoBNSAFtAHxkhtNsABuCDV+oBAEAqiwHLAAYkgFYhAFsgD60EBKAJbwU5QAarAQXAUnACnQBM4Cy6Bq+Am6AK94CEYAMPgJRgH78EUBEE4iALRICVIHdKBjCALiAE5QR6QHxQMRUGxUAIkgMRQHrQRKoJKoQroAFQD/QK1QJeg61A3dB8ahEahN9AnGAWTYTlYFdaFTWEGzIR94VB4GZwAr4Rz4Xx4C1wOV8PH4Ub4EnwT7oUH4JfwBAqgSCgFlAbKGMVAuaECUdGoeJQItQZViCpDVaPqUK2oDtQd1ABqDPURjUXT0HS0MdoB7Y0OQ3PQK9Fr0MXoCvRRdCO6HX0HPYgeR3/FUDAqGCOMPYaFicQkYLIwBZgyzGFMA+YKphczjHmPxWIVsHpYW6w3NgqbhF2FLcbuxdZjL2K7sUPYCRwOp4QzwjniAnFsXAauALcbdxx3AdeDG8Z9wJPw6ngLvCc+Gi/Ab8CX4Y/hz+N78CP4KQKVoEOwJwQSuIQcQgnhEKGVcJswTJgiyhD1iI7EUGIScT2xnFhHvEJ8RHxLIpE0SXakJSQ+aR2pnHSSdI00SPpIliUbkt3IMWQxeQv5CPki+T75LYVC0aW4UKIpGZQtlBrKZcoTygcpmpSJFEuKK7VWqlKqUapH6pU0QVpHmim9XDpXukz6tPRt6TEqgapLdaOyqWuoldQW6j3qhAxNxlwmUCZVpljmmMx1meeyOFldWQ9Zrmy+7EHZy7JDNBRNi+ZG49A20g7RrtCG5bByenIsuSS5IrkTcp1y4/Ky8lby4fLZ8pXy5+QHFFAKugoshRSFEoVTCn0KnxaoLmAu4C3YvKBuQc+CScWFii6KPMVCxXrFXsVPSnQlD6VkpW1KTUqPldHKhspLlLOU9ylfUR5bKLfQYSFnYeHCUwsfqMAqhirBKqtUDqrcUplQVVP1UhWq7la9rDqmpqDmopaktkPtvNqoOk3dSZ2vvkP9gvoLujydSU+hl9Pb6eMaKhreGmKNAxqdGlOaepphmhs06zUfaxG1GFrxWju02rTGtdW1/bXztGu1H+gQdBg6iTq7dDp0JnX1dCN0N+k26T7XU9Rj6eXq1eo90qfoO+uv1K/Wv2uANWAYJBvsNegyhA2tDRMNKw1vG8FGNkZ8o71G3Yswi+wWCRZVL7pnTDZmGmca1xoPmiiY+JlsMGkyeWWqbRptus20w/SrmbVZitkhs4fmsuY+5hvMW83fWBhacCwqLe5aUiw9LddaNlu+tjKy4lnts+q3pln7W2+ybrP+YmNrI7Kpsxm11baNtd1je48hxwhiFDOu2WHsXO3W2p21+2hvY59hf8r+Lwdjh2SHYw7PF+st5i0+tHjIUdOR7XjAccCJ7hTrtN9pwFnDme1c7fzURcuF63LYZYRpwExiHme+cjVzFbk2uE662butdrvojnL3ci907/SQ9QjzqPB44qnpmeBZ6znuZe21yuuiN8bb13ub9z2WKovDqmGN+9j6rPZp9yX7hvhW+D71M/QT+bX6w/4+/tv9HwXoBAgCmgJBICtwe+DjIL2glUG/LsEuCVpSueRZsHlwXnBHCC1kRcixkPehrqEloQ/D9MPEYW3h0uEx4TXhkxHuEaURA5Gmkasjb0YpR/GjmqNx0eHRh6Mnlnos3bl0OMY6piCmb5nesuxl15crL09Zfm6F9Ar2itOxmNiI2GOxn9mB7Gr2RBwrbk/cOMeNs4vzkuvC3cEd5TnySnkj8Y7xpfHPExwTtieMJjonliWO8d34FfzXSd5JVUmTyYHJR5K/pUSk1KfiU2NTWwSygmRBe5paWnZat9BIWCAcWGm/cufKcZGv6HA6lL4svTlDDhmMbon1xT+IBzOdMiszP2SFZ53OlskWZN/KMczZnDOS65n78yr0Ks6qtjyNvPV5g6uZqw+sgdbErWlbq7U2f+3wOq91R9cT1yev/22D2YbSDe82RmxszVfNX5c/9IPXD7UFUgWignubHDZV/Yj+kf9j52bLzbs3fy3kFt4oMisqK/pczCm+8ZP5T+U/fdsSv6WzxKZk31bsVsHWvm3O246WypTmlg5t99/euIO+o3DHu50rdl4vsyqr2kXcJd41UO5X3rxbe/fW3Z8rEit6K10r6/eo7Nm8Z3Ivd2/PPpd9dVWqVUVVn/bz9/cf8DrQWK1bXXYQezDz4LND4Yc6fmb8XHNY+XDR4S9HBEcGjgYfba+xrak5pnKspBauFdeOHo853nXC/URznXHdgXqF+qKT4KT45ItfYn/pO+V7qu0043TdGZ0zexpoDYWNUGNO43hTYtNAc1Rzd4tPS1urQ2vDrya/HjmrcbbynPy5kvPE8/nnv13IvTBxUXhx7FLCpaG2FW0PL0devtu+pL3ziu+Va1c9r17uYHZcuOZ47ex1++stNxg3mm7a3Gy8ZX2r4Tfr3xo6bTobb9vebu6y62rtXtx9vse559Id9ztX77Lu3uwN6O3uC+vrvxdzb6Cf2//8fsr91w8yH0w9XPcI86jwMfVx2ROVJ9W/G/xeP2AzcG7QffDW05CnD4c4Qy//SP/j83D+M8qzshH1kZrnFs/PjnqOdr1Y+mL4pfDl1FjBnzJ/7nml/+rMXy5/3RqPHB9+LXr97U3xW6W3R95ZvWubCJp48j71/dRk4QelD0c/Mj52fIr4NDKV9Rn3ufyLwZfWr75fH31L/fZNyBaxZ0YBFKJwfDwAb44AQIkCgNYFAHHp7Dw9I9DsP8AMgf/EszP3jNgAUIMs02OXvwsAe6dnkHUAUBEOQjTUBcCWlhKdm31n5vRpoR4HYH+Lha9NyP3gdvBPmZ3hv6v7nyuYjmoF/rn+C56vBXOZw6n3AAAAemVYSWZNTQAqAAAACAAEAQYAAwAAAAEAAgAAARIAAwAAAAEAAQAAASgAAwAAAAEAAgAAh2kABAAAAAEAAAA+AAAAAAADkoYABwAAABIAAABooAIABAAAAAEAAACQoAMABAAAAAEAAABnAAAAAEFTQ0lJAAAAU2NyZWVuc2hvdL84lboAAALvaVRYdFhNTDpjb20uYWRvYmUueG1wAAAAAAA8eDp4bXBtZXRhIHhtbG5zOng9ImFkb2JlOm5zOm1ldGEvIiB4OnhtcHRrPSJYTVAgQ29yZSA2LjAuMCI+CiAgIDxyZGY6UkRGIHhtbG5zOnJkZj0iaHR0cDovL3d3dy53My5vcmcvMTk5OS8wMi8yMi1yZGYtc3ludGF4LW5zIyI+CiAgICAgIDxyZGY6RGVzY3JpcHRpb24gcmRmOmFib3V0PSIiCiAgICAgICAgICAgIHhtbG5zOnRpZmY9Imh0dHA6Ly9ucy5hZG9iZS5jb20vdGlmZi8xLjAvIgogICAgICAgICAgICB4bWxuczpleGlmPSJodHRwOi8vbnMuYWRvYmUuY29tL2V4aWYvMS4wLyI+CiAgICAgICAgIDx0aWZmOkNvbXByZXNzaW9uPjE8L3RpZmY6Q29tcHJlc3Npb24+CiAgICAgICAgIDx0aWZmOlJlc29sdXRpb25Vbml0PjI8L3RpZmY6UmVzb2x1dGlvblVuaXQ+CiAgICAgICAgIDx0aWZmOlBob3RvbWV0cmljSW50ZXJwcmV0YXRpb24+MjwvdGlmZjpQaG90b21ldHJpY0ludGVycHJldGF0aW9uPgogICAgICAgICA8dGlmZjpPcmllbnRhdGlvbj4xPC90aWZmOk9yaWVudGF0aW9uPgogICAgICAgICA8ZXhpZjpQaXhlbFhEaW1lbnNpb24+MTQ0PC9leGlmOlBpeGVsWERpbWVuc2lvbj4KICAgICAgICAgPGV4aWY6VXNlckNvbW1lbnQ+U2NyZWVuc2hvdDwvZXhpZjpVc2VyQ29tbWVudD4KICAgICAgICAgPGV4aWY6UGl4ZWxZRGltZW5zaW9uPjEwMzwvZXhpZjpQaXhlbFlEaW1lbnNpb24+CiAgICAgIDwvcmRmOkRlc2NyaXB0aW9uPgogICA8L3JkZjpSREY+CjwveDp4bXBtZXRhPgosTk9aAAAKKElEQVR4Ae2ceahNXxTH1z334lH+MJMhSYZkKkPmEv6QkPxj+IcylUj4g/xBEVHIUCQi/kHIEImIUIbIFP8gwu9575nzeLhn/9Z33buP/XiXs+Xpened1zlnnX32OsN3f+7aa+/LTZSXl5swDMkYQ5k9keG/BPGey+zi2rZM9zVLgUQCrZ5ZYKP1E/jj4iAIeJ+QPWrY41Sa4QnTaYGlTp06lEwmpWLmMrotdAUQONLMR0VFhXABqAIGCcEGEKXSX9MUJAOqy/C4BBa6cPr+GQXARCqVksDyiSECL8S8AB6BCJsihUd5+YUCAAmcgJd0mnutbHoT1K1bpJHnF+Lp6YwCgAi8hGFa0h6JQMh5dFEF4ioAXpAX2TWleU9c6bQeFAAvYcij9EQodqCyqAK+CoSGp33YCWmQAuSrntYXcnjyUOYLFSAFwluB7ABMJpsVIG/51MEm0NgrQMqDvwLyjUfmaw8FyF8+9XAUUIAcMdT0V0AB8tdMPRwFFCBHDDX9FNAk2k8vrV2FAqkqyn6rqFatWr/lp07Vp8CXL1+q7+LZK/8xgP7Gw1a7GnoDbwU0B/KWTB1cBRQgVw21vRVQgLwlUwdXAQXIVUNtbwUUIG/J1MFVQAFy1VDbWwEFyFsydXAVUIBcNdT2VkAB8pZMHVwFFCBXDbW9FVCAvCVTB1cBBchVQ21vBRQgb8nUwVVAAXLVUNtbAQXIWzJ1cBVQgFw11PZWQAHylkwdXAUUIFcNtb0VUIC8JVMHVwEFyFVDbW8FFCBvydTBVUABctVQ21sBBchbMnVwFVCAXDXU9lZAAfKWTB1cBRQgVw21vRVQgLwlUwdXAQXIVUNtbwX+2I8r6K9zeGtf7Q5/4wcv/hhAf+Nhq11xvYG3AtqFeUumDq4CCpCrhtreCihA3pKpg6uAAuSqoba3AgqQt2Tq4CqgALlqqO2tgALkLZk6uAooQK4aansroAB5S6YOrgIKkKuG2t4KKEDekqmDq4AC5KqhtrcCCpC3ZOrgKqAAuWqo7a2AAuQtmTq4CihArhpqeyugAHlLpg6uAgqQq4ba3gooQN6SqYOrQGrFihXusdqqwC8VmDFzZlQnwf8Y3kRHaqgCMRQoe/mSUskUJZMBaRcWQzCtklsBBSi3NnomhgIKUAyRtEpuBRSg3NromRgKKEAxRNIquRVQgHJro2diKKAAxRBJq+RWQAHKrY2eiaGAAhRDJPzyyL1796ikpCRG7cKqkpcALV68mPB7Q3bt2LEjzZgxg44fP+7VOidPnqRLly55+biVKyoqaMGCBVSvXj3q1q0btWzZUvbXr1+Pqt2+fZsOHDgQHReakZcAoRE6dOhA9+/fp7t379KGDRuoSZMmNGbMGFq2bBkZE+/bl/Xr19OePXt+u03XrFlDO3bsoNOnT9ObN2/o0aNH1K9fPxo2bJgc48KAGpAV7ILvwvJtXbhwoenZs+cPz7V582aQY27duiXnysrKDEcm06pVK9O0aVMzbtw48+zZMznXv39/qYv67dq1M1evXpXyY8eOmV69epn69eubrl27mu3bt/9wH6vHiBEjzMiRIyudf/v2rWFoDHdnZv78+XIde4+tW7dK3cePH5spU6bIM3Xu3NngfT58+BBdB2UMtxk4cKA8I6758eNHw5HX8AdHnnfOnDkG5fZZ8mn/X3GxKS0tM69evTKUTw9mnyUXQK9fvxbBd+3aJcICHoCwbds2g8YDSKNGjZJzaGQ0FEcLc+jQIWnwBw8eiP/kyZPN3r17zdSpU+X48uXLVTbU8uXL5TwalqPhD3WuXLliJkyYIM+Ae6AOGh3wAwTAuXbtWjmPe9n3A3BY582bZ/AugGfu3LlSj6Ot2bJli9h4TuuTT/t/FiCIiGiCTz5szkUMoLDi4lMNoOwx4Jk2bVp0jKjBOZE0GOqUl5dL/Y0bN0Z1rC/2aNjp06dLY6PBAeiSJUsMIoytB8hQbo8BLupy0h2VARKU4f6oBxvAWB/7weDuNioDkK6PrZsPexegP/Ybifyy1b4g9yktLaVGjRrJvTp16kQHDx6kTZs2EYdT4ob66TM0aNCAGDBat24dMQSSx7x//54YpCr9UqkUcbdJS5cupVOnThE3KjEwtHPnTrp27Vr0HK7zzZs3iYGi9u3bR8VDhgwR+86dOzRo0CCxuRuNziPPw8IRi86cOSN2cXGx7F0fKcizTd4m0VXp9OTJE0KD9+jRQ06PHz+eZs2aRRC7bdu2xF1HVW5R2cWLF4nzHtq/f7+AZK8TVchhIIGfOHGi+B0+fJiePn1KZ8+erbI2Rm61a9eudM7+gu3nz5+j8kQiEdmfPn0Sm7tcatOmjay9e/cm7vaoWbNmUb18NP6ZCPT161eaPXu2aAhQMCeDERCiDhoXCxruxo0bYtsNGtQuiCCIDpzzEBoQDbdo0SJ7utI+DEMaPHiwNCIa0i59+vSxZrR3wejevTs9fPhQIiXAw2KH/V26dIl8XMOWc/5Gw4cPl1N43+fPn1Pz5s3dqnln5y1AnIxKt4GGRBg/cuSIzOkcPXqUGjduTLbReFQlEQkTfatWraokMLq4ffv20blz5wif6BYtWkj0OHHiBLVu3ZowTM+1BEFAgAFDdHRlAwYMIM5VZBoBPoALC6YbADMn5TR06FDi0Z9AOmnSJKn77t07iZI8ossJA96HR3vE+RZxAi3zTZiCwIfjxYsX1LBhQ7lXXm7yISn7/hkwCmOxohWJM0YxSFDdurt375YkGHWRyFo/WwejJPji/IULFySJRWJtr42hMkZLq1evrnRd648RFYbjtr69z/nz56P6SIDtlMHKlSulnKOg6du3b+Q3evRoHvaWRj64jpsw436Ykhg7dmzkg+fmvCvysc+UD3ubROPd//l/E40IhQQaibWbV3AjyYLEG91YUVGRLZI8KplMygxzVPgTA/6YREQSnisnQXeILhSRyy489yOz6d/nRPZ8VXtEVvjhXvm62H8TnUol6Z8HKF9FrsnP5QL07eNSk99Y363aFFCAqk3aGnxhZGqSohIFcb+YrMFy6Kt5KABekGvaNeCs3sNdqxa6AuDFzoEiEAVveZ5Co1ChYxHv/cEJeAFBCR5t8pYCbDBppxDFE7FQawk8zEkGGsAjHPG0Bf//5i88bV5SUsrzJZ8VpEIlJMd7AxxwAT7ACXgJOOxgvgtrKomJL66EJROJwuhS2eLoWI3CUcDmOXjjRIJhYXDAClabQGOf4hCUUYUPQv7jHJtMmAFKhmrfvjQuHPUK/U25+QEHloQkORxxsgCBF4k+PJMvEQgbgAKHkEkLDUegwEhQkrxIARIhC2qTBUgY4k2ACASQYCMKoRuTk4SfeeHvM9LoxQBRyL/3EnAEynRjApCkSwUln75sNqBAiMxoi2NKtusKEHkYHguT5EAIMhmAuPti+gwqZ8twESwZmDK2bmumArbbwtvBRiKDUReCTQSQ9Fjfjv8HJjXyjCHXskQAAAAASUVORK5CYII=;" parent="1" vertex="1">
          <mxGeometry x="701.86" y="-1536.1399999999999" width="103.85" height="74.28" as="geometry" />
        </mxCell>
        <mxCell id="sGmR2cMoliQ0h1fHMsgX-113" value="" style="shape=image;verticalLabelPosition=bottom;labelBackgroundColor=default;verticalAlign=top;aspect=fixed;imageAspect=0;image=data:image/png,iVBORw0KGgoAAAANSUhEUgAAAJAAAABlCAYAAACiGWoSAAAKp2lDQ1BJQ0MgUHJvZmlsZQAASImVlwdQU+kWgP970xsEAghICb1JbwGkhB66dBCVkAQIJcRAaGJncQVWFBURVBRdFVFwVepaEcW2CCiIdUEWEWVdLIiK5V1gCO6+ee/NO3fO/N+ce/5T/rn/zLkAUKhsoTAFpgKQKsgQBXu50iOjoum4EQABdSAF7ACJzUkXMoOC/AAic+vf5X0f4o3IHePpWP/+/r+KDJeXzgEACkI4jpvOSUX4DKJjHKEoAwDUfsSulZUhnOZ2hOVESIEI909zwiyPTXPcDKPBjE9osBvCcgDgyWy2KAEAMh2x0zM5CUgcsgvCZgIuX4CwEGGn1NQ0LsInEdZHfBAbeTo+I+67OAl/ixkniclmJ0h4tpcZwbvz04Up7Jz/8zj+t6SmiOdy6CJKThR5B0/3jJxZf3Kar4QFcQGBc8znzvjPcKLYO2yOOelu0XPMZbv7SvamBPjNcTzfkyWJk8EKnWNeukfIHIvSgiW54kVuzDlmi+bzipPDJPZEHksSPzcxNGKOM/nhAXOcnhziO+/jJrGLxMGS+nkCL9f5vJ6S3lPTv+uXz5LszUgM9Zb0zp6vnydgzsdMj5TUxuW5e8z7hEn8hRmuklzClCCJPy/FS2JPzwyR7M1APsj5vUGSM0xi+wTNMXAHHsAPeeggDFgAK2AOrDN42RnTjbilCXNE/ITEDDoTuWE8OkvAMVlEtzCzsARg+r7Ofg5v+2fuIaSAn7elvQbAthOBq/O22O0ANL5C0k7O23SR+mTcATgn5IhFmbO2mbuEAUQgjVSoBNSAFtAHxkhtNsABuCDV+oBAEAqiwHLAAYkgFYhAFsgD60EBKAJbwU5QAarAQXAUnACnQBM4Cy6Bq+Am6AK94CEYAMPgJRgH78EUBEE4iALRICVIHdKBjCALiAE5QR6QHxQMRUGxUAIkgMRQHrQRKoJKoQroAFQD/QK1QJeg61A3dB8ahEahN9AnGAWTYTlYFdaFTWEGzIR94VB4GZwAr4Rz4Xx4C1wOV8PH4Ub4EnwT7oUH4JfwBAqgSCgFlAbKGMVAuaECUdGoeJQItQZViCpDVaPqUK2oDtQd1ABqDPURjUXT0HS0MdoB7Y0OQ3PQK9Fr0MXoCvRRdCO6HX0HPYgeR3/FUDAqGCOMPYaFicQkYLIwBZgyzGFMA+YKphczjHmPxWIVsHpYW6w3NgqbhF2FLcbuxdZjL2K7sUPYCRwOp4QzwjniAnFsXAauALcbdxx3AdeDG8Z9wJPw6ngLvCc+Gi/Ab8CX4Y/hz+N78CP4KQKVoEOwJwQSuIQcQgnhEKGVcJswTJgiyhD1iI7EUGIScT2xnFhHvEJ8RHxLIpE0SXakJSQ+aR2pnHSSdI00SPpIliUbkt3IMWQxeQv5CPki+T75LYVC0aW4UKIpGZQtlBrKZcoTygcpmpSJFEuKK7VWqlKqUapH6pU0QVpHmim9XDpXukz6tPRt6TEqgapLdaOyqWuoldQW6j3qhAxNxlwmUCZVpljmmMx1meeyOFldWQ9Zrmy+7EHZy7JDNBRNi+ZG49A20g7RrtCG5bByenIsuSS5IrkTcp1y4/Ky8lby4fLZ8pXy5+QHFFAKugoshRSFEoVTCn0KnxaoLmAu4C3YvKBuQc+CScWFii6KPMVCxXrFXsVPSnQlD6VkpW1KTUqPldHKhspLlLOU9ylfUR5bKLfQYSFnYeHCUwsfqMAqhirBKqtUDqrcUplQVVP1UhWq7la9rDqmpqDmopaktkPtvNqoOk3dSZ2vvkP9gvoLujydSU+hl9Pb6eMaKhreGmKNAxqdGlOaepphmhs06zUfaxG1GFrxWju02rTGtdW1/bXztGu1H+gQdBg6iTq7dDp0JnX1dCN0N+k26T7XU9Rj6eXq1eo90qfoO+uv1K/Wv2uANWAYJBvsNegyhA2tDRMNKw1vG8FGNkZ8o71G3Yswi+wWCRZVL7pnTDZmGmca1xoPmiiY+JlsMGkyeWWqbRptus20w/SrmbVZitkhs4fmsuY+5hvMW83fWBhacCwqLe5aUiw9LddaNlu+tjKy4lnts+q3pln7W2+ybrP+YmNrI7Kpsxm11baNtd1je48hxwhiFDOu2WHsXO3W2p21+2hvY59hf8r+Lwdjh2SHYw7PF+st5i0+tHjIUdOR7XjAccCJ7hTrtN9pwFnDme1c7fzURcuF63LYZYRpwExiHme+cjVzFbk2uE662butdrvojnL3ci907/SQ9QjzqPB44qnpmeBZ6znuZe21yuuiN8bb13ub9z2WKovDqmGN+9j6rPZp9yX7hvhW+D71M/QT+bX6w/4+/tv9HwXoBAgCmgJBICtwe+DjIL2glUG/LsEuCVpSueRZsHlwXnBHCC1kRcixkPehrqEloQ/D9MPEYW3h0uEx4TXhkxHuEaURA5Gmkasjb0YpR/GjmqNx0eHRh6Mnlnos3bl0OMY6piCmb5nesuxl15crL09Zfm6F9Ar2itOxmNiI2GOxn9mB7Gr2RBwrbk/cOMeNs4vzkuvC3cEd5TnySnkj8Y7xpfHPExwTtieMJjonliWO8d34FfzXSd5JVUmTyYHJR5K/pUSk1KfiU2NTWwSygmRBe5paWnZat9BIWCAcWGm/cufKcZGv6HA6lL4svTlDDhmMbon1xT+IBzOdMiszP2SFZ53OlskWZN/KMczZnDOS65n78yr0Ks6qtjyNvPV5g6uZqw+sgdbErWlbq7U2f+3wOq91R9cT1yev/22D2YbSDe82RmxszVfNX5c/9IPXD7UFUgWignubHDZV/Yj+kf9j52bLzbs3fy3kFt4oMisqK/pczCm+8ZP5T+U/fdsSv6WzxKZk31bsVsHWvm3O246WypTmlg5t99/euIO+o3DHu50rdl4vsyqr2kXcJd41UO5X3rxbe/fW3Z8rEit6K10r6/eo7Nm8Z3Ivd2/PPpd9dVWqVUVVn/bz9/cf8DrQWK1bXXYQezDz4LND4Yc6fmb8XHNY+XDR4S9HBEcGjgYfba+xrak5pnKspBauFdeOHo853nXC/URznXHdgXqF+qKT4KT45ItfYn/pO+V7qu0043TdGZ0zexpoDYWNUGNO43hTYtNAc1Rzd4tPS1urQ2vDrya/HjmrcbbynPy5kvPE8/nnv13IvTBxUXhx7FLCpaG2FW0PL0devtu+pL3ziu+Va1c9r17uYHZcuOZ47ex1++stNxg3mm7a3Gy8ZX2r4Tfr3xo6bTobb9vebu6y62rtXtx9vse559Id9ztX77Lu3uwN6O3uC+vrvxdzb6Cf2//8fsr91w8yH0w9XPcI86jwMfVx2ROVJ9W/G/xeP2AzcG7QffDW05CnD4c4Qy//SP/j83D+M8qzshH1kZrnFs/PjnqOdr1Y+mL4pfDl1FjBnzJ/7nml/+rMXy5/3RqPHB9+LXr97U3xW6W3R95ZvWubCJp48j71/dRk4QelD0c/Mj52fIr4NDKV9Rn3ufyLwZfWr75fH31L/fZNyBaxZ0YBFKJwfDwAb44AQIkCgNYFAHHp7Dw9I9DsP8AMgf/EszP3jNgAUIMs02OXvwsAe6dnkHUAUBEOQjTUBcCWlhKdm31n5vRpoR4HYH+Lha9NyP3gdvBPmZ3hv6v7nyuYjmoF/rn+C56vBXOZw6n3AAAAemVYSWZNTQAqAAAACAAEAQYAAwAAAAEAAgAAARIAAwAAAAEAAQAAASgAAwAAAAEAAgAAh2kABAAAAAEAAAA+AAAAAAADkoYABwAAABIAAABooAIABAAAAAEAAACQoAMABAAAAAEAAABlAAAAAEFTQ0lJAAAAU2NyZWVuc2hvdFKuRlMAAALvaVRYdFhNTDpjb20uYWRvYmUueG1wAAAAAAA8eDp4bXBtZXRhIHhtbG5zOng9ImFkb2JlOm5zOm1ldGEvIiB4OnhtcHRrPSJYTVAgQ29yZSA2LjAuMCI+CiAgIDxyZGY6UkRGIHhtbG5zOnJkZj0iaHR0cDovL3d3dy53My5vcmcvMTk5OS8wMi8yMi1yZGYtc3ludGF4LW5zIyI+CiAgICAgIDxyZGY6RGVzY3JpcHRpb24gcmRmOmFib3V0PSIiCiAgICAgICAgICAgIHhtbG5zOnRpZmY9Imh0dHA6Ly9ucy5hZG9iZS5jb20vdGlmZi8xLjAvIgogICAgICAgICAgICB4bWxuczpleGlmPSJodHRwOi8vbnMuYWRvYmUuY29tL2V4aWYvMS4wLyI+CiAgICAgICAgIDx0aWZmOkNvbXByZXNzaW9uPjE8L3RpZmY6Q29tcHJlc3Npb24+CiAgICAgICAgIDx0aWZmOlJlc29sdXRpb25Vbml0PjI8L3RpZmY6UmVzb2x1dGlvblVuaXQ+CiAgICAgICAgIDx0aWZmOlBob3RvbWV0cmljSW50ZXJwcmV0YXRpb24+MjwvdGlmZjpQaG90b21ldHJpY0ludGVycHJldGF0aW9uPgogICAgICAgICA8dGlmZjpPcmllbnRhdGlvbj4xPC90aWZmOk9yaWVudGF0aW9uPgogICAgICAgICA8ZXhpZjpQaXhlbFhEaW1lbnNpb24+MTQ0PC9leGlmOlBpeGVsWERpbWVuc2lvbj4KICAgICAgICAgPGV4aWY6VXNlckNvbW1lbnQ+U2NyZWVuc2hvdDwvZXhpZjpVc2VyQ29tbWVudD4KICAgICAgICAgPGV4aWY6UGl4ZWxZRGltZW5zaW9uPjEwMTwvZXhpZjpQaXhlbFlEaW1lbnNpb24+CiAgICAgIDwvcmRmOkRlc2NyaXB0aW9uPgogICA8L3JkZjpSREY+CjwveDp4bXBtZXRhPgp04fcvAAAJ3ElEQVR4Ae2da4hN3xvHn3PBUF64k0uSXJJbueQu4YWE5I3LGwo/JRJekBcUEYVcikTEG4RcIhERyiVyizeI8B8z83ONMZi9/s/3ObP2nDEze58zzfxa+5xnT/vstdd61t7P/j6fs/az10x7YqWlpcYQL/xpePU83oul9lFtF7TpktsKxGIIfNqCfQ57PB4jaeN9WMTjcdkHE8kUNF4FPNiij6lgqBIaBShN2BwtpgOEMqIPZDyvEhrAU15e7kOULOdWjysASJMmTSiRSKRoy1GR9LKyUwBcAJiysrLUqMPd4wyXx9wApmT5H6YpEaemDE86gdmdRq1zVQEwkUwmZWD5yRCBF2JeAI9AhI8ChSdX419v1wWQwAl4KS/nuxZyHV7iTZsW6MhTbzLn9oEAEXjxvHJJe2QEQs6jiyqQqQLgBXmRXZOa92QqndpBAfCCqZ5YzJNyXGVRBbJVwDM83cOdkAYpQNmqp/apSWdOpjFfqAApEFkrUPEAlpqVzrq3dsh7BWwCja2OQHmPQx0EkF+ZpX5vpgDVQT/tUqmAAlSphZbqoIACVAfRtEulAgpQpRZaylIBTaKzFEzNqyuQrF5Vt5pGjRrVraP2ajAFfv/+3WDHtgeuN4BwwP/CYeu4bt1QQHMgN+IQWS8UoMiGzg3HFSA34hBZLxSgyIbODccVIDfiEFkvFKDIhs4NxxUgN+IQWS8UoMiGzg3HFSA34hBZLxSgyIbODccVIDfiEFkvFKDIhs4NxxUgN+IQWS8UoMiGzg3HFSA34hBZLxSgyIbODccVIDfiEFkvFKDIhs4NxxUgN+IQWS8UoMiGzg3HFSA34hBZLxSgyIbODccVIDfiEFkvFKDIhs4NxxUgN+IQWS8UoMiGzg3HFSA34hBZLxSgyIbODcfr7eUKY8eOJX1DhxtBtV78Fy+7iPFJUv81w55Vt6pAiAIl//5LyQT+gw//154QW21WBQIVUIAC5dHGMAUUoDCFtD1QAQUoUB5tDFNAAQpTSNsDFVCAAuXRxjAFFKAwhbQ9UAEFKFAebQxTQAEKU0jbAxVQgALl0cYwBRSgMIW0PVABBShQHm0MU0ABClNI2wMVUIAC5dHGMAUUoDCFtD1QAQUoUB5tDFNAAQpTSNsDFVCAAuXRxjAFFKAwhbQ9UIHkhg0bAg20URX4W4GF//zjV+kf1ftSaCFTBfSP6jNVSu1CFdAcKFQiNQhSQAEKUkfbQhVQgEIlUoMgBRSgIHW0LVQBBShUIjUIUkABClJH20IVUIBCJVKDIAUUoCB1KtrwmpRnz55RUVFRBtb5ZeIkQKtXr5Z3DeF9Q1h79uxJCxcupPPnz2cVnYsXL9KtW7ey6pNuXFZWRitWrKBmzZpRv379qGPHjrK9f/++b/b48WM6ceKEv59vBScBQhB69OhBz58/p6dPn9KOHTuoTZs2NHXqVFq3bh0Zk9krjbZv305Hjhypc0y3bNlCBw4coMuXL9Pnz5/p1atXNGzYMBo/frzs48CAGpDl7YIXTLm2rly50gwcOLCaX7t37wY55tGjR9JWUlJieGQynTp1Mm3btjXTp0837969k7bhw4eLLey7detm7t69K/Xnzp0zgwYNMs2bNzd9+/Y1+/fvr3Yeq8fEiRPNpEmTqrR/+fLFMDSGb2dm+fLlchx7jr1794rt69evzdy5c8Wn3r17G1zP9+/f/eOgjuE2I0eOFB9xzNLSUsMjr+Evjvi7ZMkSg3rri0vb/xUWmuLiEvPx40dDLjlmfakNoE+fPonghw4dEmEBD0DYt2+fQfAA0uTJk6UNQUageLQwp06dkoC/ePFC+s+ZM8ccPXrUzJs3T/Zv375dY6DWr18v7Qgsj4bVbO7cuWNmzpwpPuAcsEHQAT9AAJxbt26VdpzLXh+Aw7ps2TKDawE8S5cuFTsebc2ePXukDD9tH5e2kQUIImI0wTcfZc5FDKCw4uJbDaDsPuCZP3++v49Rg3MiCRhsfvz4IfY7d+70bWxfbBHYBQsWSLARcAC6Zs0agxHG2gEy1Nt9gAtbTrr9OkCCOpwfdigDGNvHfjH4duvXAcj0PtbWhW06QPX2kk2+2AZfkPsUFxdTq1at5Fy9evWikydP0q5du4iHU+JABfrQokULYsBo27ZtxBBIHvPt2zdikGrsl0wmiW+btHbtWrp06RJxUImBoYMHD9K9e/d8P9I7P3z4kBgo6t69u189ZswYKT958oRGjRolZb6N+u3I87DwiEVXrlyRcmFhoWzT+0iFYx/OJtE16fTmzRtCwAcMGCDNM2bMoEWLFhHE7tq1K/Gto6Zuft3NmzeJ8x46fvy4gGSP4xvUUkACP2vWLOl3+vRpevv2LV29erVGazy5NW7cuEqbfXvtr1+//PpYLOaXf/78KWW+5VKXLl1kHTx4MPFtj9q1a+fbuViIzAj0588fWrx4sWgIUDAngycgjDoILhYE7sGDB1K2HwioXTCCYHTgnIcQQARu1apVtrnK1vM8Gj16tAQRgbTLkCFDbNHfpoPRv39/evnypYyUAA+Lfezv06eP3ye9YOs5f6MJEyZIE673/fv31L59+3RT58rOAsTJqNw2EEgM42fOnJE5nbNnz1Lr1q3JBo2fqmREwkTfpk2bqgiMW9yxY8fo2rVrhG90hw4dZPS4cOECde7cmfCYXtsSj8cJMOARHbeyESNGEOcqMo2APoALC6YbADMn5TRu3Djipz+BdPbs2WL79etXGSX5ia5WGHA9/LRHnG8RJ9Ay34QpCHw5Pnz4QC1btpRzOfnhQlL2tw94CmOx/BWJM55ikKCm2x4+fFiSYNgikbX9rA2ektAX7Tdu3JAkFom1PTYelfG0tHnz5irHtf3xRIXHcWtvz3P9+nXfHgmwnTLYuHGj1PMoaIYOHer3mzJlCj/2Fvt9cJz0hBnnw5TEtGnT/D7wm/Muv4/1yYWtTaJx7ZH/m2iMUEigkVin5xUcJFmQeOM2VlBQYKskj0okEjLD7FcGFNAfk4hIwmvLSXA7xC0UI5ddeO5HZtL/zolse01bjKzoh3O5uti/iU4mExR5gFwVOZf9Sgeo8uuSy1es19ZgCihADSZtDh8YmZqkqETxTH8xmcNy6KVloQB4Qa5p1zhn9Vl0V9N8VwC82DlQDETxLzxPoaNQvmOR2fWDE/ACgmL8tMmfFMcHJu0UosxEzFcrgYc5SUEDeIQjnrbgfxr2m6fNi4qKeb7kl4KUr4TUct0AB1yAD3ACXuI87GC+C2sygYkvNsKSGok8/1AV1f6+FvJHAZvn4IpjMYaFwQErWG0CjW2Sh6CUKrzj8Q/n2GS8FFDyqFb5S+P8US/fr5TDDziwxCTJ4RGnAiDwIqMPz+Rj+3827+ud02kWNwAAAABJRU5ErkJggg==;" parent="1" vertex="1">
          <mxGeometry x="701.86" y="-1445.9299999999998" width="101" height="70.84" as="geometry" />
        </mxCell>
        <mxCell id="sGmR2cMoliQ0h1fHMsgX-115" value="" style="shape=image;verticalLabelPosition=bottom;labelBackgroundColor=default;verticalAlign=top;aspect=fixed;imageAspect=0;image=data:image/png,iVBORw0KGgoAAAANSUhEUgAAAI8AAABkCAYAAAC/4GPSAAAKp2lDQ1BJQ0MgUHJvZmlsZQAASImVlwdQU+kWgP970xsEAghICb1JbwGkhB66dBCVkAQIJcRAaGJncQVWFBURVBRdFVFwVepaEcW2CCiIdUEWEWVdLIiK5V1gCO6+ee/NO3fO/N+ce/5T/rn/zLkAUKhsoTAFpgKQKsgQBXu50iOjoum4EQABdSAF7ACJzUkXMoOC/AAic+vf5X0f4o3IHePpWP/+/r+KDJeXzgEACkI4jpvOSUX4DKJjHKEoAwDUfsSulZUhnOZ2hOVESIEI909zwiyPTXPcDKPBjE9osBvCcgDgyWy2KAEAMh2x0zM5CUgcsgvCZgIuX4CwEGGn1NQ0LsInEdZHfBAbeTo+I+67OAl/ixkniclmJ0h4tpcZwbvz04Up7Jz/8zj+t6SmiOdy6CJKThR5B0/3jJxZf3Kar4QFcQGBc8znzvjPcKLYO2yOOelu0XPMZbv7SvamBPjNcTzfkyWJk8EKnWNeukfIHIvSgiW54kVuzDlmi+bzipPDJPZEHksSPzcxNGKOM/nhAXOcnhziO+/jJrGLxMGS+nkCL9f5vJ6S3lPTv+uXz5LszUgM9Zb0zp6vnydgzsdMj5TUxuW5e8z7hEn8hRmuklzClCCJPy/FS2JPzwyR7M1APsj5vUGSM0xi+wTNMXAHHsAPeeggDFgAK2AOrDN42RnTjbilCXNE/ITEDDoTuWE8OkvAMVlEtzCzsARg+r7Ofg5v+2fuIaSAn7elvQbAthOBq/O22O0ANL5C0k7O23SR+mTcATgn5IhFmbO2mbuEAUQgjVSoBNSAFtAHxkhtNsABuCDV+oBAEAqiwHLAAYkgFYhAFsgD60EBKAJbwU5QAarAQXAUnACnQBM4Cy6Bq+Am6AK94CEYAMPgJRgH78EUBEE4iALRICVIHdKBjCALiAE5QR6QHxQMRUGxUAIkgMRQHrQRKoJKoQroAFQD/QK1QJeg61A3dB8ahEahN9AnGAWTYTlYFdaFTWEGzIR94VB4GZwAr4Rz4Xx4C1wOV8PH4Ub4EnwT7oUH4JfwBAqgSCgFlAbKGMVAuaECUdGoeJQItQZViCpDVaPqUK2oDtQd1ABqDPURjUXT0HS0MdoB7Y0OQ3PQK9Fr0MXoCvRRdCO6HX0HPYgeR3/FUDAqGCOMPYaFicQkYLIwBZgyzGFMA+YKphczjHmPxWIVsHpYW6w3NgqbhF2FLcbuxdZjL2K7sUPYCRwOp4QzwjniAnFsXAauALcbdxx3AdeDG8Z9wJPw6ngLvCc+Gi/Ab8CX4Y/hz+N78CP4KQKVoEOwJwQSuIQcQgnhEKGVcJswTJgiyhD1iI7EUGIScT2xnFhHvEJ8RHxLIpE0SXakJSQ+aR2pnHSSdI00SPpIliUbkt3IMWQxeQv5CPki+T75LYVC0aW4UKIpGZQtlBrKZcoTygcpmpSJFEuKK7VWqlKqUapH6pU0QVpHmim9XDpXukz6tPRt6TEqgapLdaOyqWuoldQW6j3qhAxNxlwmUCZVpljmmMx1meeyOFldWQ9Zrmy+7EHZy7JDNBRNi+ZG49A20g7RrtCG5bByenIsuSS5IrkTcp1y4/Ky8lby4fLZ8pXy5+QHFFAKugoshRSFEoVTCn0KnxaoLmAu4C3YvKBuQc+CScWFii6KPMVCxXrFXsVPSnQlD6VkpW1KTUqPldHKhspLlLOU9ylfUR5bKLfQYSFnYeHCUwsfqMAqhirBKqtUDqrcUplQVVP1UhWq7la9rDqmpqDmopaktkPtvNqoOk3dSZ2vvkP9gvoLujydSU+hl9Pb6eMaKhreGmKNAxqdGlOaepphmhs06zUfaxG1GFrxWju02rTGtdW1/bXztGu1H+gQdBg6iTq7dDp0JnX1dCN0N+k26T7XU9Rj6eXq1eo90qfoO+uv1K/Wv2uANWAYJBvsNegyhA2tDRMNKw1vG8FGNkZ8o71G3Yswi+wWCRZVL7pnTDZmGmca1xoPmiiY+JlsMGkyeWWqbRptus20w/SrmbVZitkhs4fmsuY+5hvMW83fWBhacCwqLe5aUiw9LddaNlu+tjKy4lnts+q3pln7W2+ybrP+YmNrI7Kpsxm11baNtd1je48hxwhiFDOu2WHsXO3W2p21+2hvY59hf8r+Lwdjh2SHYw7PF+st5i0+tHjIUdOR7XjAccCJ7hTrtN9pwFnDme1c7fzURcuF63LYZYRpwExiHme+cjVzFbk2uE662butdrvojnL3ci907/SQ9QjzqPB44qnpmeBZ6znuZe21yuuiN8bb13ub9z2WKovDqmGN+9j6rPZp9yX7hvhW+D71M/QT+bX6w/4+/tv9HwXoBAgCmgJBICtwe+DjIL2glUG/LsEuCVpSueRZsHlwXnBHCC1kRcixkPehrqEloQ/D9MPEYW3h0uEx4TXhkxHuEaURA5Gmkasjb0YpR/GjmqNx0eHRh6Mnlnos3bl0OMY6piCmb5nesuxl15crL09Zfm6F9Ar2itOxmNiI2GOxn9mB7Gr2RBwrbk/cOMeNs4vzkuvC3cEd5TnySnkj8Y7xpfHPExwTtieMJjonliWO8d34FfzXSd5JVUmTyYHJR5K/pUSk1KfiU2NTWwSygmRBe5paWnZat9BIWCAcWGm/cufKcZGv6HA6lL4svTlDDhmMbon1xT+IBzOdMiszP2SFZ53OlskWZN/KMczZnDOS65n78yr0Ks6qtjyNvPV5g6uZqw+sgdbErWlbq7U2f+3wOq91R9cT1yev/22D2YbSDe82RmxszVfNX5c/9IPXD7UFUgWignubHDZV/Yj+kf9j52bLzbs3fy3kFt4oMisqK/pczCm+8ZP5T+U/fdsSv6WzxKZk31bsVsHWvm3O246WypTmlg5t99/euIO+o3DHu50rdl4vsyqr2kXcJd41UO5X3rxbe/fW3Z8rEit6K10r6/eo7Nm8Z3Ivd2/PPpd9dVWqVUVVn/bz9/cf8DrQWK1bXXYQezDz4LND4Yc6fmb8XHNY+XDR4S9HBEcGjgYfba+xrak5pnKspBauFdeOHo853nXC/URznXHdgXqF+qKT4KT45ItfYn/pO+V7qu0043TdGZ0zexpoDYWNUGNO43hTYtNAc1Rzd4tPS1urQ2vDrya/HjmrcbbynPy5kvPE8/nnv13IvTBxUXhx7FLCpaG2FW0PL0devtu+pL3ziu+Va1c9r17uYHZcuOZ47ex1++stNxg3mm7a3Gy8ZX2r4Tfr3xo6bTobb9vebu6y62rtXtx9vse559Id9ztX77Lu3uwN6O3uC+vrvxdzb6Cf2//8fsr91w8yH0w9XPcI86jwMfVx2ROVJ9W/G/xeP2AzcG7QffDW05CnD4c4Qy//SP/j83D+M8qzshH1kZrnFs/PjnqOdr1Y+mL4pfDl1FjBnzJ/7nml/+rMXy5/3RqPHB9+LXr97U3xW6W3R95ZvWubCJp48j71/dRk4QelD0c/Mj52fIr4NDKV9Rn3ufyLwZfWr75fH31L/fZNyBaxZ0YBFKJwfDwAb44AQIkCgNYFAHHp7Dw9I9DsP8AMgf/EszP3jNgAUIMs02OXvwsAe6dnkHUAUBEOQjTUBcCWlhKdm31n5vRpoR4HYH+Lha9NyP3gdvBPmZ3hv6v7nyuYjmoF/rn+C56vBXOZw6n3AAAAemVYSWZNTQAqAAAACAAEAQYAAwAAAAEAAgAAARIAAwAAAAEAAQAAASgAAwAAAAEAAgAAh2kABAAAAAEAAAA+AAAAAAADkoYABwAAABIAAABooAIABAAAAAEAAACPoAMABAAAAAEAAABkAAAAAEFTQ0lJAAAAU2NyZWVuc2hvdE8rJHIAAALvaVRYdFhNTDpjb20uYWRvYmUueG1wAAAAAAA8eDp4bXBtZXRhIHhtbG5zOng9ImFkb2JlOm5zOm1ldGEvIiB4OnhtcHRrPSJYTVAgQ29yZSA2LjAuMCI+CiAgIDxyZGY6UkRGIHhtbG5zOnJkZj0iaHR0cDovL3d3dy53My5vcmcvMTk5OS8wMi8yMi1yZGYtc3ludGF4LW5zIyI+CiAgICAgIDxyZGY6RGVzY3JpcHRpb24gcmRmOmFib3V0PSIiCiAgICAgICAgICAgIHhtbG5zOnRpZmY9Imh0dHA6Ly9ucy5hZG9iZS5jb20vdGlmZi8xLjAvIgogICAgICAgICAgICB4bWxuczpleGlmPSJodHRwOi8vbnMuYWRvYmUuY29tL2V4aWYvMS4wLyI+CiAgICAgICAgIDx0aWZmOkNvbXByZXNzaW9uPjE8L3RpZmY6Q29tcHJlc3Npb24+CiAgICAgICAgIDx0aWZmOlJlc29sdXRpb25Vbml0PjI8L3RpZmY6UmVzb2x1dGlvblVuaXQ+CiAgICAgICAgIDx0aWZmOlBob3RvbWV0cmljSW50ZXJwcmV0YXRpb24+MjwvdGlmZjpQaG90b21ldHJpY0ludGVycHJldGF0aW9uPgogICAgICAgICA8dGlmZjpPcmllbnRhdGlvbj4xPC90aWZmOk9yaWVudGF0aW9uPgogICAgICAgICA8ZXhpZjpQaXhlbFhEaW1lbnNpb24+MTQzPC9leGlmOlBpeGVsWERpbWVuc2lvbj4KICAgICAgICAgPGV4aWY6VXNlckNvbW1lbnQ+U2NyZWVuc2hvdDwvZXhpZjpVc2VyQ29tbWVudD4KICAgICAgICAgPGV4aWY6UGl4ZWxZRGltZW5zaW9uPjEwMDwvZXhpZjpQaXhlbFlEaW1lbnNpb24+CiAgICAgIDwvcmRmOkRlc2NyaXB0aW9uPgogICA8L3JkZjpSREY+CjwveDp4bXBtZXRhPgrgeA7zAAALRElEQVR4Ae1da4xNVxRe985ltGiRVBs/EELrB0GUpFq0IxKPiEdFaKLiLRElVRHNNEQIFSl/JEi8xSviGSEe0YmQej8i3q9oUPWuTo1x7+761tjHmXGn9851OWd31pZz99l7r7332uv7ztprn7m5IoWFhSaRSJAxhkpyIsP/IsQ519nkv7d1mv+/LBCJAPWShHugH8E/ro5Go5xHJIcEyrE4EycRjwtRcnNzKScnR4RKhtDPym4BOI0486OoqEh4AUJFmURwNLH48zhFc6L0DhPHz7zKbjRdf4kFwIlYLCZO5SkTCHwh5gs8TxQMqqbEUa6ksABIBJ6AL/E471bskaLvvFNNPU4Kw2lziQVAIPAlkYhLqBNFjKNJLZCuBcAXxEG4YhrnpGs2lYMFwJdEgk/jkQRF1SRqgYpaIGH41Q53UvJU1HIqjxeAxC8HlTzKhYpbgLkjST1PxW1X6XvYgFnJU+mpkIEB5K8Y/KeKDLpqF7WAWEDJo0TI2AJKnoxNpx2VPMqBjC2g5MnYdNoxli0T5OXlUUFBQbaG03Fe0wI//fQT5efnv+Yo/909Ulxc/OKVz38LpmqtUqUK8VipxLLeHtS8WV+IQwPevXePYjkxPao7hFnoVNWYJ3SQuKOQkscdrEKnqZIndJC4o5CSxx2sQqepkid0kLijkJLHHaxCp6mSJ3SQuKOQkscdrEKnqZIndJC4o5CSxx2sQqepkid0kLijkJLHHaxCp6mSJ3SQuKOQkscdrEKnqZIndJC4o5CSxx2sQqepkid0kLijkJLHHaxCp6mSJ3SQuKOQkscdrEKnqZIndJC4o5CSxx2sQqepkid0kLijkJLHHaxCp6mSJ3SQuKOQkscdrEKnqZIndJC4o1DWfiWjQ4cOhB8dCCIFNW8Qa013Tqd+JSPdRamc+xbQX8lwH8PAV6AxT+AQuKuAksdd7ALXXMkTOATuKqDkcRe7wDVX8gQOgbsKKHncxS5wzZU8gUPgrgJKHnexC1xzJU/gELirgJLHXewC11zJEzgE7iqg5HEXu8A1V/IEDoG7Cih53MUucM2VPIFD4K4CSh53sQtccyVP4BC4q4CSx13sAtc8Nn369MCVUAXcssDIUaNE4az9N5FuLV+1fR0L6BfgX8d62lcsoDGPEiFjCyh5MjaddlTyKAcytoCSJ2PTaUclj3IgYwsoeTI2nXZU8igHMrbA/4I8T548odOnTxNy19LWrVtp+/bt5ap94cIFWr58ebntQTZkRJ62bdvKb/Hgd3FwofzDDz8IgBVZDIxy5cqVinQpJXvz5k3q3r071a5dm1q3bi1579696Y8//vDkdu7cSQcOHPDKYbuZNm0azZo1y1OrrE0OHTpE48aN89pT3YCIwOTx48cimi2sks2bEXkw0JAhQ+jcuXN08uRJmjRpEv3+++8CIJ6kdFIikaChQ4cSjJNp+uabb8TbnDp1ih49ekTHjh2j27dvE+ptmjt3Lq1cudIWQ5cXFBQQCI6UDZvYBRpj7O1rY+UNVPamuLjYVPRq1aqVYU9Tqt/Tp0/NgAEDTM2aNb36s2fPmm7dukldo0aNzPjx480///xjLl68aFBmXaStadOm0gdjzJ4926CMcT7//HPDXsMbz68nxkH/n3/+uVT7tWvXDD995tmzZ+azzz4TGchhvsOHD4vsr7/+anr27OnNsWDBAm8MfhhEdtGiRaZZs2aiA+a9fv264QfG1K1b17Rp08YwKb0+fr3++usv0X/Hjh1ee48ePcx3333nlRcuXGg6d+4s5bFjx5qJEyeWa5MlS5aInsuWLZNxMf/IkSNNYWGhN55//s2bN8ua7969K+3pYuUfI9X9rdu3zZ9/3jWUSjBZezKFIAfQANTly5dNUVGRLBaGXrVqlZkxY4a0zZkzxzx8+NBs2LBByjDqpk2bZKGQQ/+pU6ca9hamY8eOYrjyDAUAQDIAzR7nFWNCHxAAchs3bjR37twxZ86ckT4gNeb7/vvvZU6AgzX89ttvUsa4M2fONNu2bTMgBNbRvHlzA7kpU6aIDOZNZh+Qlr2xtN26dcsbDzaBfK9evcywYcPk/uuvvzbffvttuTYBeWAT2HzFihWevmUfGqtHOuSBrB8r2zfd/I2QB089FgoywDPAawAwqxSedhgLZRgSsjCIbQfpjh8/7pXhKSDD25FXZ2WR37hxQwgGGVwAd968eQK2lQNxhg8f7vUHqPBCIISVgUcBOChb8oDcth1eBONDP1sHL4r5bNmfg1wgEOrWrVsnBLbrwLpBzNWrV0u7JQ9kk9nEkgekt3NgbBDQlv15uuTxY+Xvn869JU/WftCSjUPsUZBRnTp1KBaLUcOGDWn9+vXE25e0bdmyhdgTiEyyj/r169O+ffuIjS9B74kTJ0SMiZhMnD766CPavXs34USyd+9eWrx4MbEnoz179hCDn7QP4qJOnTpRtWrVvPa8vDzpy9umV9eyZUvv3urh/+4T5kJiwCk3N9eTxc2XX34pa2CPKXoxQeQwgfimatWqxMSlL774olSfVAXeyj0RBMFHjhzxypnc+LHKpD/6ZJU8CJ6R+Imke/fukQWgT58+9PHHH0vbe++9J3myj19++YV4/6cuXbrQp59+Su3bt0/LSDAsrlH8JaXJkycTx02Ek1i9evVemQZgA0B/suV4PO5VR6MvzxKWvCC3TSNGjKAPPviA/H1sG29xcgvS8bYnATt0wWGCvY7Y58MPP7TiKXP08ads/PqrHyv/2BW5zxp5ANaPP/5IMFyNGjXk6ecti9jVkzU6B6rikfwKcmDrFdlFy8mAA1ipO3jwIPE25LX7b+Bt8ETjaGtJivZ27dr5xeQehLEJR3p4K5xsLEFw4gP5qlevbsVK5S1atJDymDFj6P3335f7v//+Wx6Qd999t5QsCiAjB8nE8ZGcQvEgwEuOHj1a+nft2vWVPv4Kv0389dm6L4tVpuO+fLwqOMLVq1dp165d8mTl5+eLq8ai16xZIyPBWEgonz9/njjAE9Ckkj8AHABbu3YtHT16VKobNGhA+/fvF2+DdzN8qrDir+RNmjSRLWPQoEGiB+/hcuSF54Lns17nk08+IY5ZCMTFNtK3b1/ZQvBeiuMrWrp0qXiqwYMHvzKHreBTH/EphwYOHEgcExFIzbGUlK1M2RzeE1sbxyZCpsaNGxPHWsSxDn311VdlxaWczCZJBStYmQqrCg73UjydAKmsDIJLHsG7UOYXWYbf8npBHI7dOElZuY58curfv78c3e149hgKGdQhMLZHeNTZE1p5x/VLly6VOo6jD473OFbbOdireGMyMaUewSoTV3RD8DphwgQ52qMP5DEOG9wbw+rGXq3UevwBtJ3P5vzuSWTnz5/vjcOeS+r4nZRX169fPzlt2X5lbWLLth05XpPAnv46e28DZg4bpD0drGzfdHMbML/x7zBjy8ATj7fAyRJiBlw27oDM/fv3JTZId2/H21Q+ecn2WDY+wHh4YQY9/EEy6h88eEC1atWiSCSCYloJ2xVSeVtcWoOkEEpmkxRd3mqz/Q7zGyfPW12VTvZWLGDJk3HM81a01ElCbQElT6jhCalyiNw45I36/4AWUlVVrRBZAHxBjIgryhF2iFRTVcJuAfDFni+ij/ikot4n7JCFQz/wBHwBeyL8ni7KmXwXRgkUDoDCqoUQh78zBb5EI1H+xIvenCgVP39Od+78ye9CnqkXCit6AekF0oAX4Ad4Ar5E2eXgbXgsB38AZAEkfBvPmISn5otqr6w3lccCNq7BiiPsaUAacAWXDZhj7HpKLMLSCf7HsTSZRAmZcBwT/1R5bKYrhQUA+wv2RCSwYU/zgjzgC7xONCeH/gVB+Y7Ecco2sAAAAABJRU5ErkJggg==;" parent="1" vertex="1">
          <mxGeometry x="701.86" y="-1361.86" width="100.1" height="70" as="geometry" />
        </mxCell>
        <mxCell id="sGmR2cMoliQ0h1fHMsgX-116" value="Data Center" style="points=[[0,0],[0.25,0],[0.5,0],[0.75,0],[1,0],[1,0.25],[1,0.5],[1,0.75],[1,1],[0.75,1],[0.5,1],[0.25,1],[0,1],[0,0.75],[0,0.5],[0,0.25]];outlineConnect=0;gradientColor=none;html=1;whiteSpace=wrap;fontSize=12;fontStyle=0;container=1;pointerEvents=0;collapsible=0;recursiveResize=0;shape=mxgraph.aws4.group;grIcon=mxgraph.aws4.group_corporate_data_center;strokeColor=#5A6C86;fillColor=none;verticalAlign=top;align=left;spacingLeft=30;fontColor=#5A6C86;dashed=0;" parent="1" vertex="1">
          <mxGeometry x="441.86" y="-1570" width="405" height="300" as="geometry" />
        </mxCell>
        <mxCell id="sGmR2cMoliQ0h1fHMsgX-117" value="" style="shape=datastore;whiteSpace=wrap;html=1;" parent="1" vertex="1">
          <mxGeometry x="175.36" y="-1556.8600000000001" width="56" height="53.07" as="geometry" />
        </mxCell>
        <mxCell id="sGmR2cMoliQ0h1fHMsgX-118" value="Encrypted&#xa;data" style="sketch=0;outlineConnect=0;fontColor=#232F3E;gradientColor=none;strokeColor=#232F3E;fillColor=#ffffff;dashed=0;verticalLabelPosition=bottom;verticalAlign=top;align=center;html=1;fontSize=12;fontStyle=0;aspect=fixed;shape=mxgraph.aws4.resourceIcon;resIcon=mxgraph.aws4.encrypted_data;" parent="1" vertex="1">
          <mxGeometry x="276.36" y="-1487.72" width="60" height="60" as="geometry" />
        </mxCell>
        <mxCell id="sGmR2cMoliQ0h1fHMsgX-119" value="Data&#xa;encryption&#xa;key" style="sketch=0;outlineConnect=0;fontColor=#232F3E;gradientColor=none;strokeColor=#232F3E;fillColor=#ffffff;dashed=0;verticalLabelPosition=bottom;verticalAlign=top;align=center;html=1;fontSize=12;fontStyle=0;aspect=fixed;shape=mxgraph.aws4.resourceIcon;resIcon=mxgraph.aws4.data_encryption_key;" parent="1" vertex="1">
          <mxGeometry x="215.36" y="-1370.95" width="60" height="60" as="geometry" />
        </mxCell>
        <mxCell id="sGmR2cMoliQ0h1fHMsgX-120" value="Corporate&#xa;data center" style="sketch=0;outlineConnect=0;fontColor=#232F3E;gradientColor=none;strokeColor=#232F3E;fillColor=#ffffff;dashed=0;verticalLabelPosition=bottom;verticalAlign=top;align=center;html=1;fontSize=12;fontStyle=0;aspect=fixed;shape=mxgraph.aws4.resourceIcon;resIcon=mxgraph.aws4.corporate_data_center;" parent="1" vertex="1">
          <mxGeometry x="85.36" y="-1374.8600000000001" width="60" height="60" as="geometry" />
        </mxCell>
        <mxCell id="sGmR2cMoliQ0h1fHMsgX-121" value="" style="sketch=0;outlineConnect=0;fontColor=#232F3E;gradientColor=none;fillColor=#232F3D;strokeColor=none;dashed=0;verticalLabelPosition=bottom;verticalAlign=top;align=center;html=1;fontSize=12;fontStyle=0;aspect=fixed;pointerEvents=1;shape=mxgraph.aws4.corporate_data_center;" parent="1" vertex="1">
          <mxGeometry x="70.36" y="-1487.72" width="53" height="78" as="geometry" />
        </mxCell>
        <mxCell id="sGmR2cMoliQ0h1fHMsgX-124" value="" style="sketch=0;aspect=fixed;html=1;points=[];align=center;image;fontSize=12;image=img/lib/mscae/API_Management.svg;" parent="1" vertex="1">
          <mxGeometry x="95.36" y="-1556.8600000000001" width="50" height="42" as="geometry" />
        </mxCell>
        <mxCell id="sGmR2cMoliQ0h1fHMsgX-125" value="" style="aspect=fixed;html=1;points=[];align=center;image;fontSize=12;image=img/lib/azure2/other/API_Proxy.svg;" parent="1" vertex="1">
          <mxGeometry x="257.36" y="-1570.0000000000002" width="68" height="38" as="geometry" />
        </mxCell>
        <mxCell id="sGmR2cMoliQ0h1fHMsgX-126" value="" style="sketch=0;html=1;dashed=0;whitespace=wrap;fillColor=#2875E2;strokeColor=#ffffff;points=[[0.005,0.63,0],[0.1,0.2,0],[0.9,0.2,0],[0.5,0,0],[0.995,0.63,0],[0.72,0.99,0],[0.5,1,0],[0.28,0.99,0]];verticalLabelPosition=bottom;align=center;verticalAlign=top;shape=mxgraph.kubernetes.icon;prIcon=api" parent="1" vertex="1">
          <mxGeometry x="173.86" y="-1457.72" width="50" height="48" as="geometry" />
        </mxCell>
        <mxCell id="sGmR2cMoliQ0h1fHMsgX-129" value="Präscreening Behandlung" style="swimlane;horizontal=0;whiteSpace=wrap;html=1;startSize=23;" parent="1" vertex="1">
          <mxGeometry x="90" y="-499" width="760" height="199" as="geometry">
            <mxRectangle x="50" y="-851" width="40" height="140" as="alternateBounds" />
          </mxGeometry>
        </mxCell>
        <mxCell id="xYtL9LTNpDdVsGrDmP8m-193" value="" style="edgeStyle=none;noEdgeStyle=1;strokeColor=#990000;strokeWidth=2;entryX=0;entryY=0.5;entryDx=0;entryDy=0;" edge="1" parent="sGmR2cMoliQ0h1fHMsgX-129">
          <mxGeometry width="100" height="100" relative="1" as="geometry">
            <mxPoint x="148.00000000000045" y="88.00000000000045" as="sourcePoint" />
            <mxPoint x="300.5000000000068" y="88.00000000000045" as="targetPoint" />
          </mxGeometry>
        </mxCell>
        <mxCell id="xYtL9LTNpDdVsGrDmP8m-194" value="" style="edgeStyle=orthogonalEdgeStyle;rounded=0;orthogonalLoop=1;jettySize=auto;html=1;entryX=0;entryY=0.5;entryDx=0;entryDy=0;" edge="1" parent="sGmR2cMoliQ0h1fHMsgX-129" target="xYtL9LTNpDdVsGrDmP8m-195">
          <mxGeometry relative="1" as="geometry">
            <mxPoint x="411.5" y="87" as="sourcePoint" />
            <mxPoint x="525" y="87" as="targetPoint" />
          </mxGeometry>
        </mxCell>
        <mxCell id="xYtL9LTNpDdVsGrDmP8m-195" value="&lt;div&gt;IS-03 &lt;br&gt;&lt;/div&gt;&lt;div&gt;SAP&lt;/div&gt;&lt;div&gt;Patientenorganizer&lt;br&gt;&lt;/div&gt;" style="html=1;dashed=0;whitespace=wrap;shape=mxgraph.dfd.dataStoreID;align=center;spacingLeft=3;points=[[0,0],[0.5,0],[1,0],[0,0.5],[1,0.5],[0,1],[0.5,1],[1,1]];" vertex="1" parent="sGmR2cMoliQ0h1fHMsgX-129">
          <mxGeometry x="504" y="51" width="213" height="74" as="geometry" />
        </mxCell>
        <mxCell id="xYtL9LTNpDdVsGrDmP8m-196" value="Klinische &#xa;Bewertung&#xa;" style="text;spacingTop=-5;align=center" vertex="1" parent="sGmR2cMoliQ0h1fHMsgX-129">
          <mxGeometry x="185" y="92" width="90" height="53" as="geometry" />
        </mxCell>
        <mxCell id="xYtL9LTNpDdVsGrDmP8m-197" value="&lt;div&gt;Patientdaten&lt;/div&gt;&lt;div&gt;&lt;br&gt;&lt;/div&gt;&lt;div&gt;Behandlungs-&lt;/div&gt;&lt;div&gt;führung &lt;br&gt;&lt;/div&gt;&lt;div&gt;oder / und &lt;br&gt;&lt;/div&gt;&lt;div&gt;Studien-&lt;/div&gt;&lt;div&gt;einschlüsse&lt;/div&gt;" style="html=1;dashed=0;whitespace=wrap;" vertex="1" parent="sGmR2cMoliQ0h1fHMsgX-129">
          <mxGeometry x="63" y="28" width="100" height="120" as="geometry" />
        </mxCell>
        <mxCell id="xYtL9LTNpDdVsGrDmP8m-198" value="&lt;b&gt;KIS&lt;/b&gt;&lt;div&gt;&lt;br&gt;&lt;/div&gt;&lt;div&gt;Sammlung + &lt;br&gt;&lt;/div&gt;&lt;div&gt;Analyse&lt;/div&gt;&lt;div&gt;Patientendaten&lt;/div&gt;" style="shape=ellipse;html=1;dashed=0;whitespace=wrap;aspect=fixed;perimeter=ellipsePerimeter;" vertex="1" parent="sGmR2cMoliQ0h1fHMsgX-129">
          <mxGeometry x="301.5" y="35" width="110" height="110" as="geometry" />
        </mxCell>
        <mxCell id="xYtL9LTNpDdVsGrDmP8m-301" style="edgeStyle=none;rounded=0;orthogonalLoop=1;jettySize=auto;html=1;entryX=0;entryY=0.5;entryDx=0;entryDy=0;dashed=1;endArrow=none;endFill=0;" edge="1" parent="sGmR2cMoliQ0h1fHMsgX-129" source="xYtL9LTNpDdVsGrDmP8m-200" target="xYtL9LTNpDdVsGrDmP8m-197">
          <mxGeometry relative="1" as="geometry" />
        </mxCell>
        <mxCell id="xYtL9LTNpDdVsGrDmP8m-200" value="Klinik Organisation" style="shape=umlActor;verticalLabelPosition=bottom;verticalAlign=top;html=1;outlineConnect=0;" vertex="1" parent="sGmR2cMoliQ0h1fHMsgX-129">
          <mxGeometry x="-139" y="59" width="30" height="60" as="geometry" />
        </mxCell>
        <mxCell id="xYtL9LTNpDdVsGrDmP8m-96" value="&lt;div&gt;&lt;br&gt;&lt;/div&gt;&lt;div&gt;Meldung&lt;/div&gt;&lt;div&gt;&lt;br&gt;&lt;/div&gt;&lt;div&gt;Informell&lt;/div&gt;&lt;div&gt;Email an Ärzte&lt;/div&gt;&lt;div&gt;Handy&lt;/div&gt;&lt;div&gt;Unterlagen an die Email&lt;/div&gt;&lt;div&gt;Fax&lt;br&gt;&lt;/div&gt;&lt;div&gt;&lt;br&gt;&lt;/div&gt;" style="text;html=1;strokeColor=#d6b656;fillColor=#fff2cc;align=left;verticalAlign=middle;whiteSpace=wrap;rounded=0;" vertex="1" parent="1">
          <mxGeometry x="960" y="-839" width="160" height="159" as="geometry" />
        </mxCell>
        <mxCell id="xYtL9LTNpDdVsGrDmP8m-97" value="&lt;div&gt;&lt;br&gt;&lt;/div&gt;&lt;div&gt;Meldung&lt;/div&gt;&lt;div&gt;&lt;br&gt;&lt;/div&gt;&lt;div&gt;Doctolib werden Daten &lt;br&gt;&lt;/div&gt;&lt;div&gt;&lt;br&gt;&lt;/div&gt;&lt;div&gt;Telefon an Patient mit Termin&lt;/div&gt;&lt;div&gt;&lt;br&gt;&lt;/div&gt;&lt;div&gt;SAP Registrierung mit Namen und Geburtsdatum&lt;br&gt;&lt;/div&gt;&lt;div&gt;&lt;br&gt;&lt;/div&gt;" style="text;html=1;strokeColor=#6c8ebf;fillColor=#dae8fc;align=left;verticalAlign=middle;whiteSpace=wrap;rounded=0;" vertex="1" parent="1">
          <mxGeometry x="1162" y="-839" width="158" height="159" as="geometry" />
        </mxCell>
        <mxCell id="xYtL9LTNpDdVsGrDmP8m-98" value="&lt;div&gt;&lt;br&gt;&lt;/div&gt;&lt;div&gt;Präscreening: Behandlungsführung oder / und Studieneinschlüsse&lt;br&gt;&lt;/div&gt;&lt;div&gt;&lt;br&gt;&lt;/div&gt;Nachfragen ob ein passender Patient nach Einschluss in die Studie" style="text;html=1;strokeColor=#d6b656;fillColor=#fff2cc;align=left;verticalAlign=middle;whiteSpace=wrap;rounded=0;" vertex="1" parent="1">
          <mxGeometry x="960" y="-480" width="160" height="130" as="geometry" />
        </mxCell>
        <mxCell id="xYtL9LTNpDdVsGrDmP8m-99" value="&lt;br&gt;&lt;div&gt;SAP Patientenorganizer sind alle Daten hinterlegt&lt;br&gt;&lt;/div&gt;" style="text;html=1;strokeColor=#6c8ebf;fillColor=#dae8fc;align=left;verticalAlign=middle;whiteSpace=wrap;rounded=0;" vertex="1" parent="1">
          <mxGeometry x="1160" y="-480" width="160" height="130" as="geometry" />
        </mxCell>
        <mxCell id="xYtL9LTNpDdVsGrDmP8m-100" value="Vorbereitung V0" style="swimlane;horizontal=0;whiteSpace=wrap;html=1;" vertex="1" parent="1">
          <mxGeometry x="50" y="-283" width="830" height="263" as="geometry">
            <mxRectangle x="50" y="-851" width="40" height="140" as="alternateBounds" />
          </mxGeometry>
        </mxCell>
        <mxCell id="xYtL9LTNpDdVsGrDmP8m-268" value="" style="edgeStyle=none;noEdgeStyle=1;strokeColor=#990000;strokeWidth=2;entryX=0;entryY=0.5;entryDx=0;entryDy=0;exitX=1;exitY=0.5;exitDx=0;exitDy=0;" edge="1" parent="xYtL9LTNpDdVsGrDmP8m-100" source="xYtL9LTNpDdVsGrDmP8m-272">
          <mxGeometry width="100" height="100" relative="1" as="geometry">
            <mxPoint x="147.00000000000045" y="94.00000000000045" as="sourcePoint" />
            <mxPoint x="299.5000000000068" y="94.00000000000045" as="targetPoint" />
          </mxGeometry>
        </mxCell>
        <mxCell id="xYtL9LTNpDdVsGrDmP8m-269" value="" style="edgeStyle=orthogonalEdgeStyle;rounded=0;orthogonalLoop=1;jettySize=auto;html=1;entryX=0;entryY=0.5;entryDx=0;entryDy=0;" edge="1" parent="xYtL9LTNpDdVsGrDmP8m-100" target="xYtL9LTNpDdVsGrDmP8m-270">
          <mxGeometry relative="1" as="geometry">
            <mxPoint x="410.5" y="92.99999999999955" as="sourcePoint" />
            <mxPoint x="434" y="592" as="targetPoint" />
          </mxGeometry>
        </mxCell>
        <mxCell id="xYtL9LTNpDdVsGrDmP8m-270" value="&lt;div&gt;IS-0x &lt;br&gt;&lt;/div&gt;&lt;div&gt;Informationssystem&lt;/div&gt;&lt;div&gt;&amp;lt;&amp;lt;offen&amp;gt;&amp;gt;&lt;br&gt;&lt;/div&gt;" style="html=1;dashed=0;whitespace=wrap;shape=mxgraph.dfd.dataStoreID;align=center;spacingLeft=3;points=[[0,0],[0.5,0],[1,0],[0,0.5],[1,0.5],[0,1],[0.5,1],[1,1]];" vertex="1" parent="xYtL9LTNpDdVsGrDmP8m-100">
          <mxGeometry x="534" y="57" width="213" height="74" as="geometry" />
        </mxCell>
        <mxCell id="xYtL9LTNpDdVsGrDmP8m-271" value="Klinische &#xa;&#xa;Bewertung&#xa;" style="text;spacingTop=-5;align=center" vertex="1" parent="xYtL9LTNpDdVsGrDmP8m-100">
          <mxGeometry x="184" y="98" width="90" height="53" as="geometry" />
        </mxCell>
        <mxCell id="xYtL9LTNpDdVsGrDmP8m-272" value="&lt;div&gt;&lt;b&gt;Patientdaten&lt;/b&gt;&lt;/div&gt;&lt;div&gt;Aufklärung +&lt;/div&gt;&lt;div&gt;Vorbereitungs-&lt;/div&gt;&lt;div&gt;Informationen&lt;/div&gt;" style="html=1;dashed=0;whitespace=wrap;" vertex="1" parent="xYtL9LTNpDdVsGrDmP8m-100">
          <mxGeometry x="62" y="60" width="100" height="70" as="geometry" />
        </mxCell>
        <mxCell id="xYtL9LTNpDdVsGrDmP8m-273" value="&lt;div&gt;&lt;b&gt;Informations-&lt;/b&gt;&lt;/div&gt;&lt;div&gt;&lt;b&gt;system&lt;/b&gt;&lt;/div&gt;&lt;div&gt;&lt;br&gt;&lt;/div&gt;&lt;div&gt;Sammlung + &lt;br&gt;&lt;/div&gt;&lt;div&gt;Analyse&lt;/div&gt;&lt;div&gt;Patientendaten&lt;/div&gt;" style="shape=ellipse;html=1;dashed=0;whitespace=wrap;aspect=fixed;perimeter=ellipsePerimeter;" vertex="1" parent="xYtL9LTNpDdVsGrDmP8m-100">
          <mxGeometry x="299.5" y="41" width="110" height="110" as="geometry" />
        </mxCell>
        <mxCell id="xYtL9LTNpDdVsGrDmP8m-300" style="edgeStyle=none;rounded=0;orthogonalLoop=1;jettySize=auto;html=1;entryX=0;entryY=0.5;entryDx=0;entryDy=0;dashed=1;endArrow=none;endFill=0;" edge="1" parent="xYtL9LTNpDdVsGrDmP8m-100" source="xYtL9LTNpDdVsGrDmP8m-275" target="xYtL9LTNpDdVsGrDmP8m-272">
          <mxGeometry relative="1" as="geometry" />
        </mxCell>
        <mxCell id="xYtL9LTNpDdVsGrDmP8m-275" value="Klinik Organisation" style="shape=umlActor;verticalLabelPosition=bottom;verticalAlign=top;html=1;outlineConnect=0;" vertex="1" parent="xYtL9LTNpDdVsGrDmP8m-100">
          <mxGeometry x="-98" y="65" width="30" height="60" as="geometry" />
        </mxCell>
        <mxCell id="xYtL9LTNpDdVsGrDmP8m-281" value="" style="edgeStyle=orthogonalEdgeStyle;rounded=0;orthogonalLoop=1;jettySize=auto;html=1;entryX=0;entryY=0.5;entryDx=0;entryDy=0;exitX=0.952;exitY=0.743;exitDx=0;exitDy=0;exitPerimeter=0;" edge="1" parent="xYtL9LTNpDdVsGrDmP8m-100" target="xYtL9LTNpDdVsGrDmP8m-282" source="xYtL9LTNpDdVsGrDmP8m-273">
          <mxGeometry relative="1" as="geometry">
            <mxPoint x="410.5" y="198.99999999999955" as="sourcePoint" />
            <mxPoint x="384" y="981" as="targetPoint" />
          </mxGeometry>
        </mxCell>
        <mxCell id="xYtL9LTNpDdVsGrDmP8m-282" value="&lt;div&gt;IS-04 &lt;br&gt;&lt;/div&gt;&lt;div&gt;RedCap&lt;/div&gt;&lt;div&gt;&amp;lt;&amp;lt;Studien&amp;gt;&amp;gt;&lt;/div&gt;" style="html=1;dashed=0;whitespace=wrap;shape=mxgraph.dfd.dataStoreID;align=center;spacingLeft=3;points=[[0,0],[0.5,0],[1,0],[0,0.5],[1,0.5],[0,1],[0.5,1],[1,1]];" vertex="1" parent="xYtL9LTNpDdVsGrDmP8m-100">
          <mxGeometry x="534" y="163" width="213" height="74" as="geometry" />
        </mxCell>
        <mxCell id="xYtL9LTNpDdVsGrDmP8m-101" value="&lt;div&gt;Vorbereitung mit Anruf&lt;/div&gt;&lt;div&gt;&lt;br&gt;&lt;/div&gt;&lt;div&gt;Aufklärung und Vorbereitungsgespräch mit Patienten&lt;/div&gt;&lt;div&gt;&lt;br&gt;&lt;/div&gt;&lt;div&gt;Ist Patient passend für PreHab?&lt;br&gt;&lt;/div&gt;" style="text;html=1;strokeColor=#d6b656;fillColor=#fff2cc;align=left;verticalAlign=middle;whiteSpace=wrap;rounded=0;" vertex="1" parent="1">
          <mxGeometry x="960" y="-279" width="160" height="119" as="geometry" />
        </mxCell>
        <mxCell id="xYtL9LTNpDdVsGrDmP8m-102" value="&lt;br&gt;&lt;div&gt;Noch keine Dokumentation möglich&lt;/div&gt;&lt;div&gt;&lt;br&gt;&lt;/div&gt;&lt;div&gt;Mögliche Systeme&lt;br&gt;&lt;/div&gt;&lt;div&gt;Papier, Web, RedCap, Plan-Aufnahmen in SAP&lt;br&gt;&lt;/div&gt;" style="text;html=1;strokeColor=#6c8ebf;fillColor=#dae8fc;align=left;verticalAlign=middle;whiteSpace=wrap;rounded=0;" vertex="1" parent="1">
          <mxGeometry x="1162" y="-279" width="158" height="119" as="geometry" />
        </mxCell>
        <mxCell id="xYtL9LTNpDdVsGrDmP8m-103" value="Visite 1&amp;nbsp; Ambulanz Klinik" style="swimlane;horizontal=0;whiteSpace=wrap;html=1;" vertex="1" parent="1">
          <mxGeometry x="50" y="-10" width="830" height="244" as="geometry">
            <mxRectangle x="50" y="-851" width="40" height="140" as="alternateBounds" />
          </mxGeometry>
        </mxCell>
        <mxCell id="xYtL9LTNpDdVsGrDmP8m-130" value="" style="edgeStyle=none;noEdgeStyle=1;strokeColor=#990000;strokeWidth=2;entryX=0;entryY=0.5;entryDx=0;entryDy=0;" edge="1" parent="xYtL9LTNpDdVsGrDmP8m-103" target="xYtL9LTNpDdVsGrDmP8m-133">
          <mxGeometry width="100" height="100" relative="1" as="geometry">
            <mxPoint x="141" y="65" as="sourcePoint" />
            <mxPoint x="280.5" y="65" as="targetPoint" />
          </mxGeometry>
        </mxCell>
        <mxCell id="xYtL9LTNpDdVsGrDmP8m-131" value="" style="edgeStyle=orthogonalEdgeStyle;rounded=0;orthogonalLoop=1;jettySize=auto;html=1;" edge="1" parent="xYtL9LTNpDdVsGrDmP8m-103">
          <mxGeometry relative="1" as="geometry">
            <mxPoint x="404.5" y="64" as="sourcePoint" />
            <mxPoint x="518" y="64" as="targetPoint" />
          </mxGeometry>
        </mxCell>
        <mxCell id="xYtL9LTNpDdVsGrDmP8m-132" value="&lt;div&gt;IS-03 &lt;br&gt;&lt;/div&gt;&lt;div&gt;SAP&lt;/div&gt;" style="html=1;dashed=0;whitespace=wrap;shape=mxgraph.dfd.dataStoreID;align=center;spacingLeft=3;points=[[0,0],[0.5,0],[1,0],[0,0.5],[1,0.5],[0,1],[0.5,1],[1,1]];" vertex="1" parent="xYtL9LTNpDdVsGrDmP8m-103">
          <mxGeometry x="519" y="28" width="245" height="74" as="geometry" />
        </mxCell>
        <mxCell id="xYtL9LTNpDdVsGrDmP8m-133" value="KIS&lt;div&gt;&lt;br&gt;&lt;/div&gt;&lt;div&gt;Aufnahmebogen + &lt;/div&gt;Patientendaten" style="shape=ellipse;html=1;dashed=0;whitespace=wrap;aspect=fixed;perimeter=ellipsePerimeter;" vertex="1" parent="xYtL9LTNpDdVsGrDmP8m-103">
          <mxGeometry x="293.5" y="10" width="110" height="110" as="geometry" />
        </mxCell>
        <mxCell id="xYtL9LTNpDdVsGrDmP8m-134" value="Administrativ &#xa;+ &#xa;Vorabklärungen&#xa;" style="text;spacingTop=-5;align=center" vertex="1" parent="xYtL9LTNpDdVsGrDmP8m-103">
          <mxGeometry x="178" y="69" width="90" height="53" as="geometry" />
        </mxCell>
        <mxCell id="xYtL9LTNpDdVsGrDmP8m-135" value="Patientdaten" style="html=1;dashed=0;whitespace=wrap;" vertex="1" parent="xYtL9LTNpDdVsGrDmP8m-103">
          <mxGeometry x="56" y="39" width="100" height="50" as="geometry" />
        </mxCell>
        <mxCell id="xYtL9LTNpDdVsGrDmP8m-290" value="" style="edgeStyle=none;noEdgeStyle=1;strokeColor=#990000;strokeWidth=2;entryX=0;entryY=0.5;entryDx=0;entryDy=0;" edge="1" parent="xYtL9LTNpDdVsGrDmP8m-103">
          <mxGeometry width="100" height="100" relative="1" as="geometry">
            <mxPoint x="142" y="181" as="sourcePoint" />
            <mxPoint x="294.49999999998545" y="181" as="targetPoint" />
          </mxGeometry>
        </mxCell>
        <mxCell id="xYtL9LTNpDdVsGrDmP8m-291" value="" style="edgeStyle=orthogonalEdgeStyle;rounded=0;orthogonalLoop=1;jettySize=auto;html=1;" edge="1" parent="xYtL9LTNpDdVsGrDmP8m-103">
          <mxGeometry relative="1" as="geometry">
            <mxPoint x="405.5" y="180" as="sourcePoint" />
            <mxPoint x="519" y="180" as="targetPoint" />
          </mxGeometry>
        </mxCell>
        <mxCell id="xYtL9LTNpDdVsGrDmP8m-292" value="&lt;div&gt;IS-04 &lt;br&gt;&lt;/div&gt;&lt;div&gt;RedCap&lt;br&gt;&lt;/div&gt;" style="html=1;dashed=0;whitespace=wrap;shape=mxgraph.dfd.dataStoreID;align=center;spacingLeft=3;points=[[0,0],[0.5,0],[1,0],[0,0.5],[1,0.5],[0,1],[0.5,1],[1,1]];" vertex="1" parent="xYtL9LTNpDdVsGrDmP8m-103">
          <mxGeometry x="520" y="144" width="245" height="74" as="geometry" />
        </mxCell>
        <mxCell id="xYtL9LTNpDdVsGrDmP8m-293" value="Symptom, &#xa;Beschwerden, &#xa;Vorerkrankungen&#xa;Outcomes&#xa;" style="text;spacingTop=-5;align=center" vertex="1" parent="xYtL9LTNpDdVsGrDmP8m-103">
          <mxGeometry x="179" y="182" width="90" height="53" as="geometry" />
        </mxCell>
        <mxCell id="xYtL9LTNpDdVsGrDmP8m-294" value="&lt;div&gt;Patientdaten&lt;/div&gt;&lt;div&gt;&amp;lt;&amp;lt;Fragebögen&amp;gt;&amp;gt;&lt;br&gt;&lt;/div&gt;" style="html=1;dashed=0;whitespace=wrap;" vertex="1" parent="xYtL9LTNpDdVsGrDmP8m-103">
          <mxGeometry x="57" y="155" width="100" height="50" as="geometry" />
        </mxCell>
        <mxCell id="xYtL9LTNpDdVsGrDmP8m-295" value="&lt;div&gt;Assessment&lt;/div&gt;&lt;div&gt;System&lt;br&gt;&lt;/div&gt;&lt;div&gt;&lt;br&gt;&lt;/div&gt;&lt;div&gt;Fragebögen&lt;br&gt;&lt;/div&gt;" style="shape=ellipse;html=1;dashed=0;whitespace=wrap;aspect=fixed;perimeter=ellipsePerimeter;" vertex="1" parent="xYtL9LTNpDdVsGrDmP8m-103">
          <mxGeometry x="293.5" y="126" width="110" height="110" as="geometry" />
        </mxCell>
        <mxCell id="xYtL9LTNpDdVsGrDmP8m-306" value="" style="edgeStyle=orthogonalEdgeStyle;rounded=0;orthogonalLoop=1;jettySize=auto;html=1;exitX=1;exitY=0.5;exitDx=0;exitDy=0;entryX=-0.012;entryY=0.727;entryDx=0;entryDy=0;entryPerimeter=0;" edge="1" parent="xYtL9LTNpDdVsGrDmP8m-103">
          <mxGeometry relative="1" as="geometry">
            <mxPoint x="403.500000000015" y="180" as="sourcePoint" />
            <mxPoint x="516.0599999999995" y="80.79799999999977" as="targetPoint" />
            <Array as="points">
              <mxPoint x="460" y="180" />
              <mxPoint x="460" y="81" />
            </Array>
          </mxGeometry>
        </mxCell>
        <mxCell id="xYtL9LTNpDdVsGrDmP8m-104" value="&lt;div&gt;&lt;br&gt;&lt;/div&gt;&lt;div&gt;Aufnahmebogen der Klinik in EPOS&lt;/div&gt;&lt;div&gt;&lt;br&gt;&lt;/div&gt;&lt;div&gt;P &amp;lt;-&amp;gt; Arzt Gespräch &lt;/div&gt;&lt;div&gt;&lt;br&gt;&lt;/div&gt;&lt;div&gt;Zusätzliche Fragebögen in der Ambulanz&lt;/div&gt;&lt;div&gt;&lt;br&gt;&lt;/div&gt;&lt;div&gt;&lt;br&gt;&lt;/div&gt;" style="text;html=1;strokeColor=#d6b656;fillColor=#fff2cc;align=left;verticalAlign=middle;whiteSpace=wrap;rounded=0;" vertex="1" parent="1">
          <mxGeometry x="960" y="41" width="157" height="133" as="geometry" />
        </mxCell>
        <mxCell id="xYtL9LTNpDdVsGrDmP8m-105" value="&lt;br&gt;&lt;div&gt;SAP Patientenaufnahme&lt;br&gt;&lt;/div&gt;&lt;div&gt;&lt;br&gt;&lt;/div&gt;&lt;div&gt;SAP Dokumentation&lt;br&gt;&lt;/div&gt;&lt;div&gt;&lt;br&gt;&lt;/div&gt;&lt;div&gt;&lt;br&gt;&lt;/div&gt;&lt;div&gt;Study Nurse gibt z.B. RedCap oder SAP Modul ,&lt;/div&gt;" style="text;html=1;strokeColor=#6c8ebf;fillColor=#dae8fc;align=left;verticalAlign=middle;whiteSpace=wrap;rounded=0;" vertex="1" parent="1">
          <mxGeometry x="1161" y="38" width="160" height="139" as="geometry" />
        </mxCell>
        <mxCell id="xYtL9LTNpDdVsGrDmP8m-106" value="Visite 2 - Training" style="swimlane;horizontal=0;whiteSpace=wrap;html=1;" vertex="1" parent="1">
          <mxGeometry x="50" y="243" width="830" height="200" as="geometry">
            <mxRectangle x="50" y="-851" width="40" height="140" as="alternateBounds" />
          </mxGeometry>
        </mxCell>
        <mxCell id="xYtL9LTNpDdVsGrDmP8m-136" value="" style="edgeStyle=none;noEdgeStyle=1;strokeColor=#990000;strokeWidth=2;entryX=0;entryY=0.5;entryDx=0;entryDy=0;" edge="1" parent="xYtL9LTNpDdVsGrDmP8m-106" target="xYtL9LTNpDdVsGrDmP8m-139">
          <mxGeometry width="100" height="100" relative="1" as="geometry">
            <mxPoint x="146" y="100" as="sourcePoint" />
            <mxPoint x="223.5" y="-730" as="targetPoint" />
          </mxGeometry>
        </mxCell>
        <mxCell id="xYtL9LTNpDdVsGrDmP8m-137" value="" style="edgeStyle=orthogonalEdgeStyle;rounded=0;orthogonalLoop=1;jettySize=auto;html=1;" edge="1" parent="xYtL9LTNpDdVsGrDmP8m-106">
          <mxGeometry relative="1" as="geometry">
            <mxPoint x="409.5" y="99" as="sourcePoint" />
            <mxPoint x="523" y="99" as="targetPoint" />
          </mxGeometry>
        </mxCell>
        <mxCell id="xYtL9LTNpDdVsGrDmP8m-138" value="DB-1001" style="html=1;dashed=0;whitespace=wrap;shape=mxgraph.dfd.dataStoreID;align=left;spacingLeft=3;points=[[0,0],[0.5,0],[1,0],[0,0.5],[1,0.5],[0,1],[0.5,1],[1,1]];" vertex="1" parent="xYtL9LTNpDdVsGrDmP8m-106">
          <mxGeometry x="524" y="63" width="245" height="74" as="geometry" />
        </mxCell>
        <mxCell id="xYtL9LTNpDdVsGrDmP8m-139" value="&lt;strong&gt;Cloud Service&lt;/strong&gt;&lt;div&gt;&lt;br&gt;&lt;/div&gt;&lt;div&gt;Fragebogen + &lt;/div&gt;Patientendaten" style="shape=ellipse;html=1;dashed=0;whitespace=wrap;aspect=fixed;perimeter=ellipsePerimeter;" vertex="1" parent="xYtL9LTNpDdVsGrDmP8m-106">
          <mxGeometry x="298.5" y="45" width="110" height="110" as="geometry" />
        </mxCell>
        <mxCell id="xYtL9LTNpDdVsGrDmP8m-140" value="Administrativ &#xa;+ &#xa;Assessment" style="text;spacingTop=-5;align=center" vertex="1" parent="xYtL9LTNpDdVsGrDmP8m-106">
          <mxGeometry x="183" y="104" width="90" height="53" as="geometry" />
        </mxCell>
        <mxCell id="xYtL9LTNpDdVsGrDmP8m-141" value="Patientdaten" style="html=1;dashed=0;whitespace=wrap;" vertex="1" parent="xYtL9LTNpDdVsGrDmP8m-106">
          <mxGeometry x="61" y="74" width="100" height="50" as="geometry" />
        </mxCell>
        <mxCell id="xYtL9LTNpDdVsGrDmP8m-107" value="&lt;div&gt;Trainingsmonitoring und Training, z.B. mit Fitness Trackern&lt;br&gt;&lt;/div&gt;&lt;div&gt;&amp;nbsp;&lt;br&gt;&lt;/div&gt;&lt;div&gt;Wöchentliche Anruf / Kontakt und Information (Weekly Visit)&lt;br&gt;&lt;/div&gt;" style="text;html=1;strokeColor=none;fillColor=none;align=left;verticalAlign=middle;whiteSpace=wrap;rounded=0;" vertex="1" parent="1">
          <mxGeometry x="930" y="274" width="190" height="120" as="geometry" />
        </mxCell>
        <mxCell id="xYtL9LTNpDdVsGrDmP8m-108" value="&lt;div&gt;PreHab APP Barcelona&lt;/div&gt;&lt;div&gt;&lt;br&gt;&lt;/div&gt;&lt;div&gt;Anruf dokumentieren&lt;br&gt;&lt;/div&gt;&amp;nbsp;und offen wie hier dokumentiert" style="text;html=1;strokeColor=none;fillColor=none;align=left;verticalAlign=middle;whiteSpace=wrap;rounded=0;" vertex="1" parent="1">
          <mxGeometry x="1170" y="266.5" width="180" height="139" as="geometry" />
        </mxCell>
        <mxCell id="xYtL9LTNpDdVsGrDmP8m-109" value="Visite 3 - Prämed-Ambulanz (CH+AN)" style="swimlane;horizontal=0;whiteSpace=wrap;html=1;" vertex="1" parent="1">
          <mxGeometry x="50" y="454" width="830" height="290" as="geometry">
            <mxRectangle x="50" y="-851" width="40" height="140" as="alternateBounds" />
          </mxGeometry>
        </mxCell>
        <mxCell id="xYtL9LTNpDdVsGrDmP8m-142" value="" style="edgeStyle=none;noEdgeStyle=1;strokeColor=#990000;strokeWidth=2;entryX=0;entryY=0.5;entryDx=0;entryDy=0;" edge="1" parent="xYtL9LTNpDdVsGrDmP8m-109" target="xYtL9LTNpDdVsGrDmP8m-145">
          <mxGeometry width="100" height="100" relative="1" as="geometry">
            <mxPoint x="146" y="92.5" as="sourcePoint" />
            <mxPoint x="223.5" y="-737.5" as="targetPoint" />
          </mxGeometry>
        </mxCell>
        <mxCell id="xYtL9LTNpDdVsGrDmP8m-143" value="" style="edgeStyle=orthogonalEdgeStyle;rounded=0;orthogonalLoop=1;jettySize=auto;html=1;" edge="1" parent="xYtL9LTNpDdVsGrDmP8m-109">
          <mxGeometry relative="1" as="geometry">
            <mxPoint x="409.5" y="91.5" as="sourcePoint" />
            <mxPoint x="523" y="91.5" as="targetPoint" />
          </mxGeometry>
        </mxCell>
        <mxCell id="xYtL9LTNpDdVsGrDmP8m-144" value="DB-1001" style="html=1;dashed=0;whitespace=wrap;shape=mxgraph.dfd.dataStoreID;align=left;spacingLeft=3;points=[[0,0],[0.5,0],[1,0],[0,0.5],[1,0.5],[0,1],[0.5,1],[1,1]];" vertex="1" parent="xYtL9LTNpDdVsGrDmP8m-109">
          <mxGeometry x="524" y="55.5" width="245" height="74" as="geometry" />
        </mxCell>
        <mxCell id="xYtL9LTNpDdVsGrDmP8m-145" value="&lt;strong&gt;Cloud Service&lt;/strong&gt;&lt;div&gt;&lt;br&gt;&lt;/div&gt;&lt;div&gt;Fragebogen + &lt;/div&gt;Patientendaten" style="shape=ellipse;html=1;dashed=0;whitespace=wrap;aspect=fixed;perimeter=ellipsePerimeter;" vertex="1" parent="xYtL9LTNpDdVsGrDmP8m-109">
          <mxGeometry x="298.5" y="37.5" width="110" height="110" as="geometry" />
        </mxCell>
        <mxCell id="xYtL9LTNpDdVsGrDmP8m-146" value="Administrativ &#xa;+ &#xa;Assessment" style="text;spacingTop=-5;align=center" vertex="1" parent="xYtL9LTNpDdVsGrDmP8m-109">
          <mxGeometry x="183" y="96.5" width="90" height="53" as="geometry" />
        </mxCell>
        <mxCell id="xYtL9LTNpDdVsGrDmP8m-147" value="Patientdaten" style="html=1;dashed=0;whitespace=wrap;" vertex="1" parent="xYtL9LTNpDdVsGrDmP8m-109">
          <mxGeometry x="61" y="66.5" width="100" height="50" as="geometry" />
        </mxCell>
        <mxCell id="xYtL9LTNpDdVsGrDmP8m-110" value="Prämed Ambulanz" style="text;html=1;strokeColor=none;fillColor=none;align=left;verticalAlign=middle;whiteSpace=wrap;rounded=0;" vertex="1" parent="1">
          <mxGeometry x="930" y="485" width="190" height="100" as="geometry" />
        </mxCell>
        <mxCell id="xYtL9LTNpDdVsGrDmP8m-111" value="&lt;div&gt;SAP&lt;br&gt;&lt;/div&gt;" style="text;html=1;strokeColor=none;fillColor=none;align=left;verticalAlign=middle;whiteSpace=wrap;rounded=0;" vertex="1" parent="1">
          <mxGeometry x="1170" y="464.5" width="180" height="139" as="geometry" />
        </mxCell>
        <mxCell id="xYtL9LTNpDdVsGrDmP8m-112" value="Assessment wie in V1&lt;br&gt;&lt;div&gt;Zusätzliche Fragebögen in der Ambulanz&lt;/div&gt;&lt;div&gt;&lt;br&gt;&lt;/div&gt;" style="text;html=1;strokeColor=none;fillColor=none;align=left;verticalAlign=middle;whiteSpace=wrap;rounded=0;" vertex="1" parent="1">
          <mxGeometry x="929" y="613" width="190" height="100" as="geometry" />
        </mxCell>
        <mxCell id="xYtL9LTNpDdVsGrDmP8m-113" value="&lt;div&gt;Offenz.B. RedCap oder SAP Modul&lt;/div&gt;&lt;div&gt;&lt;br&gt;&lt;/div&gt;&lt;div&gt;Offen wie erfasst wird&lt;br&gt;&lt;/div&gt;" style="text;html=1;strokeColor=none;fillColor=none;align=left;verticalAlign=middle;whiteSpace=wrap;rounded=0;" vertex="1" parent="1">
          <mxGeometry x="1167" y="603.5" width="180" height="99" as="geometry" />
        </mxCell>
        <mxCell id="xYtL9LTNpDdVsGrDmP8m-114" value="Stationärer Aufenthält" style="swimlane;horizontal=0;whiteSpace=wrap;html=1;" vertex="1" parent="1">
          <mxGeometry x="50" y="764" width="830" height="290" as="geometry">
            <mxRectangle x="50" y="-851" width="40" height="140" as="alternateBounds" />
          </mxGeometry>
        </mxCell>
        <mxCell id="xYtL9LTNpDdVsGrDmP8m-148" value="" style="edgeStyle=none;noEdgeStyle=1;strokeColor=#990000;strokeWidth=2;entryX=0;entryY=0.5;entryDx=0;entryDy=0;" edge="1" parent="xYtL9LTNpDdVsGrDmP8m-114" target="xYtL9LTNpDdVsGrDmP8m-151">
          <mxGeometry width="100" height="100" relative="1" as="geometry">
            <mxPoint x="148" y="79" as="sourcePoint" />
            <mxPoint x="163.5" y="-2001" as="targetPoint" />
          </mxGeometry>
        </mxCell>
        <mxCell id="xYtL9LTNpDdVsGrDmP8m-149" value="" style="edgeStyle=orthogonalEdgeStyle;rounded=0;orthogonalLoop=1;jettySize=auto;html=1;" edge="1" parent="xYtL9LTNpDdVsGrDmP8m-114">
          <mxGeometry relative="1" as="geometry">
            <mxPoint x="411.5" y="78" as="sourcePoint" />
            <mxPoint x="525" y="78" as="targetPoint" />
          </mxGeometry>
        </mxCell>
        <mxCell id="xYtL9LTNpDdVsGrDmP8m-150" value="DB-1001" style="html=1;dashed=0;whitespace=wrap;shape=mxgraph.dfd.dataStoreID;align=left;spacingLeft=3;points=[[0,0],[0.5,0],[1,0],[0,0.5],[1,0.5],[0,1],[0.5,1],[1,1]];" vertex="1" parent="xYtL9LTNpDdVsGrDmP8m-114">
          <mxGeometry x="526" y="42" width="245" height="74" as="geometry" />
        </mxCell>
        <mxCell id="xYtL9LTNpDdVsGrDmP8m-151" value="&lt;strong&gt;Cloud Service&lt;/strong&gt;&lt;div&gt;&lt;br&gt;&lt;/div&gt;&lt;div&gt;Fragebogen + &lt;/div&gt;Patientendaten" style="shape=ellipse;html=1;dashed=0;whitespace=wrap;aspect=fixed;perimeter=ellipsePerimeter;" vertex="1" parent="xYtL9LTNpDdVsGrDmP8m-114">
          <mxGeometry x="300.5" y="24" width="110" height="110" as="geometry" />
        </mxCell>
        <mxCell id="xYtL9LTNpDdVsGrDmP8m-152" value="Administrativ &#xa;+ &#xa;Assessment" style="text;spacingTop=-5;align=center" vertex="1" parent="xYtL9LTNpDdVsGrDmP8m-114">
          <mxGeometry x="185" y="83" width="90" height="53" as="geometry" />
        </mxCell>
        <mxCell id="xYtL9LTNpDdVsGrDmP8m-153" value="Patientdaten" style="html=1;dashed=0;whitespace=wrap;" vertex="1" parent="xYtL9LTNpDdVsGrDmP8m-114">
          <mxGeometry x="63" y="53" width="100" height="50" as="geometry" />
        </mxCell>
        <mxCell id="xYtL9LTNpDdVsGrDmP8m-115" value="Stationärer Aufenthalt" style="text;html=1;strokeColor=none;fillColor=none;align=left;verticalAlign=middle;whiteSpace=wrap;rounded=0;" vertex="1" parent="1">
          <mxGeometry x="930" y="795" width="190" height="100" as="geometry" />
        </mxCell>
        <mxCell id="xYtL9LTNpDdVsGrDmP8m-116" value="&lt;div&gt;SAP&lt;br&gt;&lt;/div&gt;" style="text;html=1;strokeColor=none;fillColor=none;align=left;verticalAlign=middle;whiteSpace=wrap;rounded=0;" vertex="1" parent="1">
          <mxGeometry x="1170" y="774.5" width="180" height="139" as="geometry" />
        </mxCell>
        <mxCell id="xYtL9LTNpDdVsGrDmP8m-119" value="Stationärer Aufenthalt" style="text;html=1;strokeColor=none;fillColor=none;align=left;verticalAlign=middle;whiteSpace=wrap;rounded=0;" vertex="1" parent="1">
          <mxGeometry x="927" y="915.5" width="190" height="100" as="geometry" />
        </mxCell>
        <mxCell id="xYtL9LTNpDdVsGrDmP8m-120" value="Anästhesie wird separat erfasst im AN Care System" style="text;html=1;strokeColor=none;fillColor=none;align=left;verticalAlign=middle;whiteSpace=wrap;rounded=0;" vertex="1" parent="1">
          <mxGeometry x="1167" y="895" width="180" height="139" as="geometry" />
        </mxCell>
        <mxCell id="xYtL9LTNpDdVsGrDmP8m-121" value="Entlassung" style="swimlane;horizontal=0;whiteSpace=wrap;html=1;" vertex="1" parent="1">
          <mxGeometry x="50" y="1074" width="830" height="332" as="geometry">
            <mxRectangle x="50" y="-851" width="40" height="140" as="alternateBounds" />
          </mxGeometry>
        </mxCell>
        <mxCell id="xYtL9LTNpDdVsGrDmP8m-154" value="" style="edgeStyle=none;noEdgeStyle=1;strokeColor=#990000;strokeWidth=2;entryX=0;entryY=0.5;entryDx=0;entryDy=0;" edge="1" parent="xYtL9LTNpDdVsGrDmP8m-121" target="xYtL9LTNpDdVsGrDmP8m-157">
          <mxGeometry width="100" height="100" relative="1" as="geometry">
            <mxPoint x="153.5" y="91" as="sourcePoint" />
            <mxPoint x="169" y="-1989" as="targetPoint" />
          </mxGeometry>
        </mxCell>
        <mxCell id="xYtL9LTNpDdVsGrDmP8m-155" value="" style="edgeStyle=orthogonalEdgeStyle;rounded=0;orthogonalLoop=1;jettySize=auto;html=1;" edge="1" parent="xYtL9LTNpDdVsGrDmP8m-121">
          <mxGeometry relative="1" as="geometry">
            <mxPoint x="417" y="90" as="sourcePoint" />
            <mxPoint x="530.5" y="90" as="targetPoint" />
          </mxGeometry>
        </mxCell>
        <mxCell id="xYtL9LTNpDdVsGrDmP8m-156" value="DB-1001" style="html=1;dashed=0;whitespace=wrap;shape=mxgraph.dfd.dataStoreID;align=left;spacingLeft=3;points=[[0,0],[0.5,0],[1,0],[0,0.5],[1,0.5],[0,1],[0.5,1],[1,1]];" vertex="1" parent="xYtL9LTNpDdVsGrDmP8m-121">
          <mxGeometry x="531.5" y="54" width="245" height="74" as="geometry" />
        </mxCell>
        <mxCell id="xYtL9LTNpDdVsGrDmP8m-157" value="&lt;strong&gt;Cloud Service&lt;/strong&gt;&lt;div&gt;&lt;br&gt;&lt;/div&gt;&lt;div&gt;Fragebogen + &lt;/div&gt;Patientendaten" style="shape=ellipse;html=1;dashed=0;whitespace=wrap;aspect=fixed;perimeter=ellipsePerimeter;" vertex="1" parent="xYtL9LTNpDdVsGrDmP8m-121">
          <mxGeometry x="306" y="36" width="110" height="110" as="geometry" />
        </mxCell>
        <mxCell id="xYtL9LTNpDdVsGrDmP8m-158" value="Administrativ &#xa;+ &#xa;Assessment" style="text;spacingTop=-5;align=center" vertex="1" parent="xYtL9LTNpDdVsGrDmP8m-121">
          <mxGeometry x="190.5" y="95" width="90" height="53" as="geometry" />
        </mxCell>
        <mxCell id="xYtL9LTNpDdVsGrDmP8m-159" value="Patientdaten" style="html=1;dashed=0;whitespace=wrap;" vertex="1" parent="xYtL9LTNpDdVsGrDmP8m-121">
          <mxGeometry x="68.5" y="65" width="100" height="50" as="geometry" />
        </mxCell>
        <mxCell id="xYtL9LTNpDdVsGrDmP8m-122" value="Stationärer Aufenthalt" style="text;html=1;strokeColor=none;fillColor=none;align=left;verticalAlign=middle;whiteSpace=wrap;rounded=0;" vertex="1" parent="1">
          <mxGeometry x="930" y="1110" width="190" height="100" as="geometry" />
        </mxCell>
        <mxCell id="xYtL9LTNpDdVsGrDmP8m-123" value="&lt;div&gt;SAP&lt;br&gt;&lt;/div&gt;" style="text;html=1;strokeColor=none;fillColor=none;align=left;verticalAlign=middle;whiteSpace=wrap;rounded=0;" vertex="1" parent="1">
          <mxGeometry x="1170" y="1089.5" width="180" height="139" as="geometry" />
        </mxCell>
        <mxCell id="xYtL9LTNpDdVsGrDmP8m-126" value="Nachsorge" style="swimlane;horizontal=0;whiteSpace=wrap;html=1;" vertex="1" parent="1">
          <mxGeometry x="50" y="1384" width="830" height="290" as="geometry">
            <mxRectangle x="50" y="-851" width="40" height="140" as="alternateBounds" />
          </mxGeometry>
        </mxCell>
        <mxCell id="xYtL9LTNpDdVsGrDmP8m-160" value="" style="edgeStyle=none;noEdgeStyle=1;strokeColor=#990000;strokeWidth=2;entryX=0;entryY=0.5;entryDx=0;entryDy=0;" edge="1" parent="xYtL9LTNpDdVsGrDmP8m-126" target="xYtL9LTNpDdVsGrDmP8m-163">
          <mxGeometry width="100" height="100" relative="1" as="geometry">
            <mxPoint x="153.5" y="125" as="sourcePoint" />
            <mxPoint x="169" y="-1955" as="targetPoint" />
          </mxGeometry>
        </mxCell>
        <mxCell id="xYtL9LTNpDdVsGrDmP8m-161" value="" style="edgeStyle=orthogonalEdgeStyle;rounded=0;orthogonalLoop=1;jettySize=auto;html=1;" edge="1" parent="xYtL9LTNpDdVsGrDmP8m-126">
          <mxGeometry relative="1" as="geometry">
            <mxPoint x="417" y="124" as="sourcePoint" />
            <mxPoint x="530.5" y="124" as="targetPoint" />
          </mxGeometry>
        </mxCell>
        <mxCell id="xYtL9LTNpDdVsGrDmP8m-162" value="DB-1001" style="html=1;dashed=0;whitespace=wrap;shape=mxgraph.dfd.dataStoreID;align=left;spacingLeft=3;points=[[0,0],[0.5,0],[1,0],[0,0.5],[1,0.5],[0,1],[0.5,1],[1,1]];" vertex="1" parent="xYtL9LTNpDdVsGrDmP8m-126">
          <mxGeometry x="531.5" y="88" width="245" height="74" as="geometry" />
        </mxCell>
        <mxCell id="xYtL9LTNpDdVsGrDmP8m-163" value="&lt;strong&gt;Cloud Service&lt;/strong&gt;&lt;div&gt;&lt;br&gt;&lt;/div&gt;&lt;div&gt;Fragebogen + &lt;/div&gt;Patientendaten" style="shape=ellipse;html=1;dashed=0;whitespace=wrap;aspect=fixed;perimeter=ellipsePerimeter;" vertex="1" parent="xYtL9LTNpDdVsGrDmP8m-126">
          <mxGeometry x="306" y="70" width="110" height="110" as="geometry" />
        </mxCell>
        <mxCell id="xYtL9LTNpDdVsGrDmP8m-164" value="Administrativ &#xa;+ &#xa;Assessment" style="text;spacingTop=-5;align=center" vertex="1" parent="xYtL9LTNpDdVsGrDmP8m-126">
          <mxGeometry x="190.5" y="129" width="90" height="53" as="geometry" />
        </mxCell>
        <mxCell id="xYtL9LTNpDdVsGrDmP8m-165" value="Patientdaten" style="html=1;dashed=0;whitespace=wrap;" vertex="1" parent="xYtL9LTNpDdVsGrDmP8m-126">
          <mxGeometry x="68.5" y="99" width="100" height="50" as="geometry" />
        </mxCell>
        <mxCell id="xYtL9LTNpDdVsGrDmP8m-127" value="&lt;div&gt;Nachsorge mit Praxen&lt;/div&gt;&lt;div&gt;&lt;br&gt;&lt;/div&gt;&lt;div&gt;&lt;br&gt;&lt;/div&gt;&lt;div&gt;&lt;br&gt;&lt;/div&gt;&lt;div&gt;Nachorge mit Nachsorgeverfolgung mit der PreHab App&lt;br&gt;&lt;/div&gt;" style="text;html=1;strokeColor=none;fillColor=none;align=left;verticalAlign=middle;whiteSpace=wrap;rounded=0;" vertex="1" parent="1">
          <mxGeometry x="930" y="1420" width="190" height="154" as="geometry" />
        </mxCell>
        <mxCell id="xYtL9LTNpDdVsGrDmP8m-128" value="&lt;div&gt;PVS&lt;/div&gt;&lt;div&gt;&lt;br&gt;&lt;/div&gt;&lt;div&gt;&lt;br&gt;&lt;/div&gt;&lt;div&gt;&lt;br&gt;&lt;/div&gt;&lt;div&gt;&lt;br&gt;&lt;/div&gt;&lt;div&gt;e.g., PreHab App but open&lt;br&gt;&lt;/div&gt;" style="text;html=1;strokeColor=none;fillColor=none;align=left;verticalAlign=middle;whiteSpace=wrap;rounded=0;" vertex="1" parent="1">
          <mxGeometry x="1170" y="1424.5" width="180" height="139" as="geometry" />
        </mxCell>
        <mxCell id="xYtL9LTNpDdVsGrDmP8m-129" value="&lt;div&gt;30 Tage Post-OP&lt;/div&gt;&lt;div&gt;&lt;br&gt;&lt;/div&gt;&lt;div&gt;6 &lt;br&gt;&lt;/div&gt;&lt;div&gt;&lt;br&gt;&lt;/div&gt;&lt;div&gt;9 &lt;br&gt;&lt;/div&gt;&lt;div&gt;&lt;br&gt;&lt;/div&gt;&lt;div&gt;12&lt;/div&gt;&lt;div&gt;&lt;br&gt;&lt;/div&gt;&lt;div&gt;60 Monate&lt;br&gt;&lt;/div&gt;" style="text;html=1;strokeColor=none;fillColor=none;align=left;verticalAlign=middle;whiteSpace=wrap;rounded=0;" vertex="1" parent="1">
          <mxGeometry x="928" y="1571" width="190" height="154" as="geometry" />
        </mxCell>
        <mxCell id="xYtL9LTNpDdVsGrDmP8m-166" value="OFFEN" style="text;html=1;align=center;verticalAlign=middle;resizable=0;points=[];autosize=1;strokeColor=none;fillColor=none;" vertex="1" parent="1">
          <mxGeometry x="1458" y="144" width="60" height="30" as="geometry" />
        </mxCell>
        <mxCell id="xYtL9LTNpDdVsGrDmP8m-167" value="&lt;div&gt;OFFEN &lt;br&gt;&lt;/div&gt;&lt;div&gt;welche Fragen und in welchem System&lt;/div&gt;" style="text;html=1;align=center;verticalAlign=middle;resizable=0;points=[];autosize=1;strokeColor=none;fillColor=none;" vertex="1" parent="1">
          <mxGeometry x="1386" y="333" width="230" height="40" as="geometry" />
        </mxCell>
        <mxCell id="xYtL9LTNpDdVsGrDmP8m-168" value="&lt;div&gt;OFFEN &lt;br&gt;&lt;/div&gt;&lt;div&gt;wie fliessen die Daten der APP in die MEDMA&lt;br&gt;&lt;/div&gt;" style="text;html=1;align=center;verticalAlign=middle;resizable=0;points=[];autosize=1;strokeColor=none;fillColor=none;" vertex="1" parent="1">
          <mxGeometry x="1370" y="283" width="270" height="40" as="geometry" />
        </mxCell>
        <mxCell id="xYtL9LTNpDdVsGrDmP8m-169" value="&lt;div&gt;OFFEN &lt;br&gt;&lt;/div&gt;&lt;div&gt;wie fliessen die Daten der APP in die MEDMA&lt;br&gt;&lt;/div&gt;" style="text;html=1;align=center;verticalAlign=middle;resizable=0;points=[];autosize=1;strokeColor=none;fillColor=none;" vertex="1" parent="1">
          <mxGeometry x="1398" y="1444" width="270" height="40" as="geometry" />
        </mxCell>
        <mxCell id="xYtL9LTNpDdVsGrDmP8m-170" value="&lt;div&gt;OFFEN &lt;br&gt;&lt;/div&gt;&lt;div&gt;Machine Learning Komponente&lt;br&gt;&lt;/div&gt;&lt;div&gt;&lt;br&gt;&lt;/div&gt;&lt;div&gt;Prediction in der Klinik&lt;/div&gt;&lt;div&gt;Prediction im DIZ&lt;/div&gt;&lt;div&gt;...&lt;br&gt;&lt;/div&gt;" style="text;html=1;align=center;verticalAlign=middle;resizable=0;points=[];autosize=1;strokeColor=none;fillColor=none;" vertex="1" parent="1">
          <mxGeometry x="1406" y="385" width="190" height="100" as="geometry" />
        </mxCell>
        <mxCell id="xYtL9LTNpDdVsGrDmP8m-302" style="edgeStyle=none;rounded=0;orthogonalLoop=1;jettySize=auto;html=1;entryX=0;entryY=0.5;entryDx=0;entryDy=0;dashed=1;endArrow=none;endFill=0;" edge="1" parent="1" source="xYtL9LTNpDdVsGrDmP8m-171" target="sGmR2cMoliQ0h1fHMsgX-109">
          <mxGeometry relative="1" as="geometry" />
        </mxCell>
        <mxCell id="xYtL9LTNpDdVsGrDmP8m-303" style="edgeStyle=none;rounded=0;orthogonalLoop=1;jettySize=auto;html=1;entryX=0;entryY=0.5;entryDx=0;entryDy=0;dashed=1;endArrow=none;endFill=0;" edge="1" parent="1" source="xYtL9LTNpDdVsGrDmP8m-171" target="xYtL9LTNpDdVsGrDmP8m-189">
          <mxGeometry relative="1" as="geometry" />
        </mxCell>
        <mxCell id="xYtL9LTNpDdVsGrDmP8m-171" value="&lt;div&gt;Klinik &lt;br&gt;&lt;/div&gt;&lt;div&gt;Administration&lt;/div&gt;" style="shape=umlActor;verticalLabelPosition=bottom;verticalAlign=top;html=1;outlineConnect=0;" vertex="1" parent="1">
          <mxGeometry x="-50" y="-671" width="30" height="60" as="geometry" />
        </mxCell>
        <mxCell id="xYtL9LTNpDdVsGrDmP8m-304" style="edgeStyle=none;rounded=0;orthogonalLoop=1;jettySize=auto;html=1;entryX=0;entryY=0.5;entryDx=0;entryDy=0;dashed=1;endArrow=none;endFill=0;" edge="1" parent="1" source="xYtL9LTNpDdVsGrDmP8m-172" target="xYtL9LTNpDdVsGrDmP8m-178">
          <mxGeometry relative="1" as="geometry" />
        </mxCell>
        <mxCell id="xYtL9LTNpDdVsGrDmP8m-172" value="Praxis Adminstration" style="shape=umlActor;verticalLabelPosition=bottom;verticalAlign=top;html=1;outlineConnect=0;" vertex="1" parent="1">
          <mxGeometry x="-50" y="-850" width="30" height="60" as="geometry" />
        </mxCell>
        <mxCell id="xYtL9LTNpDdVsGrDmP8m-183" value="" style="edgeStyle=none;noEdgeStyle=1;strokeColor=#990000;strokeWidth=2;entryX=0;entryY=0.5;entryDx=0;entryDy=0;exitX=1;exitY=0.5;exitDx=0;exitDy=0;" edge="1" parent="1" source="xYtL9LTNpDdVsGrDmP8m-189">
          <mxGeometry width="100" height="100" relative="1" as="geometry">
            <mxPoint x="198" y="-544" as="sourcePoint" />
            <mxPoint x="350.5000000000068" y="-573" as="targetPoint" />
          </mxGeometry>
        </mxCell>
        <mxCell id="xYtL9LTNpDdVsGrDmP8m-184" value="" style="edgeStyle=orthogonalEdgeStyle;rounded=0;orthogonalLoop=1;jettySize=auto;html=1;" edge="1" parent="1">
          <mxGeometry relative="1" as="geometry">
            <mxPoint x="461.5" y="-574" as="sourcePoint" />
            <mxPoint x="575" y="-574" as="targetPoint" />
          </mxGeometry>
        </mxCell>
        <mxCell id="xYtL9LTNpDdVsGrDmP8m-185" value="&lt;div&gt;IS-03 &lt;br&gt;&lt;/div&gt;&lt;div&gt;SAP&lt;/div&gt;" style="html=1;dashed=0;whitespace=wrap;shape=mxgraph.dfd.dataStoreID;align=center;spacingLeft=3;points=[[0,0],[0.5,0],[1,0],[0,0.5],[1,0.5],[0,1],[0.5,1],[1,1]];" vertex="1" parent="1">
          <mxGeometry x="576" y="-613" width="245" height="74" as="geometry" />
        </mxCell>
        <mxCell id="xYtL9LTNpDdVsGrDmP8m-186" value="" style="edgeStyle=orthogonalEdgeStyle;rounded=0;orthogonalLoop=1;jettySize=auto;html=1;" edge="1" parent="1" source="xYtL9LTNpDdVsGrDmP8m-187" target="xYtL9LTNpDdVsGrDmP8m-185">
          <mxGeometry relative="1" as="geometry" />
        </mxCell>
        <mxCell id="xYtL9LTNpDdVsGrDmP8m-187" value="&lt;div&gt;&lt;strong&gt;KIS&lt;/strong&gt;&lt;br&gt;&lt;/div&gt;&lt;div&gt;&lt;br&gt;&lt;/div&gt;&lt;div&gt;Registrierung&lt;/div&gt;Patientendaten" style="shape=ellipse;html=1;dashed=0;whitespace=wrap;aspect=fixed;perimeter=ellipsePerimeter;" vertex="1" parent="1">
          <mxGeometry x="351.5" y="-630" width="110" height="110" as="geometry" />
        </mxCell>
        <mxCell id="xYtL9LTNpDdVsGrDmP8m-188" value="Administrativ" style="text;spacingTop=-5;align=center" vertex="1" parent="1">
          <mxGeometry x="235" y="-569" width="90" height="53" as="geometry" />
        </mxCell>
        <mxCell id="xYtL9LTNpDdVsGrDmP8m-189" value="&lt;div&gt;Patientendaten&lt;/div&gt;(Voranmeldung)" style="html=1;dashed=0;whitespace=wrap;" vertex="1" parent="1">
          <mxGeometry x="113" y="-599" width="100" height="50" as="geometry" />
        </mxCell>
        <mxCell id="xYtL9LTNpDdVsGrDmP8m-203" value="" style="ellipse;whiteSpace=wrap;html=1;" vertex="1" parent="1">
          <mxGeometry x="-58" y="-2240" width="120" height="80" as="geometry" />
        </mxCell>
        <mxCell id="xYtL9LTNpDdVsGrDmP8m-265" value="" style="group" vertex="1" connectable="0" parent="1">
          <mxGeometry x="-1036" y="-470" width="756" height="650" as="geometry" />
        </mxCell>
        <mxCell id="xYtL9LTNpDdVsGrDmP8m-204" value="&lt;p style=&quot;margin: 0px; margin-top: 4px; text-align: center; text-decoration: underline;&quot;&gt;&lt;strong&gt;Prozess V-1&lt;br&gt;&lt;/strong&gt;&lt;/p&gt;&lt;hr&gt;Onboarding&lt;br&gt;&lt;div&gt;Niedergelassene &lt;br&gt;&lt;/div&gt;&lt;div&gt;Praxis +&lt;br&gt;&lt;/div&gt;&lt;div&gt;Prä-Screening&lt;br&gt;&lt;/div&gt;&lt;p style=&quot;margin: 0px; margin-left: 8px;&quot;&gt;&lt;br&gt;&lt;/p&gt;" style="verticalAlign=middle;align=center;overflow=fill;fontSize=12;fontFamily=Helvetica;html=1;rounded=1;fontStyle=1;strokeWidth=3;fillColor=#E6FFCC" vertex="1" parent="xYtL9LTNpDdVsGrDmP8m-265">
          <mxGeometry x="38.00000000000003" y="175.99999999999997" width="110" height="90" as="geometry" />
        </mxCell>
        <mxCell id="xYtL9LTNpDdVsGrDmP8m-205" value="Ambulante Versorgung" style="whiteSpace=wrap;align=center;verticalAlign=middle;fontStyle=1;strokeWidth=3;fillColor=#FFFFCC" vertex="1" parent="xYtL9LTNpDdVsGrDmP8m-265">
          <mxGeometry x="46.00000000000003" y="44.99999999999997" width="90" height="60" as="geometry" />
        </mxCell>
        <mxCell id="xYtL9LTNpDdVsGrDmP8m-207" value="LeMeDaRT HeiIT Data Center&#xa;&lt;&lt;k8s Clinical Data Repository&gt;&gt;" style="shape=process;whiteSpace=wrap;align=center;verticalAlign=middle;size=0.0475;fontStyle=1;strokeWidth=3;fillColor=#FFCCCC" vertex="1" parent="xYtL9LTNpDdVsGrDmP8m-265">
          <mxGeometry x="20" y="331" width="546" height="50" as="geometry" />
        </mxCell>
        <mxCell id="xYtL9LTNpDdVsGrDmP8m-208" value="&lt;p style=&quot;margin: 0px; margin-top: 4px; text-align: center; text-decoration: underline;&quot;&gt;&lt;strong&gt;Prozess V0&lt;br&gt;&lt;/strong&gt;&lt;/p&gt;&lt;hr&gt;&lt;p style=&quot;margin: 0px; margin-left: 8px;&quot;&gt;Vorbereitung &lt;br&gt;klinische &lt;br&gt;Behandlung&lt;br&gt;&lt;/p&gt;" style="verticalAlign=middle;align=center;overflow=fill;fontSize=12;fontFamily=Helvetica;html=1;rounded=1;fontStyle=1;strokeWidth=3;fillColor=#E6FFCC" vertex="1" parent="xYtL9LTNpDdVsGrDmP8m-265">
          <mxGeometry x="219" y="176.99999999999997" width="110" height="90" as="geometry" />
        </mxCell>
        <mxCell id="xYtL9LTNpDdVsGrDmP8m-209" value="&lt;p style=&quot;margin: 0px; margin-top: 4px; text-align: center; text-decoration: underline;&quot;&gt;&lt;strong&gt;&lt;strong&gt;Process&lt;/strong&gt; V2&lt;br&gt;&lt;/strong&gt;&lt;/p&gt;&lt;hr&gt;&lt;p style=&quot;margin: 0px; margin-left: 8px;&quot;&gt;List Possible&lt;/p&gt;&lt;p style=&quot;margin: 0px; margin-left: 8px;&quot;&gt;System Solutions&lt;/p&gt;" style="verticalAlign=middle;align=center;overflow=fill;fontSize=12;fontFamily=Helvetica;html=1;rounded=1;fontStyle=1;strokeWidth=3;fillColor=#E6FFCC" vertex="1" parent="xYtL9LTNpDdVsGrDmP8m-265">
          <mxGeometry x="646" y="311" width="110" height="90" as="geometry" />
        </mxCell>
        <mxCell id="xYtL9LTNpDdVsGrDmP8m-210" value="&lt;p style=&quot;margin: 0px; margin-top: 4px; text-align: center; text-decoration: underline;&quot;&gt;&lt;strong&gt;&lt;strong&gt;Process&lt;/strong&gt; V1&lt;br&gt;&lt;/strong&gt;&lt;/p&gt;&lt;hr&gt;&lt;div&gt;Klinik&lt;/div&gt;&lt;div&gt;Ambulanz&lt;br&gt;&lt;/div&gt;" style="verticalAlign=middle;align=center;overflow=fill;fontSize=12;fontFamily=Helvetica;html=1;rounded=1;fontStyle=1;strokeWidth=3;fillColor=#E6FFCC" vertex="1" parent="xYtL9LTNpDdVsGrDmP8m-265">
          <mxGeometry x="399" y="176.99999999999997" width="110" height="90" as="geometry" />
        </mxCell>
        <mxCell id="xYtL9LTNpDdVsGrDmP8m-211" value="&lt;p style=&quot;margin: 0px; margin-top: 4px; text-align: center; text-decoration: underline;&quot;&gt;&lt;strong&gt;&lt;strong&gt;Process&lt;/strong&gt; 5&lt;br /&gt;&lt;/strong&gt;&lt;/p&gt;&lt;hr /&gt;&lt;p style=&quot;margin: 0px; margin-left: 8px;&quot;&gt;New System&lt;/p&gt;&lt;p style=&quot;margin: 0px; margin-left: 8px;&quot;&gt;Design&lt;/p&gt;" style="verticalAlign=middle;align=center;overflow=fill;fontSize=12;fontFamily=Helvetica;html=1;rounded=1;fontStyle=1;strokeWidth=3;fillColor=#E6FFCC" vertex="1" parent="xYtL9LTNpDdVsGrDmP8m-265">
          <mxGeometry x="383" y="450" width="110" height="90" as="geometry" />
        </mxCell>
        <mxCell id="xYtL9LTNpDdVsGrDmP8m-212" value="&lt;p style=&quot;margin: 0px; margin-top: 4px; text-align: center; text-decoration: underline;&quot;&gt;&lt;strong&gt;&lt;strong&gt;Process&lt;/strong&gt; 6&lt;br /&gt;&lt;/strong&gt;&lt;/p&gt;&lt;hr /&gt;&lt;p style=&quot;margin: 0px; margin-left: 8px;&quot;&gt;New&lt;/p&gt;&lt;p style=&quot;margin: 0px; margin-left: 8px;&quot;&gt;System&lt;/p&gt;&lt;p style=&quot;margin: 0px; margin-left: 8px;&quot;&gt;Construction&lt;/p&gt;" style="verticalAlign=middle;align=center;overflow=fill;fontSize=12;fontFamily=Helvetica;html=1;rounded=1;fontStyle=1;strokeWidth=3;fillColor=#E6FFCC" vertex="1" parent="xYtL9LTNpDdVsGrDmP8m-265">
          <mxGeometry x="37.49999999999994" y="450" width="110" height="90" as="geometry" />
        </mxCell>
        <mxCell id="xYtL9LTNpDdVsGrDmP8m-213" value="Prä-stationäre / Stationäre Verorgung" style="whiteSpace=wrap;align=center;verticalAlign=middle;fontStyle=1;strokeWidth=3;fillColor=#FFFFCC" vertex="1" parent="xYtL9LTNpDdVsGrDmP8m-265">
          <mxGeometry x="401" y="45" width="107" height="60" as="geometry" />
        </mxCell>
        <mxCell id="xYtL9LTNpDdVsGrDmP8m-217" value="" style="edgeStyle=none;noEdgeStyle=1;strokeColor=#990000;strokeWidth=2" edge="1" parent="xYtL9LTNpDdVsGrDmP8m-265" source="xYtL9LTNpDdVsGrDmP8m-205" target="xYtL9LTNpDdVsGrDmP8m-204">
          <mxGeometry width="100" height="100" relative="1" as="geometry">
            <mxPoint x="-162.99999999999997" y="189.99999999999997" as="sourcePoint" />
            <mxPoint x="-62.99999999999997" y="89.99999999999997" as="targetPoint" />
          </mxGeometry>
        </mxCell>
        <mxCell id="xYtL9LTNpDdVsGrDmP8m-219" value="&lt;p style=&quot;margin: 0px; margin-top: 4px; text-align: center; text-decoration: underline;&quot;&gt;&lt;strong&gt;&lt;strong&gt;Process&lt;/strong&gt; 7&lt;br /&gt;&lt;/strong&gt;&lt;/p&gt;&lt;hr /&gt;&lt;p style=&quot;margin: 0px; margin-left: 8px;&quot;&gt;New System&lt;/p&gt;&lt;p style=&quot;margin: 0px; margin-left: 8px;&quot;&gt;Startup and&lt;/p&gt;&lt;p style=&quot;margin: 0px; margin-left: 8px;&quot;&gt;Testing&lt;/p&gt;" style="verticalAlign=middle;align=center;overflow=fill;fontSize=12;fontFamily=Helvetica;html=1;rounded=1;fontStyle=1;strokeWidth=3;fillColor=#E6FFCC" vertex="1" parent="xYtL9LTNpDdVsGrDmP8m-265">
          <mxGeometry x="221.5" y="450" width="110" height="90" as="geometry" />
        </mxCell>
        <mxCell id="xYtL9LTNpDdVsGrDmP8m-220" value="" style="endArrow=none;noEdgeStyle=1;strokeColor=#990000;strokeWidth=2" edge="1" parent="xYtL9LTNpDdVsGrDmP8m-265" source="xYtL9LTNpDdVsGrDmP8m-211" target="xYtL9LTNpDdVsGrDmP8m-219">
          <mxGeometry relative="1" as="geometry">
            <mxPoint x="83.00819672131138" y="421" as="sourcePoint" />
            <mxPoint x="278.327868852459" y="590" as="targetPoint" />
          </mxGeometry>
        </mxCell>
        <mxCell id="xYtL9LTNpDdVsGrDmP8m-222" value="Patientendaten" style="text;spacingTop=-5;align=center" vertex="1" parent="xYtL9LTNpDdVsGrDmP8m-265">
          <mxGeometry x="24" y="123" width="30" height="24" as="geometry" />
        </mxCell>
        <mxCell id="xYtL9LTNpDdVsGrDmP8m-223" value="Documentation&#xa;from similar projects" style="text;spacingTop=-5;align=center" vertex="1" parent="xYtL9LTNpDdVsGrDmP8m-265">
          <mxGeometry x="3.0000000000000284" y="281" width="30" height="20" as="geometry" />
        </mxCell>
        <mxCell id="xYtL9LTNpDdVsGrDmP8m-224" value="" style="edgeStyle=elbowEdgeStyle;elbow=horizontal;strokeColor=#990000;strokeWidth=2" edge="1" parent="xYtL9LTNpDdVsGrDmP8m-265" target="xYtL9LTNpDdVsGrDmP8m-204">
          <mxGeometry width="100" height="100" relative="1" as="geometry">
            <mxPoint x="77" y="331" as="sourcePoint" />
            <mxPoint x="-32.99999999999997" y="370" as="targetPoint" />
            <Array as="points">
              <mxPoint x="77.00000000000003" y="310" />
            </Array>
          </mxGeometry>
        </mxCell>
        <mxCell id="xYtL9LTNpDdVsGrDmP8m-225" value="" style="edgeStyle=elbowEdgeStyle;elbow=horizontal;strokeColor=#990000;strokeWidth=2" edge="1" parent="xYtL9LTNpDdVsGrDmP8m-265" source="xYtL9LTNpDdVsGrDmP8m-204">
          <mxGeometry width="100" height="100" relative="1" as="geometry">
            <mxPoint x="-132.99999999999997" y="440" as="sourcePoint" />
            <mxPoint x="97" y="331" as="targetPoint" />
            <Array as="points">
              <mxPoint x="97.00000000000003" y="300" />
            </Array>
          </mxGeometry>
        </mxCell>
        <mxCell id="xYtL9LTNpDdVsGrDmP8m-226" value="Elaborate&#xa;cost/benefit&#xa;ratio" style="text;spacingTop=-5;align=center" vertex="1" parent="xYtL9LTNpDdVsGrDmP8m-265">
          <mxGeometry x="123" y="281" width="30" height="20" as="geometry" />
        </mxCell>
        <mxCell id="xYtL9LTNpDdVsGrDmP8m-227" value="" style="edgeStyle=elbowEdgeStyle;elbow=horizontal;strokeColor=#990000;strokeWidth=2" edge="1" parent="xYtL9LTNpDdVsGrDmP8m-265">
          <mxGeometry width="100" height="100" relative="1" as="geometry">
            <mxPoint x="266" y="331" as="sourcePoint" />
            <mxPoint x="266" y="267" as="targetPoint" />
            <Array as="points" />
          </mxGeometry>
        </mxCell>
        <mxCell id="xYtL9LTNpDdVsGrDmP8m-228" value="" style="edgeStyle=elbowEdgeStyle;elbow=horizontal;strokeColor=#990000;strokeWidth=2" edge="1" parent="xYtL9LTNpDdVsGrDmP8m-265" source="xYtL9LTNpDdVsGrDmP8m-208">
          <mxGeometry width="100" height="100" relative="1" as="geometry">
            <mxPoint x="179" y="310" as="sourcePoint" />
            <mxPoint x="289" y="331" as="targetPoint" />
            <Array as="points">
              <mxPoint x="289" y="260" />
            </Array>
          </mxGeometry>
        </mxCell>
        <mxCell id="xYtL9LTNpDdVsGrDmP8m-229" value="&lt;&lt;Multimodal&gt;&gt;" style="text;spacingTop=-5;align=center" vertex="1" parent="xYtL9LTNpDdVsGrDmP8m-265">
          <mxGeometry x="20.000000000000114" y="140.9999999999998" width="30" height="20" as="geometry" />
        </mxCell>
        <mxCell id="xYtL9LTNpDdVsGrDmP8m-230" value="Necessary&#xa;resources" style="text;spacingTop=-5;align=center" vertex="1" parent="xYtL9LTNpDdVsGrDmP8m-265">
          <mxGeometry x="321.5000000000002" y="271" width="30" height="20" as="geometry" />
        </mxCell>
        <mxCell id="xYtL9LTNpDdVsGrDmP8m-232" value="Progress&#xa;reports" style="text;spacingTop=-5;align=center" vertex="1" parent="xYtL9LTNpDdVsGrDmP8m-265">
          <mxGeometry x="595" y="86.00000000000009" width="30" height="20" as="geometry" />
        </mxCell>
        <mxCell id="xYtL9LTNpDdVsGrDmP8m-233" value="Progress&#xa;reports" style="text;spacingTop=-5;align=center" vertex="1" parent="xYtL9LTNpDdVsGrDmP8m-265">
          <mxGeometry x="536.0000000000001" y="200.00000000000009" width="30" height="20" as="geometry" />
        </mxCell>
        <mxCell id="xYtL9LTNpDdVsGrDmP8m-234" value="" style="edgeStyle=elbowEdgeStyle;elbow=horizontal;strokeColor=#990000;strokeWidth=2;exitX=0.5;exitY=0;exitDx=0;exitDy=0;" edge="1" parent="xYtL9LTNpDdVsGrDmP8m-265" source="xYtL9LTNpDdVsGrDmP8m-208" target="xYtL9LTNpDdVsGrDmP8m-213">
          <mxGeometry width="100" height="100" relative="1" as="geometry">
            <mxPoint x="225.00000000000003" y="120.00000000000009" as="sourcePoint" />
            <mxPoint x="325" y="20.000000000000092" as="targetPoint" />
            <Array as="points">
              <mxPoint x="274" y="110" />
            </Array>
          </mxGeometry>
        </mxCell>
        <mxCell id="xYtL9LTNpDdVsGrDmP8m-235" value="" style="edgeStyle=elbowEdgeStyle;elbow=vertical;entryX=0.5;entryY=1;strokeColor=#990000;strokeWidth=2;entryDx=0;entryDy=0;" edge="1" parent="xYtL9LTNpDdVsGrDmP8m-265" source="xYtL9LTNpDdVsGrDmP8m-210" target="xYtL9LTNpDdVsGrDmP8m-213">
          <mxGeometry width="100" height="100" relative="1" as="geometry">
            <mxPoint x="495" y="189.99999999999997" as="sourcePoint" />
            <mxPoint x="595" y="89.99999999999997" as="targetPoint" />
          </mxGeometry>
        </mxCell>
        <mxCell id="xYtL9LTNpDdVsGrDmP8m-236" value="" style="edgeStyle=elbowEdgeStyle;elbow=horizontal;strokeColor=#990000;strokeWidth=2" edge="1" parent="xYtL9LTNpDdVsGrDmP8m-265" target="xYtL9LTNpDdVsGrDmP8m-213">
          <mxGeometry width="100" height="100" relative="1" as="geometry">
            <mxPoint x="836" y="130" as="sourcePoint" />
            <mxPoint x="725.0000000000002" y="199.99999999999997" as="targetPoint" />
          </mxGeometry>
        </mxCell>
        <mxCell id="xYtL9LTNpDdVsGrDmP8m-237" value="" style="edgeStyle=elbowEdgeStyle;elbow=horizontal;strokeColor=#990000;strokeWidth=2;exitX=0.5;exitY=1;exitDx=0;exitDy=0;" edge="1" parent="xYtL9LTNpDdVsGrDmP8m-265">
          <mxGeometry width="100" height="100" relative="1" as="geometry">
            <mxPoint x="464" y="271" as="sourcePoint" />
            <mxPoint x="464" y="330" as="targetPoint" />
            <Array as="points">
              <mxPoint x="464" y="300" />
            </Array>
          </mxGeometry>
        </mxCell>
        <mxCell id="xYtL9LTNpDdVsGrDmP8m-238" value="" style="edgeStyle=segmentEdgeStyle;strokeColor=#990000;strokeWidth=2" edge="1" parent="xYtL9LTNpDdVsGrDmP8m-265">
          <mxGeometry width="100" height="100" relative="1" as="geometry">
            <mxPoint x="438" y="330" as="sourcePoint" />
            <mxPoint x="437.99999999999955" y="271" as="targetPoint" />
            <Array as="points">
              <mxPoint x="438" y="330" />
            </Array>
          </mxGeometry>
        </mxCell>
        <mxCell id="xYtL9LTNpDdVsGrDmP8m-239" value="Existing&#xa;Models" style="text;spacingTop=-5;align=center" vertex="1" parent="xYtL9LTNpDdVsGrDmP8m-265">
          <mxGeometry x="483.0000000000002" y="283.9999999999999" width="30" height="20" as="geometry" />
        </mxCell>
        <mxCell id="xYtL9LTNpDdVsGrDmP8m-240" value="Equipment&#xa;specification" style="text;spacingTop=-5;align=center" vertex="1" parent="xYtL9LTNpDdVsGrDmP8m-265">
          <mxGeometry x="580" y="281" width="30" height="20" as="geometry" />
        </mxCell>
        <mxCell id="xYtL9LTNpDdVsGrDmP8m-241" value="" style="edgeStyle=elbowEdgeStyle;elbow=vertical;strokeColor=#990000;strokeWidth=2" edge="1" parent="xYtL9LTNpDdVsGrDmP8m-265" source="xYtL9LTNpDdVsGrDmP8m-207" target="xYtL9LTNpDdVsGrDmP8m-209">
          <mxGeometry width="100" height="100" relative="1" as="geometry">
            <mxPoint x="465" y="440" as="sourcePoint" />
            <mxPoint x="565" y="340" as="targetPoint" />
            <Array as="points">
              <mxPoint x="615" y="350" />
            </Array>
          </mxGeometry>
        </mxCell>
        <mxCell id="xYtL9LTNpDdVsGrDmP8m-242" value="" style="edgeStyle=elbowEdgeStyle;elbow=vertical;strokeColor=#990000;strokeWidth=2" edge="1" parent="xYtL9LTNpDdVsGrDmP8m-265" source="xYtL9LTNpDdVsGrDmP8m-209" target="xYtL9LTNpDdVsGrDmP8m-207">
          <mxGeometry width="100" height="100" relative="1" as="geometry">
            <mxPoint x="425" y="440" as="sourcePoint" />
            <mxPoint x="525" y="340" as="targetPoint" />
            <Array as="points">
              <mxPoint x="615" y="370" />
            </Array>
          </mxGeometry>
        </mxCell>
        <mxCell id="xYtL9LTNpDdVsGrDmP8m-243" value="Resources" style="text;spacingTop=-5;align=center" vertex="1" parent="xYtL9LTNpDdVsGrDmP8m-265">
          <mxGeometry x="586" y="330.99999999999994" width="30" height="20" as="geometry" />
        </mxCell>
        <mxCell id="xYtL9LTNpDdVsGrDmP8m-244" value="System &#xa;Advantages &#xa;and Limitations" style="text;spacingTop=-5;align=center" vertex="1" parent="xYtL9LTNpDdVsGrDmP8m-265">
          <mxGeometry x="595" y="371.0000000000001" width="30" height="20" as="geometry" />
        </mxCell>
        <mxCell id="xYtL9LTNpDdVsGrDmP8m-245" value="" style="edgeStyle=elbowEdgeStyle;elbow=horizontal;strokeColor=#990000;strokeWidth=2" edge="1" parent="xYtL9LTNpDdVsGrDmP8m-265">
          <mxGeometry width="100" height="100" relative="1" as="geometry">
            <mxPoint x="455" y="450" as="sourcePoint" />
            <mxPoint x="455" y="381" as="targetPoint" />
            <Array as="points">
              <mxPoint x="455" y="410" />
            </Array>
          </mxGeometry>
        </mxCell>
        <mxCell id="xYtL9LTNpDdVsGrDmP8m-246" value="" style="edgeStyle=elbowEdgeStyle;elbow=horizontal;strokeColor=#990000;strokeWidth=2" edge="1" parent="xYtL9LTNpDdVsGrDmP8m-265">
          <mxGeometry width="100" height="100" relative="1" as="geometry">
            <mxPoint x="427" y="381" as="sourcePoint" />
            <mxPoint x="427" y="450" as="targetPoint" />
            <Array as="points">
              <mxPoint x="427" y="420" />
            </Array>
          </mxGeometry>
        </mxCell>
        <mxCell id="xYtL9LTNpDdVsGrDmP8m-248" value="Hardware and&#xa;Software specs" style="text;spacingTop=-5;align=center" vertex="1" parent="xYtL9LTNpDdVsGrDmP8m-265">
          <mxGeometry x="503" y="550" width="30" height="20" as="geometry" />
        </mxCell>
        <mxCell id="xYtL9LTNpDdVsGrDmP8m-250" value="Progress&#xa;Reports" style="text;spacingTop=-5;align=center" vertex="1" parent="xYtL9LTNpDdVsGrDmP8m-265">
          <mxGeometry x="363.00000000000045" y="570.0000000000001" width="30" height="20" as="geometry" />
        </mxCell>
        <mxCell id="xYtL9LTNpDdVsGrDmP8m-252" value="Progress&#xa;Reports" style="text;spacingTop=-5;align=center" vertex="1" parent="xYtL9LTNpDdVsGrDmP8m-265">
          <mxGeometry x="278.0000000000002" y="570.0000000000002" width="30" height="20" as="geometry" />
        </mxCell>
        <mxCell id="xYtL9LTNpDdVsGrDmP8m-254" value="Progress&#xa;Reports" style="text;spacingTop=-5;align=center" vertex="1" parent="xYtL9LTNpDdVsGrDmP8m-265">
          <mxGeometry x="109.99999999999997" y="590.0000000000001" width="30" height="20" as="geometry" />
        </mxCell>
        <mxCell id="xYtL9LTNpDdVsGrDmP8m-256" value="" style="edgeStyle=elbowEdgeStyle;elbow=horizontal;strokeColor=#990000;strokeWidth=2" edge="1" parent="xYtL9LTNpDdVsGrDmP8m-265" target="xYtL9LTNpDdVsGrDmP8m-219">
          <mxGeometry width="100" height="100" relative="1" as="geometry">
            <mxPoint x="268" y="381" as="sourcePoint" />
            <mxPoint x="28.00000000000003" y="340" as="targetPoint" />
            <Array as="points">
              <mxPoint x="268" y="410" />
            </Array>
          </mxGeometry>
        </mxCell>
        <mxCell id="xYtL9LTNpDdVsGrDmP8m-257" value="" style="edgeStyle=elbowEdgeStyle;elbow=horizontal;strokeColor=#990000;strokeWidth=2" edge="1" parent="xYtL9LTNpDdVsGrDmP8m-265" source="xYtL9LTNpDdVsGrDmP8m-219">
          <mxGeometry width="100" height="100" relative="1" as="geometry">
            <mxPoint x="-62.000000000000085" y="450" as="sourcePoint" />
            <mxPoint x="288" y="381" as="targetPoint" />
            <Array as="points">
              <mxPoint x="288" y="410" />
            </Array>
          </mxGeometry>
        </mxCell>
        <mxCell id="xYtL9LTNpDdVsGrDmP8m-258" value="Version&#xa;specs" style="text;spacingTop=-5;align=center" vertex="1" parent="xYtL9LTNpDdVsGrDmP8m-265">
          <mxGeometry x="110.00000000000003" y="401" width="30" height="20" as="geometry" />
        </mxCell>
        <mxCell id="xYtL9LTNpDdVsGrDmP8m-259" value="Certificates,&#xa;system&#xa;libraries" style="text;spacingTop=-5;align=center" vertex="1" parent="xYtL9LTNpDdVsGrDmP8m-265">
          <mxGeometry x="29.00000000000003" y="401.0000000000002" width="30" height="20" as="geometry" />
        </mxCell>
        <mxCell id="xYtL9LTNpDdVsGrDmP8m-260" value="" style="edgeStyle=elbowEdgeStyle;elbow=horizontal;strokeColor=#990000;strokeWidth=2" edge="1" parent="xYtL9LTNpDdVsGrDmP8m-265" target="xYtL9LTNpDdVsGrDmP8m-212">
          <mxGeometry width="100" height="100" relative="1" as="geometry">
            <mxPoint x="99" y="381" as="sourcePoint" />
            <mxPoint x="-20.999999999999858" y="340" as="targetPoint" />
            <Array as="points">
              <mxPoint x="99.00000000000003" y="410" />
            </Array>
          </mxGeometry>
        </mxCell>
        <mxCell id="xYtL9LTNpDdVsGrDmP8m-261" value="" style="edgeStyle=elbowEdgeStyle;elbow=horizontal;strokeColor=#990000;strokeWidth=2" edge="1" parent="xYtL9LTNpDdVsGrDmP8m-265" source="xYtL9LTNpDdVsGrDmP8m-212">
          <mxGeometry width="100" height="100" relative="1" as="geometry">
            <mxPoint x="-110.99999999999997" y="450" as="sourcePoint" />
            <mxPoint x="79" y="381" as="targetPoint" />
            <Array as="points">
              <mxPoint x="79.00000000000003" y="410" />
            </Array>
          </mxGeometry>
        </mxCell>
        <mxCell id="xYtL9LTNpDdVsGrDmP8m-262" value="System&#xa;specs" style="text;spacingTop=-5;align=center" vertex="1" parent="xYtL9LTNpDdVsGrDmP8m-265">
          <mxGeometry x="-11.000000000000028" y="505.0000000000001" width="30" height="20" as="geometry" />
        </mxCell>
        <mxCell id="xYtL9LTNpDdVsGrDmP8m-263" value="Design&#xa;specs" style="text;spacingTop=-5;align=center" vertex="1" parent="xYtL9LTNpDdVsGrDmP8m-265">
          <mxGeometry x="301.5" y="401.0000000000002" width="30" height="20" as="geometry" />
        </mxCell>
        <mxCell id="xYtL9LTNpDdVsGrDmP8m-264" value="System&#xa;version" style="text;spacingTop=-5;align=center" vertex="1" parent="xYtL9LTNpDdVsGrDmP8m-265">
          <mxGeometry x="228.99999999999977" y="401" width="30" height="20" as="geometry" />
        </mxCell>
        <mxCell id="xYtL9LTNpDdVsGrDmP8m-283" style="edgeStyle=none;rounded=0;orthogonalLoop=1;jettySize=auto;html=1;exitX=0;exitY=0.5;exitDx=0;exitDy=0;dashed=1;endArrow=none;endFill=0;" edge="1" parent="xYtL9LTNpDdVsGrDmP8m-265" source="xYtL9LTNpDdVsGrDmP8m-222" target="xYtL9LTNpDdVsGrDmP8m-222">
          <mxGeometry relative="1" as="geometry" />
        </mxCell>
        <mxCell id="xYtL9LTNpDdVsGrDmP8m-267" value="MEDMA DIZ" style="shape=process;whiteSpace=wrap;align=center;verticalAlign=middle;size=0.0475;fontStyle=1;strokeWidth=3;fillColor=#FFCCCC;rotation=-90;" vertex="1" parent="1">
          <mxGeometry x="-1406" y="-137" width="328" height="50" as="geometry" />
        </mxCell>
        <mxCell id="xYtL9LTNpDdVsGrDmP8m-280" style="rounded=0;orthogonalLoop=1;jettySize=auto;html=1;entryX=1;entryY=0.5;entryDx=0;entryDy=0;endArrow=none;endFill=0;dashed=1;" edge="1" parent="1" source="xYtL9LTNpDdVsGrDmP8m-276" target="xYtL9LTNpDdVsGrDmP8m-270">
          <mxGeometry relative="1" as="geometry" />
        </mxCell>
        <mxCell id="xYtL9LTNpDdVsGrDmP8m-276" value="Systeme" style="swimlane;fontStyle=0;childLayout=stackLayout;horizontal=1;startSize=30;horizontalStack=0;resizeParent=1;resizeParentMax=0;resizeLast=0;collapsible=1;marginBottom=0;whiteSpace=wrap;html=1;" vertex="1" parent="1">
          <mxGeometry x="958" y="-145" width="162" height="120" as="geometry" />
        </mxCell>
        <mxCell id="xYtL9LTNpDdVsGrDmP8m-277" value="RedCap" style="text;strokeColor=none;fillColor=none;align=left;verticalAlign=middle;spacingLeft=4;spacingRight=4;overflow=hidden;points=[[0,0.5],[1,0.5]];portConstraint=eastwest;rotatable=0;whiteSpace=wrap;html=1;" vertex="1" parent="xYtL9LTNpDdVsGrDmP8m-276">
          <mxGeometry y="30" width="162" height="30" as="geometry" />
        </mxCell>
        <mxCell id="xYtL9LTNpDdVsGrDmP8m-278" value="SAP - Planung" style="text;strokeColor=none;fillColor=none;align=left;verticalAlign=middle;spacingLeft=4;spacingRight=4;overflow=hidden;points=[[0,0.5],[1,0.5]];portConstraint=eastwest;rotatable=0;whiteSpace=wrap;html=1;" vertex="1" parent="xYtL9LTNpDdVsGrDmP8m-276">
          <mxGeometry y="60" width="162" height="30" as="geometry" />
        </mxCell>
        <mxCell id="xYtL9LTNpDdVsGrDmP8m-279" value="sonstiges (Papier, Web,...)" style="text;strokeColor=none;fillColor=none;align=left;verticalAlign=middle;spacingLeft=4;spacingRight=4;overflow=hidden;points=[[0,0.5],[1,0.5]];portConstraint=eastwest;rotatable=0;whiteSpace=wrap;html=1;" vertex="1" parent="xYtL9LTNpDdVsGrDmP8m-276">
          <mxGeometry y="90" width="162" height="30" as="geometry" />
        </mxCell>
        <mxCell id="xYtL9LTNpDdVsGrDmP8m-214" value="Management" style="whiteSpace=wrap;align=center;verticalAlign=middle;fontStyle=1;strokeWidth=3;fillColor=#FFFFCC" vertex="1" parent="1">
          <mxGeometry x="-824.4999999999999" y="170" width="90" height="60" as="geometry" />
        </mxCell>
        <mxCell id="xYtL9LTNpDdVsGrDmP8m-249" value="" style="edgeStyle=elbowEdgeStyle;elbow=horizontal;strokeColor=#990000;strokeWidth=2;exitX=0.346;exitY=0.999;exitDx=0;exitDy=0;exitPerimeter=0;" edge="1" parent="1" source="xYtL9LTNpDdVsGrDmP8m-211" target="xYtL9LTNpDdVsGrDmP8m-214">
          <mxGeometry width="100" height="100" relative="1" as="geometry">
            <mxPoint x="-618" y="60" as="sourcePoint" />
            <mxPoint x="-638" y="100" as="targetPoint" />
            <Array as="points">
              <mxPoint x="-615" y="130" />
            </Array>
          </mxGeometry>
        </mxCell>
        <mxCell id="xYtL9LTNpDdVsGrDmP8m-251" value="" style="edgeStyle=elbowEdgeStyle;elbow=horizontal;strokeColor=#990000;strokeWidth=2" edge="1" parent="1" source="xYtL9LTNpDdVsGrDmP8m-219" target="xYtL9LTNpDdVsGrDmP8m-214">
          <mxGeometry width="100" height="100" relative="1" as="geometry">
            <mxPoint x="-958" y="130.00000000000023" as="sourcePoint" />
            <mxPoint x="-927.9999999999999" y="120" as="targetPoint" />
          </mxGeometry>
        </mxCell>
        <mxCell id="xYtL9LTNpDdVsGrDmP8m-253" value="" style="edgeStyle=elbowEdgeStyle;elbow=horizontal;strokeColor=#990000;strokeWidth=2" edge="1" parent="1" source="xYtL9LTNpDdVsGrDmP8m-212" target="xYtL9LTNpDdVsGrDmP8m-214">
          <mxGeometry width="100" height="100" relative="1" as="geometry">
            <mxPoint x="-1028" y="210" as="sourcePoint" />
            <mxPoint x="-927.9999999999999" y="110" as="targetPoint" />
            <Array as="points">
              <mxPoint x="-946" y="100" />
              <mxPoint x="-914" y="100" />
            </Array>
          </mxGeometry>
        </mxCell>
        <mxCell id="xYtL9LTNpDdVsGrDmP8m-216" value="Vendors" style="whiteSpace=wrap;align=center;verticalAlign=middle;fontStyle=1;strokeWidth=3;fillColor=#FFFFCC" vertex="1" parent="1">
          <mxGeometry x="-591.0000000000001" y="170" width="90" height="60" as="geometry" />
        </mxCell>
        <mxCell id="xYtL9LTNpDdVsGrDmP8m-247" value="" style="edgeStyle=elbowEdgeStyle;elbow=horizontal;strokeColor=#990000;strokeWidth=2" edge="1" parent="1" source="xYtL9LTNpDdVsGrDmP8m-216" target="xYtL9LTNpDdVsGrDmP8m-211">
          <mxGeometry width="100" height="100" relative="1" as="geometry">
            <mxPoint x="-728" y="170" as="sourcePoint" />
            <mxPoint x="-628" y="70" as="targetPoint" />
          </mxGeometry>
        </mxCell>
        <mxCell id="xYtL9LTNpDdVsGrDmP8m-215" value="Engineering" style="whiteSpace=wrap;align=center;verticalAlign=middle;fontStyle=1;strokeWidth=3;fillColor=#FFFFCC" vertex="1" parent="1">
          <mxGeometry x="-1168" y="-144.0000000000001" width="90" height="60" as="geometry" />
        </mxCell>
        <mxCell id="xYtL9LTNpDdVsGrDmP8m-255" value="" style="edgeStyle=elbowEdgeStyle;elbow=vertical;strokeColor=#990000;strokeWidth=2;exitX=0;exitY=0.5;exitDx=0;exitDy=0;" edge="1" parent="1" source="xYtL9LTNpDdVsGrDmP8m-207" target="xYtL9LTNpDdVsGrDmP8m-215">
          <mxGeometry width="100" height="100" relative="1" as="geometry">
            <mxPoint x="-1078" y="210" as="sourcePoint" />
            <mxPoint x="-978" y="110" as="targetPoint" />
          </mxGeometry>
        </mxCell>
        <mxCell id="xYtL9LTNpDdVsGrDmP8m-297" style="edgeStyle=none;rounded=0;orthogonalLoop=1;jettySize=auto;html=1;entryX=0;entryY=0.5;entryDx=0;entryDy=0;dashed=1;endArrow=none;endFill=0;" edge="1" parent="1" source="xYtL9LTNpDdVsGrDmP8m-284" target="xYtL9LTNpDdVsGrDmP8m-135">
          <mxGeometry relative="1" as="geometry" />
        </mxCell>
        <mxCell id="xYtL9LTNpDdVsGrDmP8m-284" value="Klinik Organisation" style="shape=umlActor;verticalLabelPosition=bottom;verticalAlign=top;html=1;outlineConnect=0;" vertex="1" parent="1">
          <mxGeometry x="-43" y="7.5" width="30" height="60" as="geometry" />
        </mxCell>
        <mxCell id="xYtL9LTNpDdVsGrDmP8m-296" style="edgeStyle=none;rounded=0;orthogonalLoop=1;jettySize=auto;html=1;entryX=0;entryY=0.5;entryDx=0;entryDy=0;dashed=1;endArrow=none;endFill=0;" edge="1" parent="1" source="xYtL9LTNpDdVsGrDmP8m-285" target="xYtL9LTNpDdVsGrDmP8m-294">
          <mxGeometry relative="1" as="geometry" />
        </mxCell>
        <mxCell id="xYtL9LTNpDdVsGrDmP8m-298" style="edgeStyle=none;rounded=0;orthogonalLoop=1;jettySize=auto;html=1;entryX=0;entryY=0.75;entryDx=0;entryDy=0;dashed=1;endArrow=none;endFill=0;" edge="1" parent="1" source="xYtL9LTNpDdVsGrDmP8m-285" target="xYtL9LTNpDdVsGrDmP8m-135">
          <mxGeometry relative="1" as="geometry" />
        </mxCell>
        <mxCell id="xYtL9LTNpDdVsGrDmP8m-285" value="HCP" style="shape=umlActor;verticalLabelPosition=bottom;verticalAlign=top;html=1;outlineConnect=0;" vertex="1" parent="1">
          <mxGeometry x="-43" y="114" width="30" height="60" as="geometry" />
        </mxCell>
        <mxCell id="xYtL9LTNpDdVsGrDmP8m-299" style="edgeStyle=none;rounded=0;orthogonalLoop=1;jettySize=auto;html=1;entryX=0;entryY=0.75;entryDx=0;entryDy=0;dashed=1;endArrow=none;endFill=0;" edge="1" parent="1" source="xYtL9LTNpDdVsGrDmP8m-289" target="xYtL9LTNpDdVsGrDmP8m-294">
          <mxGeometry relative="1" as="geometry" />
        </mxCell>
        <mxCell id="xYtL9LTNpDdVsGrDmP8m-289" value="Study Nurse" style="shape=umlActor;verticalLabelPosition=bottom;verticalAlign=top;html=1;outlineConnect=0;" vertex="1" parent="1">
          <mxGeometry x="-43" y="230" width="30" height="60" as="geometry" />
        </mxCell>
      </root>
    </mxGraphModel>
  </diagram>
</mxfile>
